{
.appVersion = "1189";
DisplayStrings = (
"/ca-tamil",
"/su-tamil",
"",
"/aytham-tamil",
"/a-sinhala/aa-sinhala/ae-sinhala/aee-sinhala/ai-sinhala/au-sinhala/e-sinhala/ee-sinhala/fa-sinhala/i-sinhala/ii-sinhala/ja-sinhala/ka-sinhala/la-sinhala/ma-sinhala/o-sinhala/oo-sinhala/pa-sinhala/ra-sinhala/sha-sinhala/ssa-sinhala/ta-sinhala/u-sinhala/uu-sinhala/va-sinhala/ya-sinhala",
"/a-sinhala/aa-sinhala/eMatra-sinhala/ai-sinhala/au-sinhala/e-sinhala/ee-sinhala/fa-sinhala/i-sinhala/ra-sinhala/ii-sinhala/ja-sinhala/ka-sinhala/la-sinhala/ma-sinhala/o-sinhala/oo-sinhala/pa-sinhala/ra-sinhala/sha-sinhala/ssa-sinhala/ta-sinhala/u-sinhala/uu-sinhala/va-sinhala/ya-sinhala \012\012\012",
"/a-sinhala/aa-sinhala/ai-sinhala/au-sinhala/e-sinhala/ee-sinhala/fa-sinhala/i-sinhala/ii-sinhala/ja-sinhala/ka-sinhala/la-sinhala/ma-sinhala/o-sinhala/oo-sinhala/pa-sinhala/ra-sinhala/sha-sinhala/ssa-sinhala/ta-sinhala/u-sinhala/uu-sinhala/va-sinhala/ya-sinhala/ya-tamil/aaMatra-sinhala/aaeMatra-sinhala/aeMatra-sinhala/aiMatra-sinhala/anusvaraya-sinhala ./auMatra-sinhala/eMatra-sinhala/eeMatra-sinhala/iMatra-sinhala/iiMatra-sinhala/lVocalicMatra-sinhala/oMatra-sinhala/ooMatra-sinhala/rVocalicMatra-sinhala/uMatra-sinhala/uuMatra-sinhala/virama-sinhala/visargaya-sinhala",
"/ha-tamil",
"/ha-sinhala"
);
copyright = "Copyright (c) 2013 Pathum Egodawatta";
customParameters = (
{
name = license;
value = GPL;
},
{
name = versionString;
value = "Version 2.00; DEV";
}
);
date = "2011-09-21 05:09:10 +0000";
designer = "Pathum Egodawatta";
disablesNiceNames = 1;
familyName = Amma;
featurePrefixes = (
{
code = "languagesystem DFLT dflt;";
name = Languagesystems;
}
);
fontMaster = (
{
ascender = 819;
capHeight = 0;
customParameters = (
{
name = typoAscender;
value = 1400;
},
{
name = typoDescender;
value = -648;
},
{
name = typoLineGap;
value = 20;
},
{
name = hheaAscender;
value = 866;
},
{
name = hheaDescender;
value = -380;
},
{
name = hheaLineGap;
value = 0;
},
{
name = winAscent;
value = 866;
},
{

glyphs = (
{
color = 3;
glyphname = "a-sinhala";
lastChange = "2018-12-17 06:42:43 +0000";
layers = (
{
layerId = "FDB844D3-6113-4F20-A391-626B83580871";
paths = (
{
closed = 1;
nodes = (
"434 647 OFFCURVE",
"474 611 OFFCURVE",
"474 556 CURVE SMOOTH",
"474 485 OFFCURVE",
"417 438 OFFCURVE",
"344 438 CURVE SMOOTH",
"279 438 OFFCURVE",
"223 486 OFFCURVE",
"223 554 CURVE SMOOTH",
"223 649 OFFCURVE",
"298 708 OFFCURVE",
"403 708 CURVE SMOOTH",
"538 708 OFFCURVE",
"674 618 OFFCURVE",
"674 404 CURVE",
"674 276 LINE",
"674 66 OFFCURVE",
"510 -23 OFFCURVE",
"386 -23 CURVE SMOOTH",
"229 -23 OFFCURVE",
"121 47 OFFCURVE",
"121 177 CURVE SMOOTH",
"121 305 OFFCURVE",
"235 389 OFFCURVE",
"355 414 CURVE SMOOTH",
"423 428 OFFCURVE",
"532 432 OFFCURVE",
"571 432 CURVE SMOOTH",
"661 432 OFFCURVE",
"764 418 OFFCURVE",
"777 415 CURVE",
"747 391 LINE",
"747 514 LINE SMOOTH",
"747 598 OFFCURVE",
"802 660 OFFCURVE",
"879 660 CURVE SMOOTH",
"969 660 OFFCURVE",
"1017 584 OFFCURVE",
"991 499 CURVE",
"903 525 LINE",
"916 544 OFFCURVE",
"908 572 OFFCURVE",
"885 572 CURVE SMOOTH",
"863 572 OFFCURVE",
"842 559 OFFCURVE",
"842 489 CURVE SMOOTH",
"842 -150 LINE",
"747 -170 LINE",
"747 363 LINE",
"774 328 LINE",
"766 333 OFFCURVE",
"640 342 OFFCURVE",
"578 342 CURVE SMOOTH",
"395 342 OFFCURVE",
"222 314 OFFCURVE",
"222 180 CURVE SMOOTH",
"222 117 OFFCURVE",
"276 72 OFFCURVE",
"381 72 CURVE SMOOTH",
"442 72 OFFCURVE",
"571 104 OFFCURVE",
"571 286 CURVE",
"571 414 LINE",
"571 572 OFFCURVE",
"494 619 OFFCURVE",
"407 623 CURVE SMOOTH",
"332 626 OFFCURVE",
"307 584 OFFCURVE",
"307 556 CURVE SMOOTH",
"307 528 OFFCURVE",
"327 507 OFFCURVE",
"355 507 CURVE SMOOTH",
"388 507 OFFCURVE",
"407 528 OFFCURVE",
"407 556 CURVE SMOOTH",
"407 584 OFFCURVE",
"385 630 OFFCURVE",
"352 630 CURVE",
"412 658 LINE"
);
}
);
width = 975;
}
);
unicode = 0D85;
},
{
glyphname = "ba-sinhala";
lastChange = "2018-11-12 09:04:22 +0000";
layers = (
{
layerId = "FDB844D3-6113-4F20-A391-626B83580871";
paths = (
{
closed = 1;
nodes = (
"474 598 OFFCURVE",
"606 529 OFFCURVE",
"606 401 CURVE SMOOTH",
"606 358 OFFCURVE",
"595 338 OFFCURVE",
"583 312 CURVE SMOOTH",
"556 259 OFFCURVE",
"550 227 OFFCURVE",
"566 164 CURVE SMOOTH",
"573 138 OFFCURVE",
"589 91 OFFCURVE",
"616 91 CURVE SMOOTH",
"712 88 OFFCURVE",
"767 205 OFFCURVE",
"792 293 CURVE SMOOTH",
"867 557 OFFCURVE",
"671 782 OFFCURVE",
"396 782 CURVE SMOOTH",
"340 782 OFFCURVE",
"288 771 OFFCURVE",
"242 748 CURVE SMOOTH",
"196 725 OFFCURVE",
"152 694 OFFCURVE",
"110 655 CURVE",
"37 751 LINE",
"100 812 OFFCURVE",
"187 851 OFFCURVE",
"296 869 CURVE SMOOTH",
"329 874 OFFCURVE",
"361 877 OFFCURVE",
"393 877 CURVE SMOOTH",
"541 877 OFFCURVE",
"667 834 OFFCURVE",
"755 767 CURVE SMOOTH",
"842 700 OFFCURVE",
"913 591 OFFCURVE",
"913 444 CURVE SMOOTH",
"913 217 OFFCURVE",
"803 -13 OFFCURVE",
"619 -13 CURVE SMOOTH",
"552 -13 OFFCURVE",
"508 6 OFFCURVE",
"486 44 CURVE SMOOTH",
"454 101 OFFCURVE",
"455 162 OFFCURVE",
"455 228 CURVE SMOOTH",
"455 283 OFFCURVE",
"504 337 OFFCURVE",
"505 381 CURVE SMOOTH",
"505 451 OFFCURVE",
"443 499 OFFCURVE",
"361 499 CURVE SMOOTH",
"263 499 OFFCURVE",
"130 441 OFFCURVE",
"130 322 CURVE SMOOTH",
"130 256 OFFCURVE",
"133 207 OFFCURVE",
"180 134 CURVE SMOOTH",
"193 114 OFFCURVE",
"211 102 OFFCURVE",
"234 101 CURVE SMOOTH",
"269 99 OFFCURVE",
"297 110 OFFCURVE",
"296 139 CURVE SMOOTH",
"295 164 OFFCURVE",
"275 183 OFFCURVE",
"252 188 CURVE SMOOTH",
"251 187 OFFCURVE",
"252 192 OFFCURVE",
"256 200 CURVE SMOOTH",
"263 216 OFFCURVE",
"284 268 OFFCURVE",
"289 266 CURVE",
"269 275 OFFCURVE",
"280 274 OFFCURVE",
"295 268 CURVE SMOOTH",
"352 246 OFFCURVE",
"406 189 OFFCURVE",
"404 116 CURVE SMOOTH",
"402 36 OFFCURVE",
"349 -11 OFFCURVE",
"267 -11 CURVE SMOOTH",
"184 -11 OFFCURVE",
"133 17 OFFCURVE",
"96 64 CURVE SMOOTH",
"56 113 OFFCURVE",
"37 178 OFFCURVE",
"37 258 CURVE SMOOTH",
"37 459 OFFCURVE",
"161 598 OFFCURVE",
"369 598 CURVE SMOOTH"
);
}
);
width = 953;
}
);
unicode = 0DB6;
},
{
glyphname = "ca-sinhala";
lastChange = "2018-02-20 19:37:35 +0000";
layers = (
{
layerId = "FDB844D3-6113-4F20-A391-626B83580871";
paths = (
{
closed = 1;
nodes = (
"397 523 OFFCURVE",
"365 559 OFFCURVE",
"306 559 CURVE SMOOTH",
"253 559 OFFCURVE",
"227 540 OFFCURVE",
"227 502 CURVE SMOOTH",
"227 496 LINE SMOOTH",
"227 493 OFFCURVE",
"227 490 OFFCURVE",
"228 489 CURVE",
"155 485 LINE",
"154 493 OFFCURVE",
"153 501 OFFCURVE",
"153 508 CURVE SMOOTH",
"153 593 OFFCURVE",
"217 627 OFFCURVE",
"308 627 CURVE SMOOTH",
"417 627 OFFCURVE",
"473 554 OFFCURVE",
"473 440 CURVE SMOOTH",
"473 398 LINE",
"385 398 LINE SMOOTH",
"327 398 OFFCURVE",
"285 396 OFFCURVE",
"258 391 CURVE SMOOTH",
"178 377 OFFCURVE",
"124 325 OFFCURVE",
"124 238 CURVE SMOOTH",
"124 112 OFFCURVE",
"230 62 OFFCURVE",
"365 62 CURVE SMOOTH",
"517 62 OFFCURVE",
"621 118 OFFCURVE",
"678 231 CURVE SMOOTH",
"706 287 OFFCURVE",
"720 352 OFFCURVE",
"720 428 CURVE SMOOTH",
"720 582 OFFCURVE",
"660 691 OFFCURVE",
"557 743 CURVE SMOOTH",
"506 770 OFFCURVE",
"450 784 OFFCURVE",
"389 784 CURVE SMOOTH",
"252 784 OFFCURVE",
"175 756 OFFCURVE",
"82 702 CURVE",
"49 769 LINE",
"151 827 OFFCURVE",
"262 856 OFFCURVE",
"383 856 CURVE SMOOTH",
"558 856 OFFCURVE",
"685 777 OFFCURVE",
"747 658 CURVE SMOOTH",
"780 594 OFFCURVE",
"797 517 OFFCURVE",
"797 428 CURVE SMOOTH",
"797 243 OFFCURVE",
"724 109 OFFCURVE",
"602 42 CURVE SMOOTH",
"538 7 OFFCURVE",
"460 -11 OFFCURVE",
"369 -11 CURVE SMOOTH",
"193 -11 OFFCURVE",
"47 68 OFFCURVE",
"50 232 CURVE SMOOTH",
"50 310 OFFCURVE",
"82 367 OFFCURVE",
"146 402 CURVE",
"123 399 OFFCURVE",
"93 398 OFFCURVE",
"56 398 CURVE SMOOTH",
"31 398 LINE",
"31 466 LINE",
"401 466 LINE"
);
}
);
width = 834;
}
);
unicode = 0DA0;
},
{
glyphname = "cha-sinhala";
lastChange = "2018-02-20 19:37:35 +0000";
layers = (
{
layerId = "FDB844D3-6113-4F20-A391-626B83580871";
paths = (
{
closed = 1;
nodes = (
"311 523 OFFCURVE",
"280 559 OFFCURVE",
"220 559 CURVE SMOOTH",
"168 559 OFFCURVE",
"142 539 OFFCURVE",
"142 499 CURVE SMOOTH",
"142 490 OFFCURVE",
"143 479 OFFCURVE",
"146 468 CURVE",
"74 457 LINE",
"69 476 OFFCURVE",
"67 493 OFFCURVE",
"67 508 CURVE SMOOTH",
"67 593 OFFCURVE",
"130 627 OFFCURVE",
"222 627 CURVE SMOOTH",
"332 627 OFFCURVE",
"388 554 OFFCURVE",
"388 440 CURVE SMOOTH",
"388 398 LINE",
"300 398 LINE SMOOTH",
"180 398 OFFCURVE",
"112 364 OFFCURVE",
"112 253 CURVE SMOOTH",
"112 194 OFFCURVE",
"138 147 OFFCURVE",
"188 113 CURVE SMOOTH",
"238 79 OFFCURVE",
"311 62 OFFCURVE",
"407 62 CURVE SMOOTH",
"567 62 OFFCURVE",
"707 113 OFFCURVE",
"707 258 CURVE SMOOTH",
"707 280 OFFCURVE",
"705 298 OFFCURVE",
"701 312 CURVE",
"672 265 OFFCURVE",
"626 241 OFFCURVE",
"564 241 CURVE SMOOTH",
"468 241 OFFCURVE",
"420 318 OFFCURVE",
"420 430 CURVE SMOOTH",
"420 515 OFFCURVE",
"450 592 OFFCURVE",
"511 663 CURVE SMOOTH",
"573 734 OFFCURVE",
"657 789 OFFCURVE",
"762 829 CURVE",
"792 765 LINE",
"687 726 OFFCURVE",
"605 675 OFFCURVE",
"548 612 CURVE",
"566 622 OFFCURVE",
"584 627 OFFCURVE",
"603 627 CURVE SMOOTH",
"697 627 OFFCURVE",
"740 557 OFFCURVE",
"740 460 CURVE SMOOTH",
"740 435 OFFCURVE",
"738 413 OFFCURVE",
"734 394 CURVE",
"766 360 OFFCURVE",
"782 314 OFFCURVE",
"782 257 CURVE SMOOTH",
"782 59 OFFCURVE",
"619 -11 OFFCURVE",
"404 -11 CURVE SMOOTH",
"280 -11 OFFCURVE",
"188 12 OFFCURVE",
"128 60 CURVE SMOOTH",
"68 108 OFFCURVE",
"37 174 OFFCURVE",
"37 257 CURVE SMOOTH",
"37 396 OFFCURVE",
"124 466 OFFCURVE",
"299 466 CURVE SMOOTH",
"315 466 LINE"
);
},
{
closed = 1;
nodes = (
"577 466 OFFCURVE",
"627 457 OFFCURVE",
"668 440 CURVE",
"668 444 OFFCURVE",
"668 447 OFFCURVE",
"669 448 CURVE SMOOTH",
"669 457 LINE SMOOTH",
"669 528 OFFCURVE",
"641 564 OFFCURVE",
"585 564 CURVE SMOOTH",
"527 564 OFFCURVE",
"496 520 OFFCURVE",
"489 466 CURVE",
"518 466 LINE SMOOTH"
);
},
{
closed = 1;
nodes = (
"493 344 OFFCURVE",
"511 309 OFFCURVE",
"572 309 CURVE SMOOTH",
"614 309 OFFCURVE",
"642 329 OFFCURVE",
"656 368 CURVE",
"626 388 OFFCURVE",
"577 398 OFFCURVE",
"509 398 CURVE SMOOTH",
"489 398 LINE"
);
}
);
width = 819;
}
);
unicode = 0DA1;
},
{
glyphname = "da-sinhala";
lastChange = "2018-02-20 19:37:35 +0000";
layers = (
{
layerId = "FDB844D3-6113-4F20-A391-626B83580871";
paths = (
{
closed = 1;
nodes = (
"360 -165 OFFCURVE",
"412 -197 OFFCURVE",
"465 -197 CURVE SMOOTH",
"508 -197 OFFCURVE",
"544 -182 OFFCURVE",
"572 -151 CURVE",
"636 -211 LINE",
"599 -250 OFFCURVE",
"537 -284 OFFCURVE",
"468 -284 CURVE SMOOTH",
"357 -284 OFFCURVE",
"273 -212 OFFCURVE",
"273 -110 CURVE SMOOTH",
"273 -83 OFFCURVE",
"280 -57 OFFCURVE",
"293 -32 CURVE",
"281 -33 OFFCURVE",
"281 -33 OFFCURVE",
"269 -34 CURVE SMOOTH",
"261 -35 OFFCURVE",
"252 -35 OFFCURVE",
"243 -35 CURVE SMOOTH",
"177 -35 OFFCURVE",
"122 -15 OFFCURVE",
"80 25 CURVE SMOOTH",
"38 65 OFFCURVE",
"18 114 OFFCURVE",
"18 172 CURVE SMOOTH",
"18 205 OFFCURVE",
"25 235 OFFCURVE",
"39 263 CURVE SMOOTH",
"81 348 OFFCURVE",
"167 391 OFFCURVE",
"296 391 CURVE",
"398 390 LINE",
"398 471 OFFCURVE",
"334 537 OFFCURVE",
"254 537 CURVE SMOOTH",
"211 537 OFFCURVE",
"176 522 OFFCURVE",
"149 492 CURVE",
"86 551 LINE",
"124 592 OFFCURVE",
"182 624 OFFCURVE",
"256 624 CURVE SMOOTH",
"330 624 OFFCURVE",
"387 592 OFFCURVE",
"424 550 CURVE SMOOTH",
"469 499 OFFCURVE",
"491 434 OFFCURVE",
"491 356 CURVE SMOOTH",
"491 337 OFFCURVE",
"489 319 OFFCURVE",
"485 303 CURVE",
"448 303 LINE",
"365 304 LINE SMOOTH",
"300 304 OFFCURVE",
"260 303 OFFCURVE",
"247 302 CURVE SMOOTH",
"166 294 OFFCURVE",
"105 250 OFFCURVE",
"105 168 CURVE SMOOTH",
"105 93 OFFCURVE",
"168 52 OFFCURVE",
"244 52 CURVE SMOOTH",
"258 52 OFFCURVE",
"277 53 OFFCURVE",
"303 56 CURVE SMOOTH",
"352 62 OFFCURVE",
"387 65 OFFCURVE",
"409 65 CURVE SMOOTH",
"461 65 OFFCURVE",
"513 45 OFFCURVE",
"544 19 CURVE",
"564 -2 LINE",
"489 -50 LINE",
"474 -38 OFFCURVE",
"456 -32 OFFCURVE",
"436 -32 CURVE SMOOTH",
"394 -32 OFFCURVE",
"360 -71 OFFCURVE",
"360 -114 CURVE SMOOTH"
);
}
);
width = 590;
}
);
unicode = 0DAF;
},
{
glyphname = "dda-sinhala";
lastChange = "2018-02-20 19:37:35 +0000";
layers = (
{
layerId = "FDB844D3-6113-4F20-A391-626B83580871";
paths = (
{
closed = 1;
nodes = (
"356 560 OFFCURVE",
"472 576 OFFCURVE",
"544 504 CURVE SMOOTH",
"566 482 OFFCURVE",
"579 453 OFFCURVE",
"582 419 CURVE SMOOTH",
"587 355 OFFCURVE",
"545 294 OFFCURVE",
"478 279 CURVE SMOOTH",
"462 274 OFFCURVE",
"439 271 OFFCURVE",
"408 271 CURVE SMOOTH",
"255 271 LINE",
"243 252 OFFCURVE",
"237 234 OFFCURVE",
"237 218 CURVE SMOOTH",
"237 187 OFFCURVE",
"242 164 OFFCURVE",
"251 150 CURVE SMOOTH",
"283 100 OFFCURVE",
"326 80 OFFCURVE",
"379 89 CURVE SMOOTH",
"418 95 OFFCURVE",
"447 116 OFFCURVE",
"467 153 CURVE",
"558 157 LINE",
"579 115 OFFCURVE",
"636 74 OFFCURVE",
"704 92 CURVE SMOOTH",
"771 110 OFFCURVE",
"802 189 OFFCURVE",
"818 272 CURVE SMOOTH",
"830 348 OFFCURVE",
"826 422 OFFCURVE",
"805 492 CURVE SMOOTH",
"784 566 OFFCURVE",
"758 614 OFFCURVE",
"710 655 CURVE SMOOTH",
"673 686 OFFCURVE",
"645 707 OFFCURVE",
"598 722 CURVE SMOOTH",
"562 733 OFFCURVE",
"524 739 OFFCURVE",
"484 739 CURVE SMOOTH",
"402 739 OFFCURVE",
"355 719 OFFCURVE",
"302 689 CURVE SMOOTH",
"249 659 OFFCURVE",
"208 624 OFFCURVE",
"178 584 CURVE",
"94 643 LINE",
"131 695 OFFCURVE",
"183 740 OFFCURVE",
"251 780 CURVE SMOOTH",
"324 822 OFFCURVE",
"394 844 OFFCURVE",
"462 844 CURVE SMOOTH",
"562 844 OFFCURVE",
"642 825 OFFCURVE",
"704 788 CURVE SMOOTH",
"793 734 OFFCURVE",
"853 665 OFFCURVE",
"886 578 CURVE SMOOTH",
"945 423 OFFCURVE",
"943 221 OFFCURVE",
"867 100 CURVE SMOOTH",
"831 43 OFFCURVE",
"784 6 OFFCURVE",
"725 -9 CURVE SMOOTH",
"641 -33 OFFCURVE",
"564 3 OFFCURVE",
"515 46 CURVE",
"469 3 OFFCURVE",
"417 -18 OFFCURVE",
"359 -18 CURVE SMOOTH",
"303 -18 OFFCURVE",
"253 1 OFFCURVE",
"210 38 CURVE SMOOTH",
"157 84 OFFCURVE",
"112 167 OFFCURVE",
"142 271 CURVE",
"30 272 LINE",
"31 375 LINE",
"405 375 LINE SMOOTH",
"458 375 OFFCURVE",
"482 387 OFFCURVE",
"478 412 CURVE SMOOTH",
"478 420 OFFCURVE",
"475 427 OFFCURVE",
"468 432 CURVE SMOOTH",
"460 442 OFFCURVE",
"447 447 OFFCURVE",
"426 447 CURVE SMOOTH",
"405 447 OFFCURVE",
"388 438 OFFCURVE",
"374 421 CURVE",
"294 488 LINE"
);
}
);
width = 965;
}
);
unicode = 0DA9;
},
{
color = 3;
glyphname = "e-sinhala";
lastChange = "2018-12-17 06:01:13 +0000";
layers = (
{
layerId = "FDB844D3-6113-4F20-A391-626B83580871";
paths = (
{
closed = 1;
nodes = (
"969 492 OFFCURVE",
"991 470 OFFCURVE",
"1016 470 CURVE SMOOTH",
"1030 470 OFFCURVE",
"1040 474 OFFCURVE",
"1049 483 CURVE",
"1051 491 OFFCURVE",
"1052 511 OFFCURVE",
"1052 543 CURVE SMOOTH",
"1052 603 LINE",
"1039 590 OFFCURVE",
"1022 579 OFFCURVE",
"1008 567 CURVE SMOOTH",
"988 547 OFFCURVE",
"976 530 OFFCURVE",
"974 518 CURVE SMOOTH"
);
},
{
closed = 1;
nodes = (
"379 207 OFFCURVE",
"333 303 OFFCURVE",
"264 302 CURVE SMOOTH",
"224 301 OFFCURVE",
"202 292 OFFCURVE",
"182 274 CURVE SMOOTH",
"156 250 OFFCURVE",
"147 229 OFFCURVE",
"147 192 CURVE SMOOTH",
"147 183 OFFCURVE",
"149 175 OFFCURVE",
"152 167 CURVE SMOOTH",
"166 120 OFFCURVE",
"218 83 OFFCURVE",
"284 104 CURVE SMOOTH",
"305 111 OFFCURVE",
"322 124 OFFCURVE",
"335 143 CURVE SMOOTH"
);
},
{
closed = 1;
nodes = (
"1151 421 OFFCURVE",
"1141 330 OFFCURVE",
"1102 245 CURVE SMOOTH",
"1056 145 OFFCURVE",
"967 67 OFFCURVE",
"860 24 CURVE SMOOTH",
"803 1 OFFCURVE",
"743 -10 OFFCURVE",
"678 -10 CURVE SMOOTH",
"654 -10 OFFCURVE",
"630 -10 OFFCURVE",
"606 -6 CURVE SMOOTH",
"562 2 LINE",
"563 322 LINE",
"525 317 OFFCURVE",
"441 322 OFFCURVE",
"411 328 CURVE",
"466 253 OFFCURVE",
"479 166 OFFCURVE",
"422 85 CURVE SMOOTH",
"379 24 OFFCURVE",
"321 -7 OFFCURVE",
"248 -7 CURVE SMOOTH",
"197 -7 OFFCURVE",
"151 10 OFFCURVE",
"111 44 CURVE SMOOTH",
"38 110 OFFCURVE",
"19 214 OFFCURVE",
"76 310 CURVE SMOOTH",
"129 399 OFFCURVE",
"228 437 OFFCURVE",
"380 430 CURVE SMOOTH",
"498 425 OFFCURVE",
"567 424 OFFCURVE",
"587 429 CURVE SMOOTH",
"653 446 OFFCURVE",
"712 496 OFFCURVE",
"709 573 CURVE",
"809 589 LINE",
"812 552 OFFCURVE",
"806 517 OFFCURVE",
"792 482 CURVE SMOOTH",
"768 422 OFFCURVE",
"724 377 OFFCURVE",
"659 348 CURVE",
"659 87 LINE",
"716 84 OFFCURVE",
"769 92 OFFCURVE",
"818 112 CURVE SMOOTH",
"946 164 OFFCURVE",
"1021 252 OFFCURVE",
"1042 375 CURVE",
"1037 374 OFFCURVE",
"1031 373 OFFCURVE",
"1026 373 CURVE SMOOTH",
"1011 373 LINE SMOOTH",
"972 373 OFFCURVE",
"938 389 OFFCURVE",
"909 421 CURVE SMOOTH",
"845 495 OFFCURVE",
"881 579 OFFCURVE",
"942 638 CURVE SMOOTH",
"953 649 OFFCURVE",
"963 656 OFFCURVE",
"975 666 CURVE SMOOTH",
"1018 702 OFFCURVE",
"1030 715 OFFCURVE",
"1042 760 CURVE SMOOTH",
"1048 785 OFFCURVE",
"1051 804 OFFCURVE",
"1051 816 CURVE",
"1149 816 LINE",
"1151 536 LINE SMOOTH"
);
}
);
width = 1198;
}
);
unicode = 0D91;
},
{
color = 3;
glyphname = "fa-sinhala";
lastChange = "2018-12-17 06:01:13 +0000";
layers = (
{
layerId = "FDB844D3-6113-4F20-A391-626B83580871";
paths = (
{
closed = 1;
nodes = (
"128 440 OFFCURVE",
"142 420 OFFCURVE",
"166 420 CURVE SMOOTH",
"176 420 OFFCURVE",
"185 425 OFFCURVE",
"192 434 CURVE",
"263 384 LINE",
"238 349 OFFCURVE",
"206 332 OFFCURVE",
"166 332 CURVE SMOOTH",
"97 332 OFFCURVE",
"40 392 OFFCURVE",
"40 462 CURVE SMOOTH",
"40 546 OFFCURVE",
"113 612 OFFCURVE",
"204 612 CURVE SMOOTH",
"310 612 OFFCURVE",
"365 538 OFFCURVE",
"365 429 CURVE SMOOTH",
"364 89 LINE",
"468 89 LINE",
"468 463 LINE",
"407 463 LINE",
"407 553 LINE",
"468 553 LINE",
"468 649 OFFCURVE",
"500 721 OFFCURVE",
"564 769 CURVE SMOOTH",
"615 808 OFFCURVE",
"673 827 OFFCURVE",
"739 827 CURVE",
"739 737 LINE",
"718 737 OFFCURVE",
"690 731 OFFCURVE",
"654 718 CURVE SMOOTH",
"586 693 OFFCURVE",
"558 642 OFFCURVE",
"558 553 CURVE",
"630 553 LINE",
"630 463 LINE",
"558 463 LINE",
"558 89 LINE",
"659 89 LINE SMOOTH",
"685 89 OFFCURVE",
"707 110 OFFCURVE",
"707 131 CURVE SMOOTH",
"707 489 LINE",
"713 570 OFFCURVE",
"762 633 OFFCURVE",
"844 634 CURVE SMOOTH",
"893 634 OFFCURVE",
"932 609 OFFCURVE",
"955 579 CURVE",
"883 527 LINE",
"873 540 OFFCURVE",
"860 547 OFFCURVE",
"845 547 CURVE SMOOTH",
"815 547 OFFCURVE",
"795 526 OFFCURVE",
"795 484 CURVE SMOOTH",
"795 131 LINE SMOOTH",
"795 65 OFFCURVE",
"734 2 OFFCURVE",
"659 2 CURVE SMOOTH",
"558 2 LINE",
"558 -123 LINE",
"468 -123 LINE",
"468 2 LINE",
"276 2 LINE",
"277 429 LINE SMOOTH",
"277 480 OFFCURVE",
"255 525 OFFCURVE",
"206 525 CURVE SMOOTH",
"167 525 OFFCURVE",
"128 501 OFFCURVE",
"128 466 CURVE SMOOTH"
);
}
);
width = 995;
}
);
unicode = 0DC6;
},
{
glyphname = "ga-sinhala";
lastChange = "2018-11-12 09:05:31 +0000";
layers = (
{
layerId = "FDB844D3-6113-4F20-A391-626B83580871";
paths = (
{
closed = 1;
nodes = (
"903 413 OFFCURVE",
"854 533 OFFCURVE",
"731 533 CURVE SMOOTH",
"632 533 OFFCURVE",
"604 467 OFFCURVE",
"583 319 CURVE SMOOTH",
"559 148 OFFCURVE",
"504 -4 OFFCURVE",
"319 -4 CURVE SMOOTH",
"172 -4 OFFCURVE",
"49 99 OFFCURVE",
"49 293 CURVE SMOOTH",
"49 474 OFFCURVE",
"157 590 OFFCURVE",
"282 652 CURVE",
"341 584 LINE",
"246 531 OFFCURVE",
"139 445 OFFCURVE",
"139 294 CURVE SMOOTH",
"139 194 OFFCURVE",
"200 99 OFFCURVE",
"319 99 CURVE SMOOTH",
"418 99 OFFCURVE",
"476 198 OFFCURVE",
"484 331 CURVE SMOOTH",
"493 495 OFFCURVE",
"573 635 OFFCURVE",
"731 635 CURVE SMOOTH",
"923 635 OFFCURVE",
"995 450 OFFCURVE",
"995 328 CURVE SMOOTH",
"995 182 OFFCURVE",
"928 -3 OFFCURVE",
"719 -3 CURVE",
"704 82 LINE",
"841 102 OFFCURVE",
"903 172 OFFCURVE",
"903 326 CURVE SMOOTH"
);
}
);
width = 1071;
}
);
unicode = 0D9C;
},
{
glyphname = "ha-sinhala";
lastChange = "2018-12-17 07:14:25 +0000";
layers = (
{
layerId = "FDB844D3-6113-4F20-A391-626B83580871";
paths = (
{
closed = 1;
nodes = (
"320 579 OFFCURVE",
"301 605 OFFCURVE",
"239 605 CURVE SMOOTH",
"172 605 OFFCURVE",
"139 579 OFFCURVE",
"139 527 CURVE SMOOTH",
"139 521 OFFCURVE",
"141 508 OFFCURVE",
"144 488 CURVE",
"52 474 LINE",
"46 494 OFFCURVE",
"43 516 OFFCURVE",
"43 540 CURVE SMOOTH",
"43 594 OFFCURVE",
"66 638 OFFCURVE",
"95 666 CURVE SMOOTH",
"131 702 OFFCURVE",
"179 719 OFFCURVE",
"237 719 CURVE SMOOTH",
"367 719 OFFCURVE",
"436 638 OFFCURVE",
"442 511 CURVE SMOOTH",
"445 443 LINE",
"350 439 OFFCURVE",
"285 432 OFFCURVE",
"251 419 CURVE SMOOTH",
"194 398 OFFCURVE",
"147 366 OFFCURVE",
"147 296 CURVE SMOOTH",
"147 190 OFFCURVE",
"212 109 OFFCURVE",
"308 109 CURVE SMOOTH",
"352 109 OFFCURVE",
"386 118 OFFCURVE",
"409 138 CURVE SMOOTH",
"454 177 OFFCURVE",
"477 240 OFFCURVE",
"492 310 CURVE SMOOTH",
"506 379 OFFCURVE",
"524 434 OFFCURVE",
"551 489 CURVE SMOOTH",
"564 515 OFFCURVE",
"580 538 OFFCURVE",
"599 559 CURVE SMOOTH",
"643 606 OFFCURVE",
"700 629 OFFCURVE",
"771 629 CURVE SMOOTH",
"842 629 OFFCURVE",
"899 605 OFFCURVE",
"942 558 CURVE SMOOTH",
"985 511 OFFCURVE",
"1006 438 OFFCURVE",
"1006 340 CURVE SMOOTH",
"1006 204 OFFCURVE",
"975 109 OFFCURVE",
"913 54 CURVE SMOOTH",
"893 36 OFFCURVE",
"870 19 OFFCURVE",
"845 2 CURVE",
"771 87 LINE",
"808 111 OFFCURVE",
"841 135 OFFCURVE",
"865 172 CURVE SMOOTH",
"889 209 OFFCURVE",
"901 263 OFFCURVE",
"901 333 CURVE SMOOTH",
"901 432 OFFCURVE",
"856 509 OFFCURVE",
"769 509 CURVE SMOOTH",
"725 509 OFFCURVE",
"702 480 OFFCURVE",
"682 452 CURVE SMOOTH",
"659 420 OFFCURVE",
"642 387 OFFCURVE",
"630 352 CURVE SMOOTH",
"593 241 OFFCURVE",
"573 121 OFFCURVE",
"494 52 CURVE SMOOTH",
"455 17 OFFCURVE",
"400 -2 OFFCURVE",
"331 -4 CURVE SMOOTH",
"148 -9 OFFCURVE",
"42 106 OFFCURVE",
"42 288 CURVE SMOOTH",
"42 372 OFFCURVE",
"86 431 OFFCURVE",
"138 467 CURVE SMOOTH",
"195 507 OFFCURVE",
"261 525 OFFCURVE",
"333 521 CURVE"
);
},
{
closed = 1;
nodes = (
"1084 514 OFFCURVE",
"1128 488 OFFCURVE",
"1164 438 CURVE SMOOTH",
"1200 388 OFFCURVE",
"1219 327 OFFCURVE",
"1219 256 CURVE SMOOTH",
"1219 155 OFFCURVE",
"1193 68 OFFCURVE",
"1140 -4 CURVE SMOOTH",
"1087 -76 OFFCURVE",
"1023 -113 OFFCURVE",
"948 -113 CURVE SMOOTH",
"235 -113 LINE SMOOTH",
"197 -113 OFFCURVE",
"162 -145 OFFCURVE",
"162 -181 CURVE SMOOTH",
"162 -198 OFFCURVE",
"170 -220 OFFCURVE",
"186 -248 CURVE",
"137 -285 LINE",
"112 -256 OFFCURVE",
"100 -224 OFFCURVE",
"100 -189 CURVE SMOOTH",
"100 -118 OFFCURVE",
"163 -64 OFFCURVE",
"235 -64 CURVE SMOOTH",
"948 -64 LINE SMOOTH",
"1005 -64 OFFCURVE",
"1055 -32 OFFCURVE",
"1096 30 CURVE SMOOTH",
"1137 92 OFFCURVE",
"1157 167 OFFCURVE",
"1157 256 CURVE SMOOTH",
"1157 313 OFFCURVE",
"1145 363 OFFCURVE",
"1121 404 CURVE SMOOTH",
"1097 445 OFFCURVE",
"1070 465 OFFCURVE",
"1039 465 CURVE",
"1032 514 LINE"
);
}
);
width = 1052;
}
);
unicode = 0DC4;
},
{
color = 3;
glyphname = "i-sinhala";
lastChange = "2018-12-17 06:50:08 +0000";
layers = (
{
layerId = "FDB844D3-6113-4F20-A391-626B83580871";
paths = (
{
closed = 1;
nodes = (
"541 180 OFFCURVE",
"407 56 OFFCURVE",
"266 56 CURVE SMOOTH",
"140 56 OFFCURVE",
"41 135 OFFCURVE",
"41 255 CURVE SMOOTH",
"41 369 OFFCURVE",
"131 451 OFFCURVE",
"317 451 CURVE SMOOTH",
"476 451 LINE SMOOTH",
"628 451 OFFCURVE",
"728 373 OFFCURVE",
"728 253 CURVE SMOOTH",
"728 143 OFFCURVE",
"644 55 OFFCURVE",
"506 55 CURVE SMOOTH",
"311 55 OFFCURVE",
"212 229 OFFCURVE",
"212 371 CURVE SMOOTH",
"212 603 OFFCURVE",
"380 732 OFFCURVE",
"581 732 CURVE SMOOTH",
"813 732 OFFCURVE",
"965 564 OFFCURVE",
"965 352 CURVE SMOOTH",
"965 152 OFFCURVE",
"858 -6 OFFCURVE",
"706 -77 CURVE",
"724 -97 OFFCURVE",
"736 -137 OFFCURVE",
"736 -175 CURVE SMOOTH",
"736 -270 OFFCURVE",
"668 -331 OFFCURVE",
"577 -331 CURVE SMOOTH",
"515 -331 OFFCURVE",
"467 -300 OFFCURVE",
"427 -241 CURVE",
"507 -190 LINE",
"525 -220 OFFCURVE",
"543 -236 OFFCURVE",
"581 -236 CURVE SMOOTH",
"610 -236 OFFCURVE",
"642 -202 OFFCURVE",
"642 -172 CURVE SMOOTH",
"642 -142 OFFCURVE",
"628 -122 OFFCURVE",
"600 -110 CURVE",
"560 -115 OFFCURVE",
"538 -117 OFFCURVE",
"532 -117 CURVE SMOOTH",
"524 -117 LINE",
"514 -26 LINE",
"713 -20 OFFCURVE",
"870 125 OFFCURVE",
"870 345 CURVE SMOOTH",
"870 479 OFFCURVE",
"781 638 OFFCURVE",
"578 638 CURVE SMOOTH",
"458 638 OFFCURVE",
"300 581 OFFCURVE",
"300 380 CURVE SMOOTH",
"300 261 OFFCURVE",
"377 149 OFFCURVE",
"510 149 CURVE SMOOTH",
"598 149 OFFCURVE",
"635 199 OFFCURVE",
"635 251 CURVE SMOOTH",
"635 311 OFFCURVE",
"586 361 OFFCURVE",
"473 361 CURVE SMOOTH",
"288 361 LINE SMOOTH",
"169 361 OFFCURVE",
"122 314 OFFCURVE",
"122 257 CURVE SMOOTH",
"122 191 OFFCURVE",
"184 147 OFFCURVE",
"258 147 CURVE SMOOTH",
"376 147 OFFCURVE",
"454 236 OFFCURVE",
"454 338 CURVE SMOOTH",
"454 416 OFFCURVE",
"402 489 OFFCURVE",
"384 511 CURVE",
"464 558 LINE",
"502 511 OFFCURVE",
"541 424 OFFCURVE",
"541 336 CURVE"
);
}
);
width = 996;
}
);
unicode = 0D89;
},
{
color = 3;
glyphname = "ii-sinhala";
lastChange = "2018-12-17 06:03:46 +0000";
layers = (
{
components = (
{
name = "ra-sinhala";
}
);
layerId = "FDB844D3-6113-4F20-A391-626B83580871";
paths = (
{
closed = 1;
nodes = (
"409 429 OFFCURVE",
"384 454 OFFCURVE",
"384 484 CURVE SMOOTH",
"384 514 OFFCURVE",
"409 540 OFFCURVE",
"439 540 CURVE SMOOTH",
"469 540 OFFCURVE",
"495 514 OFFCURVE",
"495 484 CURVE SMOOTH",
"495 454 OFFCURVE",
"469 429 OFFCURVE",
"439 429 CURVE SMOOTH"
);
},
{
closed = 1;
nodes = (
"844 429 OFFCURVE",
"819 454 OFFCURVE",
"819 484 CURVE SMOOTH",
"819 514 OFFCURVE",
"844 540 OFFCURVE",
"874 540 CURVE SMOOTH",
"904 540 OFFCURVE",
"930 514 OFFCURVE",
"930 484 CURVE SMOOTH",
"930 454 OFFCURVE",
"904 429 OFFCURVE",
"874 429 CURVE SMOOTH"
);
}
);
width = 1043;
}
);
unicode = 0D8A;
},
{
color = 3;
glyphname = "ja-sinhala";
lastChange = "2018-12-17 06:40:51 +0000";
layers = (
{
layerId = "FDB844D3-6113-4F20-A391-626B83580871";
paths = (
{
closed = 1;
nodes = (
"578 103 OFFCURVE",
"615 72 OFFCURVE",
"651 72 CURVE SMOOTH",
"683 72 OFFCURVE",
"706 88 OFFCURVE",
"706 106 CURVE SMOOTH",
"706 127 OFFCURVE",
"692 146 OFFCURVE",
"661 146 CURVE SMOOTH",
"630 146 OFFCURVE",
"590 126 OFFCURVE",
"561 109 CURVE SMOOTH",
"441 36 LINE SMOOTH",
"378 -2 OFFCURVE",
"307 -24 OFFCURVE",
"256 -24 CURVE SMOOTH",
"133 -24 OFFCURVE",
"49 46 OFFCURVE",
"49 155 CURVE SMOOTH",
"49 309 OFFCURVE",
"182 365 OFFCURVE",
"301 365 CURVE SMOOTH",
"432 365 LINE SMOOTH",
"533 365 OFFCURVE",
"647 386 OFFCURVE",
"690 461 CURVE",
"703 436 LINE",
"583 403 OFFCURVE",
"515 480 OFFCURVE",
"515 551 CURVE SMOOTH",
"515 689 OFFCURVE",
"627 780 OFFCURVE",
"775 805 CURVE SMOOTH",
"819 813 OFFCURVE",
"856 816 OFFCURVE",
"886 814 CURVE",
"884 716 LINE",
"749 722 OFFCURVE",
"596 658 OFFCURVE",
"596 560 CURVE SMOOTH",
"596 535 OFFCURVE",
"620 508 OFFCURVE",
"646 508 CURVE SMOOTH",
"672 508 OFFCURVE",
"688 519 OFFCURVE",
"688 544 CURVE SMOOTH",
"688 569 OFFCURVE",
"672 606 OFFCURVE",
"586 606 CURVE SMOOTH",
"557 606 OFFCURVE",
"460 584 OFFCURVE",
"460 488 CURVE",
"460 473 LINE",
"355 475 LINE",
"355 489 LINE",
"355 556 OFFCURVE",
"302 611 OFFCURVE",
"233 611 CURVE SMOOTH",
"179 611 OFFCURVE",
"153 585 OFFCURVE",
"153 556 CURVE SMOOTH",
"153 532 OFFCURVE",
"176 516 OFFCURVE",
"199 516 CURVE SMOOTH",
"210 516 OFFCURVE",
"221 521 OFFCURVE",
"231 532 CURVE",
"304 469 LINE",
"276 437 OFFCURVE",
"235 419 OFFCURVE",
"195 419 CURVE SMOOTH",
"121 419 OFFCURVE",
"62 480 OFFCURVE",
"62 555 CURVE SMOOTH",
"62 647 OFFCURVE",
"135 706 OFFCURVE",
"229 706 CURVE SMOOTH",
"294 706 OFFCURVE",
"355 670 OFFCURVE",
"408 604 CURVE",
"458 672 OFFCURVE",
"518 700 OFFCURVE",
"596 700 CURVE SMOOTH",
"741 700 OFFCURVE",
"791 587 OFFCURVE",
"791 516 CURVE SMOOTH",
"791 333 OFFCURVE",
"633 276 OFFCURVE",
"416 271 CURVE",
"306 271 LINE",
"194 271 OFFCURVE",
"147 229 OFFCURVE",
"147 166 CURVE SMOOTH",
"147 118 OFFCURVE",
"190 76 OFFCURVE",
"256 76 CURVE SMOOTH",
"305 76 OFFCURVE",
"359 96 OFFCURVE",
"406 126 CURVE SMOOTH",
"496 184 LINE SMOOTH",
"532 207 OFFCURVE",
"595 244 OFFCURVE",
"663 244 CURVE SMOOTH",
"753 244 OFFCURVE",
"804 185 OFFCURVE",
"804 106 CURVE SMOOTH",
"804 32 OFFCURVE",
"736 -26 OFFCURVE",
"655 -26 CURVE SMOOTH",
"574 -26 OFFCURVE",
"504 26 OFFCURVE",
"483 88 CURVE",
"563 147 LINE"
);
}
);
width = 869;
}
);
unicode = 0DA2;
},
{
glyphname = "jha-sinhala";
lastChange = "2018-02-20 19:37:35 +0000";
layers = (
{
layerId = "FDB844D3-6113-4F20-A391-626B83580871";
paths = (
{
closed = 1;
nodes = (
"1001 856 LINE",
"1488 856 OFFCURVE",
"1617 657 OFFCURVE",
"1617 356 CURVE SMOOTH",
"1617 111 OFFCURVE",
"1536 -11 OFFCURVE",
"1373 -11 CURVE SMOOTH",
"1293 -11 OFFCURVE",
"1249 25 OFFCURVE",
"1212 79 CURVE",
"1166 13 OFFCURVE",
"1123 -11 OFFCURVE",
"1043 -11 CURVE SMOOTH",
"969 -11 OFFCURVE",
"839 34 OFFCURVE",
"839 229 CURVE SMOOTH",
"839 408 OFFCURVE",
"944 510 OFFCURVE",
"1017 510 CURVE SMOOTH",
"1072 510 OFFCURVE",
"1075 502 OFFCURVE",
"1143 502 CURVE",
"1117 427 LINE",
"1000 421 OFFCURVE",
"919 389 OFFCURVE",
"919 230 CURVE SMOOTH",
"919 131 OFFCURVE",
"957 92 OFFCURVE",
"1050 92 CURVE SMOOTH",
"1135 92 OFFCURVE",
"1178 132 OFFCURVE",
"1178 232 CURVE SMOOTH",
"1178 239 LINE",
"1246 239 LINE",
"1246 232 LINE SMOOTH",
"1246 132 OFFCURVE",
"1288 82 OFFCURVE",
"1371 82 CURVE SMOOTH",
"1483 82 OFFCURVE",
"1530 169 OFFCURVE",
"1530 363 CURVE SMOOTH",
"1530 650 OFFCURVE",
"1332 764 OFFCURVE",
"988 764 CURVE"
);
},
{
closed = 1;
nodes = (
"605 79 OFFCURVE",
"629 108 OFFCURVE",
"629 157 CURVE SMOOTH",
"629 339 LINE",
"617 339 OFFCURVE",
"617 339 OFFCURVE",
"605 339 CURVE SMOOTH",
"491 338 LINE SMOOTH",
"344 337 OFFCURVE",
"193 320 OFFCURVE",
"193 208 CURVE SMOOTH",
"193 129 OFFCURVE",
"263 80 OFFCURVE",
"342 80 CURVE SMOOTH",
"375 80 OFFCURVE",
"411 98 OFFCURVE",
"411 129 CURVE",
"501 129 LINE SMOOTH",
"514 129 OFFCURVE",
"507 79 OFFCURVE",
"561 79 CURVE SMOOTH"
);
},
{
closed = 1;
nodes = (
"392 563 OFFCURVE",
"412 545 OFFCURVE",
"436 545 CURVE SMOOTH",
"458 545 OFFCURVE",
"473 555 OFFCURVE",
"480 576 CURVE",
"562 538 LINE",
"542 481 OFFCURVE",
"509 455 OFFCURVE",
"432 455 CURVE SMOOTH",
"359 455 OFFCURVE",
"300 515 OFFCURVE",
"300 587 CURVE SMOOTH",
"300 685 OFFCURVE",
"380 731 OFFCURVE",
"483 731 CURVE SMOOTH",
"814 731 LINE",
"788 672 LINE",
"767 612 OFFCURVE",
"723 528 OFFCURVE",
"723 458 CURVE SMOOTH",
"723 433 LINE",
"936 433 LINE",
"863 338 LINE",
"724 338 LINE",
"721 157 LINE",
"721 60 OFFCURVE",
"659 -13 OFFCURVE",
"562 -13 CURVE SMOOTH",
"519 -13 OFFCURVE",
"483 1 OFFCURVE",
"456 28 CURVE",
"425 1 OFFCURVE",
"390 -13 OFFCURVE",
"351 -13 CURVE SMOOTH",
"214 -13 OFFCURVE",
"101 76 OFFCURVE",
"101 202 CURVE SMOOTH",
"101 373 OFFCURVE",
"270 433 OFFCURVE",
"490 433 CURVE SMOOTH",
"629 433 LINE",
"629 500 OFFCURVE",
"644 570 OFFCURVE",
"675 642 CURVE",
"652 641 OFFCURVE",
"628 641 OFFCURVE",
"605 641 CURVE SMOOTH",
"500 641 LINE SMOOTH",
"440 641 OFFCURVE",
"392 633 OFFCURVE",
"392 587 CURVE SMOOTH"
);
}
);
width = 1747;
}
);
unicode = 0DA3;
},
{
glyphname = "jnya-sinhala";
lastChange = "2018-02-20 19:37:35 +0000";
layers = (
{
layerId = "FDB844D3-6113-4F20-A391-626B83580871";
paths = (
{
closed = 1;
nodes = (
"594 62 OFFCURVE",
"673 116 OFFCURVE",
"673 225 CURVE SMOOTH",
"673 274 OFFCURVE",
"657 298 OFFCURVE",
"624 298 CURVE SMOOTH",
"605 298 OFFCURVE",
"587 292 OFFCURVE",
"572 280 CURVE",
"499 303 LINE",
"530 494 OFFCURVE",
"635 627 OFFCURVE",
"842 627 CURVE SMOOTH",
"873 627 OFFCURVE",
"904 625 OFFCURVE",
"933 621 CURVE",
"949 625 OFFCURVE",
"968 627 OFFCURVE",
"991 627 CURVE SMOOTH",
"1108 627 OFFCURVE",
"1168 559 OFFCURVE",
"1168 440 CURVE SMOOTH",
"1168 398 LINE",
"1010 398 LINE SMOOTH",
"952 398 OFFCURVE",
"908 396 OFFCURVE",
"878 390 CURVE SMOOTH",
"798 375 OFFCURVE",
"745 327 OFFCURVE",
"745 237 CURVE SMOOTH",
"745 114 OFFCURVE",
"843 62 OFFCURVE",
"973 62 CURVE SMOOTH",
"1046 62 OFFCURVE",
"1111 77 OFFCURVE",
"1169 106 CURVE",
"1191 37 LINE",
"1162 22 OFFCURVE",
"1129 10 OFFCURVE",
"1093 1 CURVE",
"1049 -35 OFFCURVE",
"1027 -76 OFFCURVE",
"1027 -122 CURVE SMOOTH",
"1027 -179 OFFCURVE",
"1060 -208 OFFCURVE",
"1125 -208 CURVE SMOOTH",
"1152 -208 OFFCURVE",
"1176 -203 OFFCURVE",
"1197 -192 CURVE",
"1214 -258 LINE",
"1183 -271 OFFCURVE",
"1146 -278 OFFCURVE",
"1101 -278 CURVE SMOOTH",
"1012 -278 OFFCURVE",
"951 -219 OFFCURVE",
"951 -130 CURVE SMOOTH",
"951 -85 OFFCURVE",
"965 -46 OFFCURVE",
"994 -11 CURVE",
"970 -11 LINE SMOOTH",
"841 -11 OFFCURVE",
"754 29 OFFCURVE",
"710 108 CURVE",
"670 29 OFFCURVE",
"594 -11 OFFCURVE",
"482 -11 CURVE SMOOTH",
"303 -11 OFFCURVE",
"200 100 OFFCURVE",
"200 280 CURVE SMOOTH",
"200 437 OFFCURVE",
"301 536 OFFCURVE",
"444 555 CURVE",
"424 559 OFFCURVE",
"396 561 OFFCURVE",
"359 561 CURVE SMOOTH",
"209 561 OFFCURVE",
"113 460 OFFCURVE",
"113 310 CURVE SMOOTH",
"113 234 OFFCURVE",
"131 171 OFFCURVE",
"166 119 CURVE",
"99 85 LINE",
"58 158 OFFCURVE",
"38 234 OFFCURVE",
"38 315 CURVE SMOOTH",
"38 508 OFFCURVE",
"166 627 OFFCURVE",
"359 627 CURVE SMOOTH",
"423 627 OFFCURVE",
"482 611 OFFCURVE",
"536 580 CURVE",
"509 508 LINE",
"370 503 OFFCURVE",
"277 419 OFFCURVE",
"277 276 CURVE SMOOTH",
"277 140 OFFCURVE",
"346 62 OFFCURVE",
"478 62 CURVE SMOOTH"
);
},
{
closed = 1;
nodes = (
"951 559 OFFCURVE",
"915 544 OFFCURVE",
"915 503 CURVE SMOOTH",
"915 498 OFFCURVE",
"916 493 OFFCURVE",
"917 488 CURVE",
"843 479 LINE",
"842 490 OFFCURVE",
"841 503 OFFCURVE",
"841 518 CURVE SMOOTH",
"841 533 OFFCURVE",
"845 547 OFFCURVE",
"853 561 CURVE",
"845 561 LINE SMOOTH",
"698 561 OFFCURVE",
"615 477 OFFCURVE",
"580 357 CURVE",
"594 363 OFFCURVE",
"613 366 OFFCURVE",
"636 366 CURVE SMOOTH",
"659 366 OFFCURVE",
"679 357 OFFCURVE",
"698 338 CURVE",
"722 395 OFFCURVE",
"780 433 OFFCURVE",
"848 451 CURVE SMOOTH",
"886 461 OFFCURVE",
"939 466 OFFCURVE",
"1008 466 CURVE SMOOTH",
"1095 466 LINE",
"1091 523 OFFCURVE",
"1058 559 OFFCURVE",
"998 559 CURVE SMOOTH"
);
}
);
width = 1198;
}
);
unicode = 0DA5;
},
{
color = 3;
glyphname = "ka-sinhala";
lastChange = "2018-12-17 06:13:35 +0000";
layers = (
{
layerId = "FDB844D3-6113-4F20-A391-626B83580871";
paths = (
{
closed = 1;
nodes = (
"553 435 OFFCURVE",
"569 570 OFFCURVE",
"600 642 CURVE",
"577 641 OFFCURVE",
"553 641 OFFCURVE",
"530 641 CURVE SMOOTH",
"455 641 LINE SMOOTH",
"395 641 OFFCURVE",
"342 634 OFFCURVE",
"342 578 CURVE SMOOTH",
"342 564 OFFCURVE",
"353 540 OFFCURVE",
"387 540 CURVE SMOOTH",
"419 540 OFFCURVE",
"428 551 OFFCURVE",
"446 567 CURVE",
"482 506 LINE",
"460 478 OFFCURVE",
"425 450 OFFCURVE",
"375 450 CURVE SMOOTH",
"335 450 OFFCURVE",
"255 475 OFFCURVE",
"255 567 CURVE SMOOTH",
"255 685 OFFCURVE",
"345 731 OFFCURVE",
"458 731 CURVE SMOOTH",
"729 731 LINE",
"703 672 LINE",
"682 622 OFFCURVE",
"646 527 OFFCURVE",
"646 458 CURVE SMOOTH",
"646 157 LINE",
"646 60 OFFCURVE",
"584 -13 OFFCURVE",
"487 -13 CURVE SMOOTH",
"383 -13 OFFCURVE",
"366 91 OFFCURVE",
"362 127 CURVE",
"398 127 LINE",
"387 85 OFFCURVE",
"354 -13 OFFCURVE",
"236 -13 CURVE SMOOTH",
"119 -13 OFFCURVE",
"26 76 OFFCURVE",
"26 202 CURVE SMOOTH",
"26 353 OFFCURVE",
"135 433 OFFCURVE",
"285 433 CURVE SMOOTH",
"759 433 LINE SMOOTH",
"922 433 OFFCURVE",
"1047 351 OFFCURVE",
"1047 197 CURVE",
"1047 79 OFFCURVE",
"951 -13 OFFCURVE",
"837 -13 CURVE SMOOTH",
"765 -13 OFFCURVE",
"708 24 OFFCURVE",
"674 67 CURVE",
"747 124 LINE",
"771 95 OFFCURVE",
"801 80 OFFCURVE",
"838 80 CURVE SMOOTH",
"899 80 OFFCURVE",
"940 134 OFFCURVE",
"940 195 CURVE SMOOTH",
"940 318 OFFCURVE",
"837 338 OFFCURVE",
"686 338 CURVE SMOOTH",
"606 338 LINE",
"594 338 OFFCURVE",
"542 338 OFFCURVE",
"530 338 CURVE SMOOTH",
"286 338 LINE SMOOTH",
"209 338 OFFCURVE",
"118 320 OFFCURVE",
"118 208 CURVE SMOOTH",
"118 129 OFFCURVE",
"165 80 OFFCURVE",
"234 80 CURVE SMOOTH",
"302 80 OFFCURVE",
"336 143 OFFCURVE",
"336 174 CURVE",
"426 174 LINE",
"426 140 OFFCURVE",
"441 79 OFFCURVE",
"486 79 CURVE SMOOTH",
"530 79 OFFCURVE",
"553 108 OFFCURVE",
"553 157 CURVE SMOOTH",
"553 368 LINE SMOOTH"
);
}
);
width = 1072;
}
);
unicode = 0D9A;
},
{
glyphname = "lVocalic-sinhala";
lastChange = "2018-02-20 19:37:35 +0000";
layers = (
{
layerId = "FDB844D3-6113-4F20-A391-626B83580871";
paths = (
{
closed = 1;
nodes = (
"348 558 OFFCURVE",
"325 528 OFFCURVE",
"325 487 CURVE",
"326 477 LINE",
"230 461 LINE",
"228 469 OFFCURVE",
"227 478 OFFCURVE",
"227 489 CURVE",
"164 446 OFFCURVE",
"132 368 OFFCURVE",
"132 254 CURVE SMOOTH",
"132 196 OFFCURVE",
"141 139 OFFCURVE",
"160 85 CURVE",
"68 71 LINE",
"47 126 OFFCURVE",
"36 180 OFFCURVE",
"36 236 CURVE SMOOTH",
"36 357 OFFCURVE",
"72 455 OFFCURVE",
"128 526 CURVE SMOOTH",
"185 599 OFFCURVE",
"274 656 OFFCURVE",
"401 656 CURVE SMOOTH",
"522 656 OFFCURVE",
"585 564 OFFCURVE",
"585 439 CURVE SMOOTH",
"585 392 LINE",
"485 392 LINE",
"408 385 OFFCURVE",
"368 360 OFFCURVE",
"342 310 CURVE SMOOTH",
"331 289 OFFCURVE",
"326 263 OFFCURVE",
"326 232 CURVE SMOOTH",
"326 173 OFFCURVE",
"345 137 OFFCURVE",
"376 112 CURVE SMOOTH",
"403 90 OFFCURVE",
"434 80 OFFCURVE",
"468 80 CURVE SMOOTH",
"775 80 LINE SMOOTH",
"857 80 OFFCURVE",
"916 145 OFFCURVE",
"916 225 CURVE SMOOTH",
"916 328 OFFCURVE",
"859 389 OFFCURVE",
"757 389 CURVE SMOOTH",
"657 389 LINE",
"657 439 LINE SMOOTH",
"657 563 OFFCURVE",
"720 656 OFFCURVE",
"839 656 CURVE SMOOTH",
"962 656 OFFCURVE",
"1052 609 OFFCURVE",
"1110 541 CURVE SMOOTH",
"1174 467 OFFCURVE",
"1205 372 OFFCURVE",
"1205 256 CURVE SMOOTH",
"1205 197 OFFCURVE",
"1197 144 OFFCURVE",
"1181 94 CURVE SMOOTH",
"1178 84 OFFCURVE",
"1175 76 OFFCURVE",
"1174 71 CURVE",
"1082 85 LINE",
"1101 139 OFFCURVE",
"1110 196 OFFCURVE",
"1110 256 CURVE SMOOTH",
"1110 368 OFFCURVE",
"1078 445 OFFCURVE",
"1015 489 CURVE",
"1015 478 OFFCURVE",
"1014 469 OFFCURVE",
"1012 461 CURVE",
"916 477 LINE",
"916 487 LINE SMOOTH",
"916 528 OFFCURVE",
"893 558 OFFCURVE",
"849 558 CURVE SMOOTH",
"795 558 OFFCURVE",
"768 532 OFFCURVE",
"766 477 CURVE",
"924 477 OFFCURVE",
"1017 389 OFFCURVE",
"1017 225 CURVE SMOOTH",
"1017 143 OFFCURVE",
"991 88 OFFCURVE",
"949 48 CURVE SMOOTH",
"906 7 OFFCURVE",
"848 -13 OFFCURVE",
"776 -13 CURVE SMOOTH",
"468 -13 LINE SMOOTH",
"323 -13 OFFCURVE",
"225 77 OFFCURVE",
"225 221 CURVE SMOOTH",
"225 385 OFFCURVE",
"312 477 OFFCURVE",
"476 477 CURVE",
"474 532 OFFCURVE",
"446 558 OFFCURVE",
"392 558 CURVE SMOOTH"
);
}
);
width = 1246;
}
);
unicode = 0D8F;
},
{
color = 3;
glyphname = "la-sinhala";
lastChange = "2018-12-17 06:01:13 +0000";
layers = (
{
layerId = "FDB844D3-6113-4F20-A391-626B83580871";
paths = (
{
closed = 1;
nodes = (
"590 137 OFFCURVE",
"612 167 OFFCURVE",
"612 201 CURVE SMOOTH",
"612 237 OFFCURVE",
"592 259 OFFCURVE",
"569 274 CURVE SMOOTH",
"543 291 OFFCURVE",
"514 299 OFFCURVE",
"483 299 CURVE",
"475 266 OFFCURVE",
"478 232 OFFCURVE",
"491 196 CURVE SMOOTH",
"505 157 OFFCURVE",
"527 137 OFFCURVE",
"556 137 CURVE SMOOTH"
);
},
{
closed = 1;
nodes = (
"1220 413 OFFCURVE",
"1163 509 OFFCURVE",
"1105 567 CURVE",
"1177 641 LINE",
"1241 577 OFFCURVE",
"1285 500 OFFCURVE",
"1309 410 CURVE SMOOTH",
"1318 377 OFFCURVE",
"1322 341 OFFCURVE",
"1322 304 CURVE SMOOTH",
"1322 156 OFFCURVE",
"1222 36 OFFCURVE",
"1087 36 CURVE SMOOTH",
"1010 36 OFFCURVE",
"953 68 OFFCURVE",
"915 132 CURVE SMOOTH",
"889 176 OFFCURVE",
"874 232 OFFCURVE",
"867 297 CURVE SMOOTH",
"858 373 OFFCURVE",
"841 427 OFFCURVE",
"818 459 CURVE SMOOTH",
"790 499 OFFCURVE",
"747 519 OFFCURVE",
"690 519 CURVE SMOOTH",
"604 519 OFFCURVE",
"541 463 OFFCURVE",
"509 401 CURVE",
"568 398 OFFCURVE",
"617 376 OFFCURVE",
"657 336 CURVE SMOOTH",
"696 297 OFFCURVE",
"715 252 OFFCURVE",
"715 202 CURVE SMOOTH",
"715 113 OFFCURVE",
"644 34 OFFCURVE",
"556 34 CURVE SMOOTH",
"437 34 OFFCURVE",
"379 156 OFFCURVE",
"379 287 CURVE",
"267 255 OFFCURVE",
"171 147 OFFCURVE",
"171 7 CURVE SMOOTH",
"171 -73 OFFCURVE",
"200 -141 OFFCURVE",
"258 -196 CURVE SMOOTH",
"316 -251 OFFCURVE",
"388 -279 OFFCURVE",
"474 -279 CURVE SMOOTH",
"476 -279 LINE",
"594 -276 OFFCURVE",
"692 -218 OFFCURVE",
"750 -147 CURVE",
"829 -212 LINE",
"762 -293 OFFCURVE",
"678 -346 OFFCURVE",
"576 -370 CURVE SMOOTH",
"543 -378 OFFCURVE",
"510 -381 OFFCURVE",
"476 -381 CURVE SMOOTH",
"474 -381 LINE SMOOTH",
"349 -381 OFFCURVE",
"250 -331 OFFCURVE",
"184 -266 CURVE SMOOTH",
"121 -205 OFFCURVE",
"66 -109 OFFCURVE",
"66 6 CURVE SMOOTH",
"66 116 OFFCURVE",
"106 198 OFFCURVE",
"159 261 CURVE SMOOTH",
"222 335 OFFCURVE",
"301 380 OFFCURVE",
"397 396 CURVE",
"418 463 OFFCURVE",
"456 517 OFFCURVE",
"510 558 CURVE SMOOTH",
"564 599 OFFCURVE",
"620 620 OFFCURVE",
"681 620 CURVE SMOOTH",
"742 620 OFFCURVE",
"789 610 OFFCURVE",
"824 589 CURVE SMOOTH",
"916 535 OFFCURVE",
"956 445 OFFCURVE",
"968 307 CURVE SMOOTH",
"974 257 OFFCURVE",
"984 222 OFFCURVE",
"995 201 CURVE SMOOTH",
"1015 166 OFFCURVE",
"1036 141 OFFCURVE",
"1084 139 CURVE SMOOTH",
"1130 138 OFFCURVE",
"1161 160 OFFCURVE",
"1182 187 CURVE SMOOTH",
"1207 219 OFFCURVE",
"1220 259 OFFCURVE",
"1220 306 CURVE SMOOTH"
);
}
);
width = 1383;
}
);
unicode = 0DBD;
},
{
color = 3;
glyphname = "ma-sinhala";
lastChange = "2018-12-17 07:07:29 +0000";
layers = (
{
layerId = "FDB844D3-6113-4F20-A391-626B83580871";
paths = (
{
closed = 1;
nodes = (
"549 -61 OFFCURVE",
"387 90 OFFCURVE",
"387 292 CURVE SMOOTH",
"387 417 OFFCURVE",
"459 505 OFFCURVE",
"567 505 CURVE SMOOTH",
"659 505 OFFCURVE",
"719 446 OFFCURVE",
"719 316 CURVE SMOOTH",
"719 233 OFFCURVE",
"674 103 OFFCURVE",
"509 103 CURVE SMOOTH",
"397 103 LINE",
"53 103 LINE",
"53 535 LINE",
"155 535 LINE",
"155 209 LINE",
"384 206 LINE",
"496 205 LINE",
"547 205 OFFCURVE",
"617 223 OFFCURVE",
"617 309 CURVE SMOOTH",
"617 401 OFFCURVE",
"592 418 OFFCURVE",
"566 418 CURVE SMOOTH",
"516 418 OFFCURVE",
"484 376 OFFCURVE",
"484 292 CURVE SMOOTH",
"484 127 OFFCURVE",
"590 48 OFFCURVE",
"759 48 CURVE SMOOTH",
"908 48 OFFCURVE",
"1043 176 OFFCURVE",
"1043 366 CURVE SMOOTH",
"1043 549 OFFCURVE",
"924 680 OFFCURVE",
"731 680 CURVE SMOOTH",
"673 680 OFFCURVE",
"570 651 OFFCURVE",
"529 620 CURVE",
"487 701 LINE",
"539 741 OFFCURVE",
"642 777 OFFCURVE",
"743 777 CURVE SMOOTH",
"986 777 OFFCURVE",
"1145 606 OFFCURVE",
"1145 375 CURVE SMOOTH",
"1145 156 OFFCURVE",
"998 -61 OFFCURVE",
"748 -61 CURVE SMOOTH"
);
}
);
width = 1218;
}
);
unicode = 0DB8;
},
{
glyphname = "mba-sinhala";
lastChange = "2018-02-20 19:37:35 +0000";
layers = (
{
layerId = "FDB844D3-6113-4F20-A391-626B83580871";
paths = (
{
closed = 1;
nodes = (
"787 627 OFFCURVE",
"674 784 OFFCURVE",
"434 784 CURVE SMOOTH",
"371 784 OFFCURVE",
"320 779 OFFCURVE",
"282 770 CURVE SMOOTH",
"220 755 OFFCURVE",
"159 732 OFFCURVE",
"99 698 CURVE",
"67 766 LINE",
"178 826 OFFCURVE",
"299 856 OFFCURVE",
"432 856 CURVE SMOOTH",
"521 856 OFFCURVE",
"599 837 OFFCURVE",
"664 800 CURVE SMOOTH",
"797 725 OFFCURVE",
"863 583 OFFCURVE",
"863 374 CURVE SMOOTH",
"863 222 OFFCURVE",
"820 96 OFFCURVE",
"732 34 CURVE SMOOTH",
"689 4 OFFCURVE",
"641 -11 OFFCURVE",
"588 -11 CURVE SMOOTH",
"535 -11 OFFCURVE",
"497 -7 OFFCURVE",
"473 1 CURVE",
"466 68 LINE",
"495 76 OFFCURVE",
"510 92 OFFCURVE",
"510 117 CURVE SMOOTH",
"510 152 OFFCURVE",
"483 170 OFFCURVE",
"430 170 CURVE SMOOTH",
"377 170 OFFCURVE",
"351 152 OFFCURVE",
"351 117 CURVE SMOOTH",
"351 92 OFFCURVE",
"366 76 OFFCURVE",
"396 68 CURVE",
"389 1 LINE",
"363 -7 OFFCURVE",
"336 -11 OFFCURVE",
"307 -11 CURVE SMOOTH",
"132 -11 OFFCURVE",
"41 124 OFFCURVE",
"41 306 CURVE SMOOTH",
"40 391 OFFCURVE",
"58 460 OFFCURVE",
"96 513 CURVE SMOOTH",
"133 565 OFFCURVE",
"179 590 OFFCURVE",
"233 589 CURVE SMOOTH",
"287 589 OFFCURVE",
"322 560 OFFCURVE",
"322 509 CURVE SMOOTH",
"322 490 OFFCURVE",
"311 416 OFFCURVE",
"311 394 CURVE SMOOTH",
"311 332 OFFCURVE",
"349 301 OFFCURVE",
"424 301 CURVE SMOOTH",
"499 301 OFFCURVE",
"543 329 OFFCURVE",
"556 386 CURVE",
"531 371 OFFCURVE",
"500 363 OFFCURVE",
"464 363 CURVE SMOOTH",
"394 363 OFFCURVE",
"348 405 OFFCURVE",
"348 474 CURVE SMOOTH",
"348 547 OFFCURVE",
"404 589 OFFCURVE",
"483 589 CURVE SMOOTH",
"579 589 OFFCURVE",
"630 522 OFFCURVE",
"630 420 CURVE SMOOTH",
"630 304 OFFCURVE",
"546 234 OFFCURVE",
"427 234 CURVE SMOOTH",
"315 234 OFFCURVE",
"239 283 OFFCURVE",
"239 391 CURVE SMOOTH",
"239 405 OFFCURVE",
"249 475 OFFCURVE",
"249 486 CURVE SMOOTH",
"249 510 OFFCURVE",
"239 522 OFFCURVE",
"219 522 CURVE SMOOTH",
"193 523 OFFCURVE",
"169 504 OFFCURVE",
"148 464 CURVE SMOOTH",
"125 421 OFFCURVE",
"115 369 OFFCURVE",
"116 310 CURVE SMOOTH",
"116 171 OFFCURVE",
"172 58 OFFCURVE",
"303 58 CURVE SMOOTH",
"308 58 LINE SMOOTH",
"309 57 OFFCURVE",
"309 57 OFFCURVE",
"310 57 CURVE SMOOTH",
"311 57 OFFCURVE",
"312 57 OFFCURVE",
"313 58 CURVE",
"290 77 OFFCURVE",
"279 101 OFFCURVE",
"279 132 CURVE SMOOTH",
"279 205 OFFCURVE",
"344 231 OFFCURVE",
"425 231 CURVE SMOOTH",
"438 231 LINE SMOOTH",
"516 231 OFFCURVE",
"583 204 OFFCURVE",
"583 133 CURVE SMOOTH",
"583 102 OFFCURVE",
"571 77 OFFCURVE",
"548 58 CURVE",
"577 58 LINE SMOOTH",
"733 58 OFFCURVE",
"787 206 OFFCURVE",
"787 377 CURVE SMOOTH"
);
},
{
closed = 1;
nodes = (
"552 492 OFFCURVE",
"529 524 OFFCURVE",
"481 524 CURVE SMOOTH",
"440 524 OFFCURVE",
"420 508 OFFCURVE",
"420 475 CURVE SMOOTH",
"420 439 OFFCURVE",
"446 426 OFFCURVE",
"487 426 CURVE SMOOTH",
"511 426 OFFCURVE",
"535 433 OFFCURVE",
"558 447 CURVE"
);
}
);
width = 905;
}
);
unicode = 0DB9;
},
{
glyphname = "na-sinhala";
lastChange = "2018-02-20 19:37:35 +0000";
layers = (
{
layerId = "FDB844D3-6113-4F20-A391-626B83580871";
paths = (
{
closed = 1;
nodes = (
"293 438 OFFCURVE",
"232 493 OFFCURVE",
"232 555 CURVE SMOOTH",
"232 616 OFFCURVE",
"258 648 OFFCURVE",
"297 670 CURVE SMOOTH",
"332 689 OFFCURVE",
"377 699 OFFCURVE",
"433 699 CURVE SMOOTH",
"708 699 LINE",
"691 658 OFFCURVE",
"670 615 OFFCURVE",
"655 566 CURVE SMOOTH",
"634 500 OFFCURVE",
"624 431 OFFCURVE",
"624 361 CURVE",
"665 386 OFFCURVE",
"703 398 OFFCURVE",
"741 398 CURVE SMOOTH",
"819 398 OFFCURVE",
"872 371 OFFCURVE",
"910 330 CURVE SMOOTH",
"951 286 OFFCURVE",
"972 233 OFFCURVE",
"972 168 CURVE SMOOTH",
"972 109 OFFCURVE",
"953 54 OFFCURVE",
"916 2 CURVE SMOOTH",
"863 -71 OFFCURVE",
"784 -122 OFFCURVE",
"678 -150 CURVE SMOOTH",
"610 -168 OFFCURVE",
"473 -190 OFFCURVE",
"404 -208 CURVE SMOOTH",
"314 -232 OFFCURVE",
"215 -289 OFFCURVE",
"148 -345 CURVE",
"87 -274 LINE",
"200 -179 OFFCURVE",
"332 -118 OFFCURVE",
"482 -92 CURVE SMOOTH",
"559 -79 OFFCURVE",
"612 -68 OFFCURVE",
"642 -61 CURVE SMOOTH",
"728 -39 OFFCURVE",
"793 -2 OFFCURVE",
"836 52 CURVE SMOOTH",
"864 87 OFFCURVE",
"878 125 OFFCURVE",
"878 168 CURVE SMOOTH",
"878 242 OFFCURVE",
"822 304 OFFCURVE",
"748 304 CURVE SMOOTH",
"675 304 OFFCURVE",
"624 251 OFFCURVE",
"624 179 CURVE",
"623 179 LINE",
"623 2 LINE",
"530 2 LINE",
"530 316 LINE",
"146 316 LINE",
"139 301 OFFCURVE",
"135 285 OFFCURVE",
"135 267 CURVE SMOOTH",
"135 226 OFFCURVE",
"164 198 OFFCURVE",
"188 177 CURVE SMOOTH",
"213 155 OFFCURVE",
"249 128 OFFCURVE",
"266 100 CURVE SMOOTH",
"286 66 OFFCURVE",
"296 34 OFFCURVE",
"296 3 CURVE",
"202 3 LINE",
"202 31 OFFCURVE",
"183 61 OFFCURVE",
"145 92 CURVE SMOOTH",
"76 145 OFFCURVE",
"41 205 OFFCURVE",
"41 270 CURVE SMOOTH",
"41 317 OFFCURVE",
"60 364 OFFCURVE",
"98 410 CURVE",
"530 411 LINE",
"530 479 OFFCURVE",
"542 544 OFFCURVE",
"567 606 CURVE",
"419 606 LINE SMOOTH",
"383 606 OFFCURVE",
"356 599 OFFCURVE",
"338 584 CURVE SMOOTH",
"331 578 OFFCURVE",
"327 571 OFFCURVE",
"327 562 CURVE SMOOTH",
"327 545 OFFCURVE",
"339 532 OFFCURVE",
"356 532 CURVE SMOOTH",
"376 532 OFFCURVE",
"386 550 OFFCURVE",
"386 573 CURVE",
"481 573 LINE",
"481 500 OFFCURVE",
"429 438 OFFCURVE",
"356 438 CURVE SMOOTH"
);
}
);
width = 1040;
}
);
unicode = 0DB1;
},
{
glyphname = "nga-sinhala";
lastChange = "2018-02-20 19:37:35 +0000";
layers = (
{
layerId = "FDB844D3-6113-4F20-A391-626B83580871";
paths = (
{
closed = 1;
nodes = (
"381 62 OFFCURVE",
"421 111 OFFCURVE",
"421 212 CURVE SMOOTH",
"421 219 LINE",
"490 219 LINE",
"490 212 LINE SMOOTH",
"490 112 OFFCURVE",
"533 62 OFFCURVE",
"619 62 CURVE SMOOTH",
"735 62 OFFCURVE",
"793 159 OFFCURVE",
"793 353 CURVE SMOOTH",
"793 640 OFFCURVE",
"672 784 OFFCURVE",
"430 784 CURVE SMOOTH",
"314 784 OFFCURVE",
"211 757 OFFCURVE",
"120 702 CURVE",
"86 769 LINE",
"190 827 OFFCURVE",
"307 856 OFFCURVE",
"435 856 CURVE SMOOTH",
"734 856 OFFCURVE",
"870 665 OFFCURVE",
"870 356 CURVE SMOOTH",
"870 111 OFFCURVE",
"787 -11 OFFCURVE",
"620 -11 CURVE SMOOTH",
"538 -11 OFFCURVE",
"493 25 OFFCURVE",
"454 79 CURVE",
"415 20 OFFCURVE",
"369 -11 OFFCURVE",
"281 -11 CURVE SMOOTH",
"218 -11 OFFCURVE",
"168 6 OFFCURVE",
"131 41 CURVE SMOOTH",
"94 78 OFFCURVE",
"76 125 OFFCURVE",
"76 183 CURVE SMOOTH",
"76 241 OFFCURVE",
"94 287 OFFCURVE",
"128 321 CURVE SMOOTH",
"162 355 OFFCURVE",
"218 383 OFFCURVE",
"297 406 CURVE",
"332 417 LINE SMOOTH",
"380 431 OFFCURVE",
"430 439 OFFCURVE",
"430 489 CURVE SMOOTH",
"430 514 OFFCURVE",
"415 531 OFFCURVE",
"386 542 CURVE SMOOTH",
"357 553 OFFCURVE",
"313 559 OFFCURVE",
"254 559 CURVE SMOOTH",
"251 559 LINE",
"266 536 OFFCURVE",
"273 510 OFFCURVE",
"273 478 CURVE SMOOTH",
"273 410 OFFCURVE",
"214 371 OFFCURVE",
"144 371 CURVE SMOOTH",
"73 371 OFFCURVE",
"26 413 OFFCURVE",
"26 482 CURVE SMOOTH",
"26 527 OFFCURVE",
"46 562 OFFCURVE",
"86 588 CURVE SMOOTH",
"126 614 OFFCURVE",
"185 627 OFFCURVE",
"262 627 CURVE SMOOTH",
"423 627 OFFCURVE",
"504 581 OFFCURVE",
"504 489 CURVE SMOOTH",
"504 450 OFFCURVE",
"489 421 OFFCURVE",
"460 400 CURVE SMOOTH",
"438 384 OFFCURVE",
"393 366 OFFCURVE",
"326 347 CURVE SMOOTH",
"263 331 OFFCURVE",
"219 310 OFFCURVE",
"192 285 CURVE SMOOTH",
"165 260 OFFCURVE",
"151 227 OFFCURVE",
"151 187 CURVE SMOOTH",
"151 104 OFFCURVE",
"195 62 OFFCURVE",
"284 62 CURVE SMOOTH"
);
},
{
closed = 1;
nodes = (
"139 548 OFFCURVE",
"98 530 OFFCURVE",
"98 488 CURVE SMOOTH",
"98 454 OFFCURVE",
"115 437 OFFCURVE",
"150 437 CURVE SMOOTH",
"185 437 OFFCURVE",
"203 454 OFFCURVE",
"203 489 CURVE SMOOTH",
"203 516 OFFCURVE",
"196 538 OFFCURVE",
"183 554 CURVE"
);
}
);
width = 912;
}
);
unicode = 0D9E;
},
{
glyphname = "nya-sinhala";
lastChange = "2018-02-20 19:37:35 +0000";
layers = (
{
components = (
{
alignment = -1;
name = "da-sinhala";
transform = "{1, 0, 0, 1, 828, -181}";
}
);
layerId = "FDB844D3-6113-4F20-A391-626B83580871";
paths = (
{
closed = 1;
nodes = (
"630 661 LINE",
"517 660 LINE",
"339 660 OFFCURVE",
"122 604 OFFCURVE",
"122 440 CURVE SMOOTH",
"122 352 OFFCURVE",
"144 298 OFFCURVE",
"198 223 CURVE",
"132 184 LINE",
"75 266 OFFCURVE",
"47 350 OFFCURVE",
"47 436 CURVE SMOOTH",
"47 604 OFFCURVE",
"193 734 OFFCURVE",
"469 734 CURVE",
"619 729 LINE"
);
},
{
closed = 1;
nodes = (
"705 79 OFFCURVE",
"729 108 OFFCURVE",
"729 157 CURVE SMOOTH",
"729 339 LINE",
"717 339 OFFCURVE",
"717 339 OFFCURVE",
"705 339 CURVE SMOOTH",
"591 338 LINE SMOOTH",
"444 337 OFFCURVE",
"293 320 OFFCURVE",
"293 208 CURVE SMOOTH",
"293 129 OFFCURVE",
"363 80 OFFCURVE",
"442 80 CURVE SMOOTH",
"475 80 OFFCURVE",
"511 98 OFFCURVE",
"511 129 CURVE",
"601 129 LINE SMOOTH",
"614 129 OFFCURVE",
"607 79 OFFCURVE",
"661 79 CURVE SMOOTH"
);
},
{
closed = 1;
nodes = (
"492 563 OFFCURVE",
"512 545 OFFCURVE",
"536 545 CURVE SMOOTH",
"558 545 OFFCURVE",
"573 555 OFFCURVE",
"580 576 CURVE",
"662 538 LINE",
"642 481 OFFCURVE",
"609 455 OFFCURVE",
"532 455 CURVE SMOOTH",
"459 455 OFFCURVE",
"400 515 OFFCURVE",
"400 587 CURVE SMOOTH",
"400 685 OFFCURVE",
"480 731 OFFCURVE",
"583 731 CURVE SMOOTH",
"914 731 LINE",
"888 672 LINE",
"867 612 OFFCURVE",
"823 528 OFFCURVE",
"823 458 CURVE SMOOTH",
"823 433 LINE",
"1036 433 LINE",
"963 338 LINE",
"824 338 LINE",
"821 157 LINE",
"821 60 OFFCURVE",
"759 -13 OFFCURVE",
"662 -13 CURVE SMOOTH",
"619 -13 OFFCURVE",
"583 1 OFFCURVE",
"556 28 CURVE",
"525 1 OFFCURVE",
"490 -13 OFFCURVE",
"451 -13 CURVE SMOOTH",
"314 -13 OFFCURVE",
"201 76 OFFCURVE",
"201 202 CURVE SMOOTH",
"201 373 OFFCURVE",
"370 433 OFFCURVE",
"590 433 CURVE SMOOTH",
"729 433 LINE",
"729 500 OFFCURVE",
"744 570 OFFCURVE",
"775 642 CURVE",
"752 641 OFFCURVE",
"728 641 OFFCURVE",
"705 641 CURVE SMOOTH",
"600 641 LINE SMOOTH",
"540 641 OFFCURVE",
"492 633 OFFCURVE",
"492 587 CURVE SMOOTH"
);
}
);
width = 1329;
}
);
unicode = 0DA4;
},
{
glyphname = "nyja-sinhala";
lastChange = "2018-02-20 19:37:35 +0000";
layers = (
{
layerId = "FDB844D3-6113-4F20-A391-626B83580871";
paths = (
{
closed = 1;
nodes = (
"36 333 OFFCURVE",
"32 399 OFFCURVE",
"32 451 CURVE SMOOTH",
"32 540 OFFCURVE",
"45 592 OFFCURVE",
"82 634 CURVE SMOOTH",
"121 678 OFFCURVE",
"185 694 OFFCURVE",
"261 675 CURVE SMOOTH",
"281 669 OFFCURVE",
"260 633 OFFCURVE",
"260 623 CURVE",
"238 618 LINE SMOOTH",
"199 609 OFFCURVE",
"166 592 OFFCURVE",
"140 564 CURVE SMOOTH",
"125 548 OFFCURVE",
"118 528 OFFCURVE",
"118 503 CURVE SMOOTH",
"118 438 OFFCURVE",
"118 373 OFFCURVE",
"120 306 CURVE SMOOTH",
"121 286 LINE",
"45 253 LINE"
);
},
{
closed = 1;
nodes = (
"685 535 OFFCURVE",
"706 514 OFFCURVE",
"732 514 CURVE SMOOTH",
"758 514 OFFCURVE",
"777 535 OFFCURVE",
"777 560 CURVE SMOOTH",
"777 585 OFFCURVE",
"758 606 OFFCURVE",
"732 606 CURVE SMOOTH",
"706 606 OFFCURVE",
"685 585 OFFCURVE",
"685 560 CURVE SMOOTH"
);
},
{
closed = 1;
nodes = (
"765 155 OFFCURVE",
"717 152 OFFCURVE",
"668 127 CURVE",
"681 97 OFFCURVE",
"701 80 OFFCURVE",
"729 74 CURVE SMOOTH",
"749 69 OFFCURVE",
"766 72 OFFCURVE",
"780 84 CURVE SMOOTH",
"791 93 OFFCURVE",
"795 107 OFFCURVE",
"786 122 CURVE SMOOTH"
);
},
{
closed = 1;
nodes = (
"336 408 OFFCURVE",
"240 400 OFFCURVE",
"182 461 CURVE SMOOTH",
"138 503 OFFCURVE",
"129 568 OFFCURVE",
"160 624 CURVE SMOOTH",
"186 670 OFFCURVE",
"245 707 OFFCURVE",
"302 709 CURVE SMOOTH",
"371 712 OFFCURVE",
"429 689 OFFCURVE",
"476 642 CURVE SMOOTH",
"485 633 LINE SMOOTH",
"488 630 OFFCURVE",
"490 627 OFFCURVE",
"493 624 CURVE",
"543 692 OFFCURVE",
"603 710 OFFCURVE",
"671 710 CURVE",
"715 759 OFFCURVE",
"778 791 OFFCURVE",
"860 805 CURVE SMOOTH",
"904 813 OFFCURVE",
"941 816 OFFCURVE",
"971 814 CURVE",
"969 716 LINE",
"905 719 OFFCURVE",
"830 702 OFFCURVE",
"786 678 CURVE",
"855 643 OFFCURVE",
"899 543 OFFCURVE",
"864 447 CURVE SMOOTH",
"839 380 OFFCURVE",
"789 332 OFFCURVE",
"714 300 CURVE SMOOTH",
"666 280 OFFCURVE",
"600 269 OFFCURVE",
"516 269 CURVE SMOOTH",
"496 269 LINE SMOOTH",
"490 269 OFFCURVE",
"482 270 OFFCURVE",
"475 271 CURVE SMOOTH",
"405 273 OFFCURVE",
"355 269 OFFCURVE",
"326 260 CURVE SMOOTH",
"297 251 OFFCURVE",
"272 238 OFFCURVE",
"255 219 CURVE SMOOTH",
"237 199 OFFCURVE",
"231 178 OFFCURVE",
"232 159 CURVE SMOOTH",
"232 134 OFFCURVE",
"246 115 OFFCURVE",
"269 97 CURVE SMOOTH",
"311 66 OFFCURVE",
"369 66 OFFCURVE",
"449 102 CURVE SMOOTH",
"524 141 OFFCURVE",
"581 191 OFFCURVE",
"620 211 CURVE SMOOTH",
"678 243 OFFCURVE",
"731 253 OFFCURVE",
"782 238 CURVE SMOOTH",
"827 225 OFFCURVE",
"858 199 OFFCURVE",
"876 161 CURVE SMOOTH",
"897 117 OFFCURVE",
"894 74 OFFCURVE",
"866 33 CURVE SMOOTH",
"845 6 OFFCURVE",
"818 -12 OFFCURVE",
"784 -21 CURVE SMOOTH",
"772 -24 OFFCURVE",
"760 -26 OFFCURVE",
"750 -26 CURVE SMOOTH",
"698 -26 OFFCURVE",
"638 2 OFFCURVE",
"612 34 CURVE SMOOTH",
"598 52 OFFCURVE",
"589 64 OFFCURVE",
"585 72 CURVE",
"556 51 OFFCURVE",
"525 32 OFFCURVE",
"492 14 CURVE SMOOTH",
"446 -7 OFFCURVE",
"398 -20 OFFCURVE",
"349 -23 CURVE SMOOTH",
"284 -27 OFFCURVE",
"228 -6 OFFCURVE",
"182 42 CURVE SMOOTH",
"142 84 OFFCURVE",
"118 153 OFFCURVE",
"144 223 CURVE SMOOTH",
"152 246 OFFCURVE",
"166 266 OFFCURVE",
"183 284 CURVE SMOOTH",
"224 331 OFFCURVE",
"301 366 OFFCURVE",
"386 368 CURVE SMOOTH",
"417 369 OFFCURVE",
"447 369 OFFCURVE",
"477 368 CURVE SMOOTH",
"517 367 LINE",
"565 367 OFFCURVE",
"600 370 OFFCURVE",
"621 374 CURVE SMOOTH",
"671 384 OFFCURVE",
"718 405 OFFCURVE",
"747 439 CURVE",
"744 438 OFFCURVE",
"740 438 OFFCURVE",
"735 438 CURVE SMOOTH",
"725 438 LINE",
"676 442 OFFCURVE",
"619 488 OFFCURVE",
"613 541 CURVE SMOOTH",
"611 561 OFFCURVE",
"611 580 OFFCURVE",
"613 599 CURVE",
"576 580 OFFCURVE",
"545 540 OFFCURVE",
"541 488 CURVE",
"541 473 LINE",
"443 475 LINE",
"443 489 LINE",
"440 558 OFFCURVE",
"384 614 OFFCURVE",
"312 611 CURVE SMOOTH",
"292 610 OFFCURVE",
"275 604 OFFCURVE",
"260 595 CURVE",
"235 570 OFFCURVE",
"232 548 OFFCURVE",
"250 529 CURVE",
"275 511 OFFCURVE",
"297 512 OFFCURVE",
"316 532 CURVE",
"389 469 LINE"
);
}
);
width = 1006;
}
);
unicode = 0DA6;
},
{
color = 3;
glyphname = "o-sinhala";
lastChange = "2018-12-17 06:01:13 +0000";
layers = (
{
layerId = "FDB844D3-6113-4F20-A391-626B83580871";
paths = (
{
closed = 1;
nodes = (
"332 282 OFFCURVE",
"362 319 OFFCURVE",
"359 353 CURVE SMOOTH",
"356 384 OFFCURVE",
"335 406 OFFCURVE",
"295 417 CURVE SMOOTH",
"271 421 OFFCURVE",
"248 417 OFFCURVE",
"226 404 CURVE SMOOTH",
"180 378 OFFCURVE",
"152 337 OFFCURVE",
"142 281 CURVE SMOOTH",
"135 237 OFFCURVE",
"143 196 OFFCURVE",
"165 158 CURVE SMOOTH",
"194 107 OFFCURVE",
"257 69 OFFCURVE",
"329 100 CURVE SMOOTH",
"353 110 OFFCURVE",
"372 127 OFFCURVE",
"387 150 CURVE",
"473 151 LINE",
"487 128 OFFCURVE",
"508 110 OFFCURVE",
"538 95 CURVE SMOOTH",
"569 82 OFFCURVE",
"598 88 OFFCURVE",
"624 113 CURVE SMOOTH",
"637 125 OFFCURVE",
"649 135 OFFCURVE",
"658 148 CURVE",
"590 190 OFFCURVE",
"536 265 OFFCURVE",
"534 364 CURVE SMOOTH",
"533 416 OFFCURVE",
"546 466 OFFCURVE",
"576 514 CURVE SMOOTH",
"585 528 OFFCURVE",
"597 543 OFFCURVE",
"612 558 CURVE",
"680 485 LINE",
"671 476 OFFCURVE",
"667 468 OFFCURVE",
"667 460 CURVE SMOOTH",
"667 445 OFFCURVE",
"675 432 OFFCURVE",
"694 427 CURVE SMOOTH",
"740 414 OFFCURVE",
"774 459 OFFCURVE",
"777 502 CURVE SMOOTH",
"779 528 OFFCURVE",
"774 552 OFFCURVE",
"763 574 CURVE SMOOTH",
"722 655 OFFCURVE",
"649 701 OFFCURVE",
"552 723 CURVE SMOOTH",
"505 734 OFFCURVE",
"456 735 OFFCURVE",
"406 728 CURVE SMOOTH",
"288 711 OFFCURVE",
"193 640 OFFCURVE",
"146 541 CURVE",
"56 583 LINE",
"115 707 OFFCURVE",
"232 802 OFFCURVE",
"389 826 CURVE SMOOTH",
"531 848 OFFCURVE",
"654 808 OFFCURVE",
"739 750 CURVE SMOOTH",
"787 717 OFFCURVE",
"824 675 OFFCURVE",
"849 625 CURVE SMOOTH",
"867 587 OFFCURVE",
"876 543 OFFCURVE",
"876 493 CURVE SMOOTH",
"876 403 OFFCURVE",
"801 324 OFFCURVE",
"702 326 CURVE SMOOTH",
"668 327 OFFCURVE",
"653 336 OFFCURVE",
"635 346 CURVE",
"645 277 OFFCURVE",
"701 215 OFFCURVE",
"780 209 CURVE",
"778 110 LINE",
"763 108 OFFCURVE",
"743 93 OFFCURVE",
"718 66 CURVE SMOOTH",
"709 57 OFFCURVE",
"699 46 OFFCURVE",
"688 36 CURVE SMOOTH",
"656 5 OFFCURVE",
"615 -10 OFFCURVE",
"566 -10 CURVE SMOOTH",
"517 -10 OFFCURVE",
"472 9 OFFCURVE",
"430 47 CURVE",
"372 -3 OFFCURVE",
"307 -20 OFFCURVE",
"236 -6 CURVE SMOOTH",
"112 20 OFFCURVE",
"21 145 OFFCURVE",
"45 293 CURVE SMOOTH",
"59 381 OFFCURVE",
"107 451 OFFCURVE",
"175 490 CURVE SMOOTH",
"299 559 OFFCURVE",
"446 491 OFFCURVE",
"459 363 CURVE SMOOTH",
"462 336 OFFCURVE",
"457 311 OFFCURVE",
"446 287 CURVE SMOOTH",
"422 226 OFFCURVE",
"347 178 OFFCURVE",
"264 193 CURVE SMOOTH",
"213 202 OFFCURVE",
"176 235 OFFCURVE",
"160 284 CURVE",
"240 321 LINE",
"248 293 OFFCURVE",
"268 280 OFFCURVE",
"301 282 CURVE SMOOTH"
);
}
);
width = 907;
}
);
unicode = 0D94;
},
{
color = 3;
glyphname = "pa-sinhala";
lastChange = "2018-12-17 06:25:02 +0000";
layers = (
{
anchors = (
{
name = virama;
position = "{570, 713}";
}
);
layerId = "FDB844D3-6113-4F20-A391-626B83580871";
paths = (
{
closed = 1;
nodes = (
"316 649 OFFCURVE",
"386 562 OFFCURVE",
"386 440 CURVE SMOOTH",
"386 98 LINE",
"691 98 LINE SMOOTH",
"756 98 OFFCURVE",
"775 122 OFFCURVE",
"775 184 CURVE SMOOTH",
"775 498 LINE SMOOTH",
"775 590 OFFCURVE",
"846 652 OFFCURVE",
"923 652 CURVE SMOOTH",
"977 652 OFFCURVE",
"1031 624 OFFCURVE",
"1045 580 CURVE",
"974 531 LINE",
"962 546 OFFCURVE",
"948 553 OFFCURVE",
"932 553 CURVE SMOOTH",
"894 553 OFFCURVE",
"875 521 OFFCURVE",
"875 482 CURVE SMOOTH",
"875 174 LINE SMOOTH",
"875 47 OFFCURVE",
"806 -2 OFFCURVE",
"721 -2 CURVE SMOOTH",
"287 -2 LINE",
"287 440 LINE SMOOTH",
"287 506 OFFCURVE",
"260 549 OFFCURVE",
"199 549 CURVE SMOOTH",
"178 549 OFFCURVE",
"163 544 OFFCURVE",
"151 534 CURVE SMOOTH",
"130 517 OFFCURVE",
"119 500 OFFCURVE",
"119 483 CURVE SMOOTH",
"119 453 OFFCURVE",
"135 430 OFFCURVE",
"162 430 CURVE SMOOTH",
"174 430 OFFCURVE",
"183 435 OFFCURVE",
"191 446 CURVE",
"272 388 LINE",
"251 356 OFFCURVE",
"210 331 OFFCURVE",
"161 331 CURVE SMOOTH",
"76 331 OFFCURVE",
"20 401 OFFCURVE",
"20 478 CURVE SMOOTH",
"20 572 OFFCURVE",
"104 649 OFFCURVE",
"197 649 CURVE SMOOTH"
);
}
);
width = 1035;
}
);
unicode = 0DB4;
},
{
glyphname = "rVocalic-sinhala";
lastChange = "2018-02-20 19:37:35 +0000";
layers = (
{
components = (
{
alignment = -1;
name = "rVocalicMatra-sinhala";
transform = "{1, 0, 0, 1, 830, 0}";
}
);
layerId = "FDB844D3-6113-4F20-A391-626B83580871";
paths = (
{
closed = 1;
nodes = (
"270 521 OFFCURVE",
"244 551 OFFCURVE",
"197 551 CURVE SMOOTH",
"143 551 OFFCURVE",
"118 524 OFFCURVE",
"122 470 CURVE",
"26 454 LINE",
"16 497 OFFCURVE",
"30 542 OFFCURVE",
"48 572 CURVE SMOOTH",
"78 621 OFFCURVE",
"127 645 OFFCURVE",
"196 645 CURVE SMOOTH",
"316 645 OFFCURVE",
"381 556 OFFCURVE",
"381 432 CURVE SMOOTH",
"381 385 LINE",
"281 382 LINE",
"205 379 OFFCURVE",
"163 352 OFFCURVE",
"138 303 CURVE SMOOTH",
"127 282 OFFCURVE",
"122 255 OFFCURVE",
"122 224 CURVE SMOOTH",
"122 165 OFFCURVE",
"141 139 OFFCURVE",
"172 114 CURVE SMOOTH",
"199 92 OFFCURVE",
"230 82 OFFCURVE",
"264 82 CURVE SMOOTH",
"295 82 LINE SMOOTH",
"349 82 OFFCURVE",
"381 128 OFFCURVE",
"381 189 CURVE",
"454 189 LINE",
"454 122 OFFCURVE",
"491 81 OFFCURVE",
"559 81 CURVE SMOOTH",
"653 81 OFFCURVE",
"712 130 OFFCURVE",
"712 218 CURVE SMOOTH",
"712 323 OFFCURVE",
"656 376 OFFCURVE",
"553 381 CURVE SMOOTH",
"454 385 LINE",
"454 432 LINE SMOOTH",
"454 556 OFFCURVE",
"519 645 OFFCURVE",
"639 645 CURVE SMOOTH",
"712 645 OFFCURVE",
"759 615 OFFCURVE",
"786 572 CURVE SMOOTH",
"804 542 OFFCURVE",
"818 497 OFFCURVE",
"808 454 CURVE",
"712 470 LINE",
"716 524 OFFCURVE",
"691 551 OFFCURVE",
"638 551 CURVE SMOOTH",
"591 551 OFFCURVE",
"565 521 OFFCURVE",
"563 470 CURVE",
"720 470 OFFCURVE",
"813 383 OFFCURVE",
"813 220 CURVE SMOOTH",
"813 65 OFFCURVE",
"718 -20 OFFCURVE",
"567 -20 CURVE SMOOTH",
"492 -20 OFFCURVE",
"442 0 OFFCURVE",
"417 41 CURVE",
"396 4 OFFCURVE",
"358 -16 OFFCURVE",
"303 -19 CURVE SMOOTH",
"289 -20 OFFCURVE",
"270 -20 OFFCURVE",
"246 -20 CURVE SMOOTH",
"187 -20 OFFCURVE",
"123 10 OFFCURVE",
"89 42 CURVE SMOOTH",
"44 84 OFFCURVE",
"21 142 OFFCURVE",
"21 214 CURVE SMOOTH",
"21 378 OFFCURVE",
"108 470 OFFCURVE",
"272 470 CURVE"
);
}
);
width = 1290;
}
);
unicode = 0D8D;
},
{
color = 3;
glyphname = "ra-sinhala";
lastChange = "2018-12-17 06:41:31 +0000";
layers = (
{
layerId = "FDB844D3-6113-4F20-A391-626B83580871";
paths = (
{
closed = 1;
nodes = (
"660 186 OFFCURVE",
"592 144 OFFCURVE",
"562 122 CURVE",
"574 228 LINE",
"610 249 OFFCURVE",
"665 280 OFFCURVE",
"757 280 CURVE SMOOTH",
"918 280 OFFCURVE",
"1006 150 OFFCURVE",
"1006 14 CURVE SMOOTH",
"1006 -141 OFFCURVE",
"868 -257 OFFCURVE",
"725 -257 CURVE SMOOTH",
"570 -257 OFFCURVE",
"450 -137 OFFCURVE",
"450 24 CURVE SMOOTH",
"450 117 OFFCURVE",
"478 170 OFFCURVE",
"520 248 CURVE SMOOTH",
"583 366 OFFCURVE",
"626 539 OFFCURVE",
"628 631 CURVE",
"718 631 LINE",
"717 540 OFFCURVE",
"688 398 OFFCURVE",
"647 307 CURVE SMOOTH",
"580 157 OFFCURVE",
"552 82 OFFCURVE",
"552 12 CURVE SMOOTH",
"552 -82 OFFCURVE",
"631 -163 OFFCURVE",
"731 -163 CURVE SMOOTH",
"849 -163 OFFCURVE",
"911 -93 OFFCURVE",
"911 20 CURVE SMOOTH",
"911 132 OFFCURVE",
"813 186 OFFCURVE",
"751 186 CURVE SMOOTH"
);
},
{
closed = 1;
nodes = (
"174 624 OFFCURVE",
"155 594 OFFCURVE",
"155 540 CURVE SMOOTH",
"155 0 LINE",
"54 -17 LINE",
"54 580 LINE SMOOTH",
"54 675 OFFCURVE",
"119 722 OFFCURVE",
"209 722 CURVE SMOOTH",
"819 722 LINE",
"806 627 LINE",
"212 627 LINE"
);
}
);
width = 1056;
}
);
unicode = 0DBB;
},
{
glyphname = "sa-sinhala";
lastChange = "2018-02-20 19:37:35 +0000";
layers = (
{
layerId = "FDB844D3-6113-4F20-A391-626B83580871";
paths = (
{
closed = 1;
nodes = (
"493 162 OFFCURVE",
"463 200 OFFCURVE",
"428 200 CURVE SMOOTH",
"393 200 OFFCURVE",
"370 187 OFFCURVE",
"359 160 CURVE SMOOTH",
"354 151 OFFCURVE",
"351 139 OFFCURVE",
"351 124 CURVE SMOOTH",
"351 92 OFFCURVE",
"389 60 OFFCURVE",
"422 60 CURVE SMOOTH",
"458 60 OFFCURVE",
"493 89 OFFCURVE",
"493 126 CURVE SMOOTH"
);
},
{
closed = 1;
nodes = (
"981 119 OFFCURVE",
"998 61 OFFCURVE",
"1063 61 CURVE SMOOTH",
"1116 61 OFFCURVE",
"1143 102 OFFCURVE",
"1143 185 CURVE SMOOTH",
"1143 446 LINE",
"1240 446 LINE",
"1240 185 LINE SMOOTH",
"1240 72 OFFCURVE",
"1200 2 OFFCURVE",
"1122 -26 CURVE SMOOTH",
"1104 -33 OFFCURVE",
"1081 -36 OFFCURVE",
"1054 -36 CURVE SMOOTH",
"996 -36 OFFCURVE",
"949 -3 OFFCURVE",
"924 33 CURVE SMOOTH",
"897 71 OFFCURVE",
"884 116 OFFCURVE",
"884 167 CURVE",
"885 187 LINE",
"886 287 LINE",
"886 304 LINE SMOOTH",
"886 352 OFFCURVE",
"853 376 OFFCURVE",
"808 376 CURVE SMOOTH",
"768 376 OFFCURVE",
"738 339 OFFCURVE",
"738 299 CURVE SMOOTH",
"738 108 LINE",
"642 108 LINE",
"642 287 LINE",
"641 298 OFFCURVE",
"641 308 OFFCURVE",
"638 318 CURVE SMOOTH",
"626 380 OFFCURVE",
"579 432 OFFCURVE",
"512 432 CURVE SMOOTH",
"456 432 OFFCURVE",
"421 415 OFFCURVE",
"394 386 CURVE SMOOTH",
"368 358 OFFCURVE",
"351 322 OFFCURVE",
"344 278 CURVE",
"369 291 OFFCURVE",
"395 297 OFFCURVE",
"420 297 CURVE SMOOTH",
"520 297 OFFCURVE",
"590 220 OFFCURVE",
"590 128 CURVE SMOOTH",
"590 84 OFFCURVE",
"573 45 OFFCURVE",
"540 12 CURVE SMOOTH",
"508 -20 OFFCURVE",
"469 -36 OFFCURVE",
"423 -36 CURVE SMOOTH",
"352 -36 OFFCURVE",
"301 4 OFFCURVE",
"274 54 CURVE",
"273 54 LINE SMOOTH",
"272 55 OFFCURVE",
"269 62 OFFCURVE",
"262 75 CURVE SMOOTH",
"247 104 OFFCURVE",
"240 144 OFFCURVE",
"240 193 CURVE SMOOTH",
"240 301 OFFCURVE",
"263 383 OFFCURVE",
"310 439 CURVE",
"48 439 LINE",
"48 530 LINE",
"508 530 LINE",
"504 580 OFFCURVE",
"464 617 OFFCURVE",
"409 617 CURVE SMOOTH",
"381 617 OFFCURVE",
"357 604 OFFCURVE",
"336 579 CURVE",
"242 648 LINE",
"275 694 OFFCURVE",
"336 735 OFFCURVE",
"410 735 CURVE SMOOTH",
"479 735 OFFCURVE",
"528 707 OFFCURVE",
"564 671 CURVE SMOOTH",
"605 630 OFFCURVE",
"626 580 OFFCURVE",
"626 521 CURVE SMOOTH",
"626 508 LINE SMOOTH",
"626 504 OFFCURVE",
"626 500 OFFCURVE",
"625 496 CURVE",
"653 479 OFFCURVE",
"675 459 OFFCURVE",
"692 434 CURVE SMOOTH",
"694 432 OFFCURVE",
"694 431 OFFCURVE",
"696 429 CURVE",
"726 459 OFFCURVE",
"764 474 OFFCURVE",
"811 474 CURVE SMOOTH",
"921 474 OFFCURVE",
"982 399 OFFCURVE",
"982 287 CURVE",
"981 186 LINE SMOOTH"
);
}
);
width = 1312;
}
);
unicode = 0DC3;
},
{
color = 3;
glyphname = "sha-sinhala";
lastChange = "2018-12-17 06:24:35 +0000";
layers = (
{
layerId = "FDB844D3-6113-4F20-A391-626B83580871";
paths = (
{
closed = 1;
nodes = (
"559 525 LINE",
"515 525 OFFCURVE",
"484 505 OFFCURVE",
"484 446 CURVE SMOOTH",
"484 423 OFFCURVE",
"487 394 OFFCURVE",
"491 366 CURVE SMOOTH",
"495 337 OFFCURVE",
"498 308 OFFCURVE",
"498 283 CURVE SMOOTH",
"498 108 OFFCURVE",
"437 -7 OFFCURVE",
"280 -7 CURVE SMOOTH",
"86 -7 OFFCURVE",
"31 147 OFFCURVE",
"31 334 CURVE SMOOTH",
"31 570 OFFCURVE",
"150 667 OFFCURVE",
"220 686 CURVE",
"276 606 LINE",
"165 540 OFFCURVE",
"136 446 OFFCURVE",
"136 342 CURVE SMOOTH",
"136 218 OFFCURVE",
"178 94 OFFCURVE",
"280 94 CURVE SMOOTH",
"365 94 OFFCURVE",
"399 218 OFFCURVE",
"399 306 CURVE SMOOTH",
"399 335 OFFCURVE",
"397 363 OFFCURVE",
"392 391 CURVE SMOOTH",
"387 420 OFFCURVE",
"384 449 OFFCURVE",
"384 480 CURVE SMOOTH",
"384 559 OFFCURVE",
"452 622 OFFCURVE",
"537 622 CURVE SMOOTH",
"645 622 OFFCURVE",
"742 622 OFFCURVE",
"898 622 CURVE SMOOTH",
"1022 622 OFFCURVE",
"1027 555 OFFCURVE",
"1027 489 CURVE",
"1027 274 LINE",
"1027 133 OFFCURVE",
"1000 -2 OFFCURVE",
"842 -2 CURVE SMOOTH",
"669 -2 OFFCURVE",
"622 95 OFFCURVE",
"622 284 CURVE SMOOTH",
"622 387 OFFCURVE",
"644 475 OFFCURVE",
"667 525 CURVE"
);
},
{
closed = 1;
nodes = (
"930 499 OFFCURVE",
"908 525 OFFCURVE",
"863 525 CURVE SMOOTH",
"804 525 OFFCURVE",
"798 525 OFFCURVE",
"788 525 CURVE",
"758 489 OFFCURVE",
"730 388 OFFCURVE",
"730 272 CURVE SMOOTH",
"730 133 OFFCURVE",
"777 103 OFFCURVE",
"845 103 CURVE SMOOTH",
"879 103 OFFCURVE",
"930 129 OFFCURVE",
"930 226 CURVE",
"930 428 LINE"
);
}
);
width = 1126;
}
);
unicode = 0DC1;
},
{
color = 3;
glyphname = "ssa-sinhala";
lastChange = "2018-12-17 06:24:47 +0000";
layers = (
{
layerId = "FDB844D3-6113-4F20-A391-626B83580871";
paths = (
{
closed = 1;
nodes = (
"1035 313 OFFCURVE",
"992 244 OFFCURVE",
"909 208 CURVE",
"909 93 LINE",
"1073 93 LINE",
"1073 412 LINE"
);
},
{
closed = 1;
nodes = (
"142 420 OFFCURVE",
"174 396 OFFCURVE",
"210 396 CURVE SMOOTH",
"245 396 OFFCURVE",
"274 428 OFFCURVE",
"274 464 CURVE SMOOTH",
"274 501 OFFCURVE",
"242 528 OFFCURVE",
"206 528 CURVE SMOOTH",
"169 528 OFFCURVE",
"142 497 OFFCURVE",
"142 458 CURVE SMOOTH"
);
},
{
closed = 1;
nodes = (
"468 0 OFFCURVE",
"400 60 OFFCURVE",
"400 170 CURVE SMOOTH",
"400 209 OFFCURVE",
"412 243 OFFCURVE",
"418 276 CURVE SMOOTH",
"430 320 OFFCURVE",
"436 362 OFFCURVE",
"436 402 CURVE SMOOTH",
"436 488 OFFCURVE",
"384 559 OFFCURVE",
"316 580 CURVE",
"349 549 OFFCURVE",
"366 509 OFFCURVE",
"366 458 CURVE SMOOTH",
"366 374 OFFCURVE",
"293 303 OFFCURVE",
"208 303 CURVE SMOOTH",
"116 303 OFFCURVE",
"45 382 OFFCURVE",
"45 471 CURVE SMOOTH",
"45 590 OFFCURVE",
"156 679 OFFCURVE",
"275 679 CURVE SMOOTH",
"430 679 OFFCURVE",
"529 550 OFFCURVE",
"529 391 CURVE SMOOTH",
"529 339 OFFCURVE",
"520 284 OFFCURVE",
"502 226 CURVE SMOOTH",
"496 208 OFFCURVE",
"493 191 OFFCURVE",
"493 176 CURVE SMOOTH",
"493 116 OFFCURVE",
"514 93 OFFCURVE",
"576 93 CURVE SMOOTH",
"817 93 LINE",
"817 191 LINE",
"767 191 OFFCURVE",
"723 209 OFFCURVE",
"686 246 CURVE SMOOTH",
"650 282 OFFCURVE",
"632 325 OFFCURVE",
"632 374 CURVE SMOOTH",
"632 459 OFFCURVE",
"696 528 OFFCURVE",
"781 528 CURVE SMOOTH",
"858 528 OFFCURVE",
"909 477 OFFCURVE",
"909 404 CURVE SMOOTH",
"909 317 LINE",
"943 344 OFFCURVE",
"979 403 OFFCURVE",
"1016 493 CURVE SMOOTH",
"1050 573 OFFCURVE",
"1082 626 OFFCURVE",
"1111 653 CURVE SMOOTH",
"1144 682 OFFCURVE",
"1163 692 OFFCURVE",
"1209 692 CURVE SMOOTH",
"1273 692 OFFCURVE",
"1318 651 OFFCURVE",
"1334 600 CURVE",
"1244 576 LINE",
"1241 587 OFFCURVE",
"1229 598 OFFCURVE",
"1215 598 CURVE SMOOTH",
"1182 598 OFFCURVE",
"1165 566 OFFCURVE",
"1165 501 CURVE SMOOTH",
"1165 0 LINE",
"909 0 LINE",
"909 -182 LINE",
"817 -182 LINE",
"817 0 LINE",
"576 0 LINE SMOOTH"
);
},
{
closed = 1;
nodes = (
"817 427 OFFCURVE",
"801 442 OFFCURVE",
"773 442 CURVE SMOOTH",
"762 442 OFFCURVE",
"750 436 OFFCURVE",
"737 424 CURVE SMOOTH",
"724 412 OFFCURVE",
"718 392 OFFCURVE",
"718 366 CURVE SMOOTH",
"718 313 OFFCURVE",
"762 279 OFFCURVE",
"815 279 CURVE",
"817 404 LINE SMOOTH"
);
}
);
width = 1260;
}
);
unicode = 0DC2;
},
{
color = 3;
glyphname = "ta-sinhala";
lastChange = "2018-12-17 06:01:13 +0000";
layers = (
{
layerId = "FDB844D3-6113-4F20-A391-626B83580871";
paths = (
{
closed = 1;
nodes = (
"529 74 OFFCURVE",
"557 100 OFFCURVE",
"557 143 CURVE SMOOTH",
"557 182 LINE",
"558 276 LINE",
"558 328 LINE",
"423 327 LINE SMOOTH",
"344 327 OFFCURVE",
"285 321 OFFCURVE",
"247 310 CURVE SMOOTH",
"171 288 OFFCURVE",
"132 256 OFFCURVE",
"132 194 CURVE SMOOTH",
"132 122 OFFCURVE",
"204 73 OFFCURVE",
"280 73 CURVE SMOOTH",
"490 73 LINE",
"490 74 LINE"
);
},
{
closed = 1;
nodes = (
"648 53 OFFCURVE",
"590 -13 OFFCURVE",
"499 -16 CURVE",
"499 -17 LINE",
"276 -17 LINE SMOOTH",
"144 -17 OFFCURVE",
"42 75 OFFCURVE",
"42 195 CURVE SMOOTH",
"42 343 OFFCURVE",
"169 417 OFFCURVE",
"422 417 CURVE SMOOTH",
"558 417 LINE",
"558 444 LINE SMOOTH",
"558 494 OFFCURVE",
"573 554 OFFCURVE",
"602 622 CURVE",
"430 621 LINE SMOOTH",
"396 621 OFFCURVE",
"370 616 OFFCURVE",
"353 606 CURVE SMOOTH",
"336 596 OFFCURVE",
"327 583 OFFCURVE",
"327 570 CURVE SMOOTH",
"327 546 OFFCURVE",
"343 531 OFFCURVE",
"366 531 CURVE SMOOTH",
"387 531 OFFCURVE",
"403 552 OFFCURVE",
"403 572 CURVE",
"494 574 LINE",
"494 501 OFFCURVE",
"435 441 OFFCURVE",
"363 441 CURVE SMOOTH",
"294 441 OFFCURVE",
"236 499 OFFCURVE",
"236 569 CURVE SMOOTH",
"236 655 OFFCURVE",
"321 710 OFFCURVE",
"413 710 CURVE SMOOTH",
"738 710 LINE",
"715 655 OFFCURVE",
"693 607 OFFCURVE",
"674 555 CURVE SMOOTH",
"658 510 OFFCURVE",
"649 473 OFFCURVE",
"649 445 CURVE SMOOTH",
"649 438 LINE SMOOTH",
"649 434 OFFCURVE",
"649 428 OFFCURVE",
"648 419 CURVE",
"767 417 LINE",
"913 404 OFFCURVE",
"1030 320 OFFCURVE",
"1030 176 CURVE SMOOTH",
"1030 97 OFFCURVE",
"1004 27 OFFCURVE",
"952 -34 CURVE SMOOTH",
"885 -112 OFFCURVE",
"783 -165 OFFCURVE",
"644 -193 CURVE SMOOTH",
"614 -199 OFFCURVE",
"585 -205 OFFCURVE",
"556 -210 CURVE SMOOTH",
"472 -224 OFFCURVE",
"410 -237 OFFCURVE",
"372 -248 CURVE SMOOTH",
"284 -273 OFFCURVE",
"192 -332 OFFCURVE",
"129 -390 CURVE",
"68 -325 LINE",
"175 -225 OFFCURVE",
"302 -162 OFFCURVE",
"449 -135 CURVE SMOOTH",
"525 -121 OFFCURVE",
"662 -97 OFFCURVE",
"705 -84 CURVE SMOOTH",
"782 -59 OFFCURVE",
"840 -24 OFFCURVE",
"880 20 CURVE SMOOTH",
"920 64 OFFCURVE",
"940 110 OFFCURVE",
"940 159 CURVE SMOOTH",
"940 268 OFFCURVE",
"867 326 OFFCURVE",
"760 327 CURVE SMOOTH",
"648 328 LINE",
"648 149 LINE SMOOTH"
);
}
);
width = 1129;
}
);
unicode = 0DAD;
},
{
glyphname = "tta-sinhala";
lastChange = "2018-02-20 19:37:35 +0000";
layers = (
{
layerId = "FDB844D3-6113-4F20-A391-626B83580871";
paths = (
{
closed = 1;
nodes = (
"663 737 OFFCURVE",
"746 617 OFFCURVE",
"804 476 CURVE SMOOTH",
"861 339 OFFCURVE",
"888 198 OFFCURVE",
"884 52 CURVE",
"884 -3 LINE",
"37 0 LINE",
"36 383 LINE",
"146 383 LINE",
"147 109 LINE",
"774 107 LINE",
"765 292 OFFCURVE",
"710 460 OFFCURVE",
"608 608 CURVE SMOOTH",
"570 663 OFFCURVE",
"528 713 OFFCURVE",
"480 758 CURVE",
"555 837 LINE"
);
}
);
width = 940;
}
);
unicode = 0DA7;
},
{
color = 3;
glyphname = "u-sinhala";
lastChange = "2018-12-17 06:01:13 +0000";
layers = (
{
layerId = "FDB844D3-6113-4F20-A391-626B83580871";
paths = (
{
closed = 1;
nodes = (
"160 -134 OFFCURVE",
"310 -194 OFFCURVE",
"456 -194 CURVE SMOOTH",
"640 -194 OFFCURVE",
"796 -136 OFFCURVE",
"925 -20 CURVE",
"1027 -73 LINE",
"1024 -75 LINE",
"887 -198 OFFCURVE",
"691 -296 OFFCURVE",
"450 -296 CURVE SMOOTH",
"336 -296 OFFCURVE",
"242 -268 OFFCURVE",
"168 -212 CURVE SMOOTH",
"95 -156 OFFCURVE",
"58 -85 OFFCURVE",
"58 2 CURVE SMOOTH",
"58 57 OFFCURVE",
"75 105 OFFCURVE",
"110 147 CURVE SMOOTH",
"151 195 OFFCURVE",
"224 228 OFFCURVE",
"329 248 CURVE",
"333 248 LINE",
"398 261 OFFCURVE",
"444 279 OFFCURVE",
"472 300 CURVE SMOOTH",
"501 321 OFFCURVE",
"516 351 OFFCURVE",
"516 390 CURVE SMOOTH",
"516 470 OFFCURVE",
"454 533 OFFCURVE",
"390 553 CURVE",
"407 542 OFFCURVE",
"418 510 OFFCURVE",
"418 482 CURVE SMOOTH",
"418 411 OFFCURVE",
"361 365 OFFCURVE",
"293 365 CURVE SMOOTH",
"223 365 OFFCURVE",
"162 413 OFFCURVE",
"162 481 CURVE SMOOTH",
"162 540 OFFCURVE",
"183 574 OFFCURVE",
"218 598 CURVE SMOOTH",
"254 623 OFFCURVE",
"298 635 OFFCURVE",
"352 635 CURVE SMOOTH",
"424 635 OFFCURVE",
"487 610 OFFCURVE",
"540 562 CURVE SMOOTH",
"592 514 OFFCURVE",
"618 457 OFFCURVE",
"618 389 CURVE SMOOTH",
"618 342 OFFCURVE",
"606 301 OFFCURVE",
"580 264 CURVE SMOOTH",
"546 216 OFFCURVE",
"489 181 OFFCURVE",
"408 160 CURVE SMOOTH",
"388 155 OFFCURVE",
"370 151 OFFCURVE",
"354 148 CURVE",
"349 148 LINE",
"305 139 OFFCURVE",
"274 132 OFFCURVE",
"256 125 CURVE SMOOTH",
"192 101 OFFCURVE",
"160 59 OFFCURVE",
"160 -1 CURVE SMOOTH"
);
},
{
closed = 1;
nodes = (
"273 533 OFFCURVE",
"251 511 OFFCURVE",
"251 483 CURVE SMOOTH",
"251 455 OFFCURVE",
"273 433 OFFCURVE",
"301 433 CURVE SMOOTH",
"329 433 OFFCURVE",
"351 455 OFFCURVE",
"351 483 CURVE SMOOTH",
"351 511 OFFCURVE",
"329 533 OFFCURVE",
"301 533 CURVE SMOOTH"
);
}
);
width = 913;
}
);
unicode = 0D8B;
},
{
color = 3;
glyphname = "va-sinhala";
lastChange = "2018-12-17 06:01:13 +0000";
layers = (
{
layerId = "FDB844D3-6113-4F20-A391-626B83580871";
paths = (
{
closed = 1;
nodes = (
"272 385 OFFCURVE",
"245 409 OFFCURVE",
"213 409 CURVE SMOOTH",
"181 409 OFFCURVE",
"159 389 OFFCURVE",
"152 363 CURVE",
"151 352 LINE",
"154 320 OFFCURVE",
"177 291 OFFCURVE",
"212 291 CURVE SMOOTH",
"246 291 OFFCURVE",
"272 318 OFFCURVE",
"272 352 CURVE SMOOTH"
);
},
{
closed = 1;
nodes = (
"80 461 OFFCURVE",
"154 528 OFFCURVE",
"264 528 CURVE SMOOTH",
"344 528 OFFCURVE",
"414 499 OFFCURVE",
"472 440 CURVE SMOOTH",
"515 397 OFFCURVE",
"560 319 OFFCURVE",
"560 242 CURVE SMOOTH",
"560 211 OFFCURVE",
"558 188 OFFCURVE",
"555 172 CURVE",
"872 172 LINE",
"893 224 OFFCURVE",
"903 275 OFFCURVE",
"903 326 CURVE SMOOTH",
"903 441 OFFCURVE",
"854 535 OFFCURVE",
"794 598 CURVE SMOOTH",
"732 664 OFFCURVE",
"638 718 OFFCURVE",
"516 718 CURVE SMOOTH",
"426 718 OFFCURVE",
"346 691 OFFCURVE",
"275 636 CURVE",
"221 706 LINE",
"309 773 OFFCURVE",
"406 807 OFFCURVE",
"512 807 CURVE SMOOTH",
"654 807 OFFCURVE",
"769 746 OFFCURVE",
"846 671 CURVE SMOOTH",
"926 593 OFFCURVE",
"991 476 OFFCURVE",
"991 325 CURVE SMOOTH",
"991 249 OFFCURVE",
"974 176 OFFCURVE",
"939 107 CURVE SMOOTH",
"927 83 LINE",
"430 83 LINE",
"455 146 LINE SMOOTH",
"466 173 OFFCURVE",
"472 200 OFFCURVE",
"472 228 CURVE SMOOTH",
"472 323 OFFCURVE",
"411 394 OFFCURVE",
"341 423 CURVE",
"354 403 OFFCURVE",
"360 381 OFFCURVE",
"360 357 CURVE SMOOTH",
"360 266 OFFCURVE",
"298 202 OFFCURVE",
"214 202 CURVE SMOOTH",
"134 202 OFFCURVE",
"64 269 OFFCURVE",
"64 349 CURVE SMOOTH",
"64 364 LINE",
"63 364 LINE"
);
}
);
width = 1061;
}
);
unicode = 0DC0;
},
{
color = 3;
glyphname = "ya-sinhala";
lastChange = "2018-12-17 07:03:51 +0000";
layers = (
{
layerId = "FDB844D3-6113-4F20-A391-626B83580871";
paths = (
{
closed = 1;
nodes = (
"474 106 OFFCURVE",
"399 -13 OFFCURVE",
"251 -13 CURVE SMOOTH",
"113 -13 OFFCURVE",
"11 76 OFFCURVE",
"11 240 CURVE SMOOTH",
"11 391 OFFCURVE",
"113 483 OFFCURVE",
"194 513 CURVE",
"239 447 LINE",
"162 407 OFFCURVE",
"99 346 OFFCURVE",
"99 251 CURVE SMOOTH",
"99 143 OFFCURVE",
"167 78 OFFCURVE",
"250 78 CURVE SMOOTH",
"363 78 OFFCURVE",
"438 178 OFFCURVE",
"433 317 CURVE",
"517 317 LINE",
"527 84 LINE",
"662 84 LINE SMOOTH",
"693 84 OFFCURVE",
"718 108 OFFCURVE",
"718 135 CURVE",
"718 410 LINE",
"652 435 OFFCURVE",
"606 491 OFFCURVE",
"606 553 CURVE SMOOTH",
"606 648 OFFCURVE",
"680 707 OFFCURVE",
"764 707 CURVE SMOOTH",
"820 707 OFFCURVE",
"863 686 OFFCURVE",
"896 645 CURVE",
"816 589 LINE",
"805 604 OFFCURVE",
"785 612 OFFCURVE",
"767 612 CURVE SMOOTH",
"731 612 OFFCURVE",
"705 590 OFFCURVE",
"705 554 CURVE SMOOTH",
"705 498 OFFCURVE",
"779 474 OFFCURVE",
"817 471 CURVE",
"817 135 LINE SMOOTH",
"817 55 OFFCURVE",
"751 -12 OFFCURVE",
"662 -12 CURVE SMOOTH",
"458 -12 LINE",
"447 150 LINE",
"464 179 LINE"
);
}
);
width = 941;
}
);
unicode = 0DBA;
},
{
glyphname = "nga-tamil";
lastChange = "2018-02-20 19:37:35 +0000";
layers = (
{
layerId = "FDB844D3-6113-4F20-A391-626B83580871";
paths = (
{
closed = 1;
nodes = (
"547 210 OFFCURVE",
"502 246 OFFCURVE",
"446 246 CURVE SMOOTH",
"417 246 OFFCURVE",
"390 230 OFFCURVE",
"363 197 CURVE",
"363 98 LINE",
"301 98 LINE",
"301 443 LINE",
"154 443 LINE",
"154 0 LINE",
"92 0 LINE",
"92 492 LINE",
"535 492 LINE",
"535 443 LINE",
"363 443 LINE",
"363 264 LINE",
"397 293 OFFCURVE",
"432 307 OFFCURVE",
"468 307 CURVE SMOOTH",
"504 307 OFFCURVE",
"536 293 OFFCURVE",
"565 264 CURVE SMOOTH",
"594 235 OFFCURVE",
"608 199 OFFCURVE",
"608 155 CURVE SMOOTH",
"608 111 OFFCURVE",
"592 76 OFFCURVE",
"559 49 CURVE",
"744 49 LINE",
"744 492 LINE",
"805 492 LINE",
"805 0 LINE",
"301 0 LINE",
"301 49 LINE",
"436 49 LINE SMOOTH",
"493 49 OFFCURVE",
"547 99 OFFCURVE",
"547 155 CURVE SMOOTH"
);
}
);
width = 897;
}
);
unicode = 0B99;
},
{
glyphname = "ca-tamil";
lastChange = "2018-02-20 19:37:35 +0000";
layers = (
{
layerId = "FDB844D3-6113-4F20-A391-626B83580871";
paths = (
{
closed = 1;
nodes = (
"342 443 LINE",
"219 443 LINE",
"219 270 LINE",
"342 270 LINE"
);
},
{
closed = 1;
nodes = (
"96 94 OFFCURVE",
"160 37 OFFCURVE",
"226 37 CURVE SMOOTH",
"287 37 OFFCURVE",
"342 77 OFFCURVE",
"342 135 CURVE SMOOTH",
"342 221 LINE",
"157 221 LINE SMOOTH",
"123 221 OFFCURVE",
"96 194 OFFCURVE",
"96 160 CURVE SMOOTH"
);
},
{
closed = 1;
nodes = (
"34 222 OFFCURVE",
"94 270 OFFCURVE",
"157 270 CURVE",
"157 492 LINE",
"551 492 LINE",
"551 443 LINE",
"403 443 LINE",
"403 270 LINE",
"551 270 LINE",
"551 221 LINE",
"403 221 LINE",
"403 135 LINE SMOOTH",
"403 47 OFFCURVE",
"318 -12 OFFCURVE",
"226 -12 CURVE SMOOTH",
"175 -12 OFFCURVE",
"131 4 OFFCURVE",
"92 38 CURVE SMOOTH",
"53 72 OFFCURVE",
"34 113 OFFCURVE",
"34 160 CURVE SMOOTH"
);
}
);
width = 567;
}
);
unicode = 0B9A;
},
{
glyphname = "nya-tamil";
lastChange = "2018-02-20 19:37:35 +0000";
layers = (
{
layerId = "FDB844D3-6113-4F20-A391-626B83580871";
paths = (
{
closed = 1;
nodes = (
"380 84 OFFCURVE",
"416 37 OFFCURVE",
"466 37 CURVE SMOOTH",
"516 37 OFFCURVE",
"552 85 OFFCURVE",
"552 136 CURVE SMOOTH",
"552 187 OFFCURVE",
"516 234 OFFCURVE",
"466 234 CURVE SMOOTH",
"416 234 OFFCURVE",
"380 186 OFFCURVE",
"380 135 CURVE SMOOTH"
);
},
{
closed = 1;
nodes = (
"601 58 OFFCURVE",
"543 -12 OFFCURVE",
"466 -12 CURVE SMOOTH",
"398 -12 OFFCURVE",
"340 9 OFFCURVE",
"292 52 CURVE SMOOTH",
"244 95 OFFCURVE",
"220 148 OFFCURVE",
"220 209 CURVE SMOOTH",
"220 287 OFFCURVE",
"250 354 OFFCURVE",
"310 409 CURVE SMOOTH",
"370 464 OFFCURVE",
"442 492 OFFCURVE",
"527 492 CURVE SMOOTH",
"1007 492 LINE",
"1007 443 LINE",
"810 443 LINE",
"810 246 LINE",
"832 271 OFFCURVE",
"856 283 OFFCURVE",
"884 283 CURVE SMOOTH",
"981 283 OFFCURVE",
"1056 197 OFFCURVE",
"1056 98 CURVE SMOOTH",
"1056 -17 OFFCURVE",
"1012 -116 OFFCURVE",
"926 -198 CURVE SMOOTH",
"840 -280 OFFCURVE",
"736 -320 OFFCURVE",
"613 -320 CURVE SMOOTH",
"464 -320 OFFCURVE",
"336 -269 OFFCURVE",
"231 -168 CURVE SMOOTH",
"126 -67 OFFCURVE",
"73 54 OFFCURVE",
"73 197 CURVE SMOOTH",
"73 321 OFFCURVE",
"104 420 OFFCURVE",
"165 492 CURVE",
"208 461 LINE",
"155 395 OFFCURVE",
"128 307 OFFCURVE",
"128 197 CURVE SMOOTH",
"128 68 OFFCURVE",
"175 -42 OFFCURVE",
"270 -133 CURVE SMOOTH",
"365 -224 OFFCURVE",
"479 -270 OFFCURVE",
"613 -270 CURVE SMOOTH",
"718 -270 OFFCURVE",
"807 -234 OFFCURVE",
"882 -162 CURVE SMOOTH",
"957 -90 OFFCURVE",
"994 -3 OFFCURVE",
"994 98 CURVE SMOOTH",
"994 165 OFFCURVE",
"950 234 OFFCURVE",
"886 234 CURVE SMOOTH",
"857 234 OFFCURVE",
"832 215 OFFCURVE",
"810 178 CURVE",
"810 0 LINE",
"749 0 LINE",
"749 443 LINE",
"527 443 LINE SMOOTH",
"458 443 OFFCURVE",
"398 420 OFFCURVE",
"349 374 CURVE SMOOTH",
"300 328 OFFCURVE",
"275 274 OFFCURVE",
"275 209 CURVE SMOOTH",
"275 151 OFFCURVE",
"300 102 OFFCURVE",
"349 61 CURVE",
"337 82 OFFCURVE",
"331 107 OFFCURVE",
"331 135 CURVE SMOOTH",
"331 213 OFFCURVE",
"389 283 OFFCURVE",
"466 283 CURVE SMOOTH",
"544 283 OFFCURVE",
"601 215 OFFCURVE",
"601 136 CURVE SMOOTH"
);
}
);
width = 1100;
}
);
unicode = 0B9E;
},
{
glyphname = "nna-tamil";
lastChange = "2018-02-20 19:37:35 +0000";
layers = (
{
layerId = "FDB844D3-6113-4F20-A391-626B83580871";
paths = (
{
closed = 1;
nodes = (
"189 87 OFFCURVE",
"217 37 OFFCURVE",
"263 37 CURVE SMOOTH",
"308 37 OFFCURVE",
"337 88 OFFCURVE",
"337 136 CURVE SMOOTH",
"337 184 OFFCURVE",
"309 234 OFFCURVE",
"263 234 CURVE SMOOTH",
"217 234 OFFCURVE",
"189 183 OFFCURVE",
"189 135 CURVE SMOOTH"
);
},
{
closed = 1;
nodes = (
"590 37 OFFCURVE",
"607 135 OFFCURVE",
"607 186 CURVE SMOOTH",
"607 254 OFFCURVE",
"587 313 OFFCURVE",
"546 363 CURVE",
"505 313 OFFCURVE",
"484 258 OFFCURVE",
"484 197 CURVE SMOOTH",
"484 153 OFFCURVE",
"490 115 OFFCURVE",
"502 84 CURVE SMOOTH",
"514 53 OFFCURVE",
"529 37 OFFCURVE",
"546 37 CURVE SMOOTH"
);
},
{
closed = 1;
nodes = (
"885 37 OFFCURVE",
"902 136 OFFCURVE",
"902 188 CURVE SMOOTH",
"902 259 OFFCURVE",
"882 319 OFFCURVE",
"841 369 CURVE",
"800 319 OFFCURVE",
"779 262 OFFCURVE",
"779 197 CURVE SMOOTH",
"779 153 OFFCURVE",
"785 115 OFFCURVE",
"797 84 CURVE SMOOTH",
"809 53 OFFCURVE",
"824 37 OFFCURVE",
"841 37 CURVE SMOOTH"
);
},
{
closed = 1;
nodes = (
"465 -12 OFFCURVE",
"423 107 OFFCURVE",
"423 197 CURVE SMOOTH",
"423 274 OFFCURVE",
"450 346 OFFCURVE",
"503 412 CURVE",
"469 441 OFFCURVE",
"419 455 OFFCURVE",
"353 455 CURVE SMOOTH",
"287 455 OFFCURVE",
"228 431 OFFCURVE",
"178 383 CURVE SMOOTH",
"128 335 OFFCURVE",
"103 277 OFFCURVE",
"103 209 CURVE SMOOTH",
"103 134 OFFCURVE",
"130 72 OFFCURVE",
"171 37 CURVE",
"150 73 OFFCURVE",
"140 108 OFFCURVE",
"140 143 CURVE SMOOTH",
"140 211 OFFCURVE",
"196 283 OFFCURVE",
"263 283 CURVE SMOOTH",
"335 283 OFFCURVE",
"386 211 OFFCURVE",
"386 136 CURVE SMOOTH",
"386 51 OFFCURVE",
"319 -12 OFFCURVE",
"231 -12 CURVE SMOOTH",
"185 -12 OFFCURVE",
"144 9 OFFCURVE",
"108 52 CURVE SMOOTH",
"72 95 OFFCURVE",
"54 148 OFFCURVE",
"54 209 CURVE SMOOTH",
"54 290 OFFCURVE",
"84 360 OFFCURVE",
"144 418 CURVE SMOOTH",
"204 476 OFFCURVE",
"275 504 OFFCURVE",
"357 504 CURVE SMOOTH",
"439 504 OFFCURVE",
"503 486 OFFCURVE",
"546 449 CURVE",
"589 486 OFFCURVE",
"639 504 OFFCURVE",
"696 504 CURVE SMOOTH",
"753 504 OFFCURVE",
"804 486 OFFCURVE",
"847 449 CURVE",
"881 478 OFFCURVE",
"924 492 OFFCURVE",
"976 492 CURVE SMOOTH",
"1296 492 LINE",
"1296 443 LINE",
"1148 443 LINE",
"1148 0 LINE",
"1087 0 LINE",
"1087 443 LINE",
"976 443 LINE SMOOTH",
"946 443 OFFCURVE",
"914 433 OFFCURVE",
"878 412 CURVE",
"935 345 OFFCURVE",
"964 273 OFFCURVE",
"964 197 CURVE SMOOTH",
"964 107 OFFCURVE",
"922 -12 OFFCURVE",
"841 -12 CURVE SMOOTH",
"763 -12 OFFCURVE",
"718 105 OFFCURVE",
"718 189 CURVE SMOOTH",
"718 293 OFFCURVE",
"745 367 OFFCURVE",
"798 412 CURVE",
"764 441 OFFCURVE",
"729 455 OFFCURVE",
"693 455 CURVE SMOOTH",
"659 455 OFFCURVE",
"623 439 OFFCURVE",
"583 406 CURVE",
"638 361 OFFCURVE",
"669 286 OFFCURVE",
"669 186 CURVE SMOOTH",
"669 103 OFFCURVE",
"623 -12 OFFCURVE",
"546 -12 CURVE SMOOTH"
);
}
);
width = 1303;
}
);
unicode = 0BA3;
},
{
glyphname = "nnna-tamil";
lastChange = "2018-02-20 19:37:35 +0000";
layers = (
{
layerId = "FDB844D3-6113-4F20-A391-626B83580871";
paths = (
{
closed = 1;
nodes = (
"187 84 OFFCURVE",
"223 37 OFFCURVE",
"273 37 CURVE SMOOTH",
"323 37 OFFCURVE",
"359 85 OFFCURVE",
"359 136 CURVE SMOOTH",
"359 187 OFFCURVE",
"323 234 OFFCURVE",
"273 234 CURVE SMOOTH",
"223 234 OFFCURVE",
"187 186 OFFCURVE",
"187 135 CURVE SMOOTH"
);
},
{
closed = 1;
nodes = (
"624 37 OFFCURVE",
"642 136 OFFCURVE",
"642 188 CURVE SMOOTH",
"642 259 OFFCURVE",
"621 319 OFFCURVE",
"580 369 CURVE",
"539 320 OFFCURVE",
"519 263 OFFCURVE",
"519 197 CURVE SMOOTH",
"519 153 OFFCURVE",
"524 115 OFFCURVE",
"536 84 CURVE SMOOTH",
"548 53 OFFCURVE",
"563 37 OFFCURVE",
"580 37 CURVE SMOOTH"
);
},
{
closed = 1;
nodes = (
"408 58 OFFCURVE",
"350 -12 OFFCURVE",
"273 -12 CURVE SMOOTH",
"212 -12 OFFCURVE",
"159 9 OFFCURVE",
"116 52 CURVE SMOOTH",
"73 95 OFFCURVE",
"52 148 OFFCURVE",
"52 209 CURVE SMOOTH",
"52 290 OFFCURVE",
"83 360 OFFCURVE",
"145 418 CURVE SMOOTH",
"207 476 OFFCURVE",
"283 504 OFFCURVE",
"372 504 CURVE SMOOTH",
"461 504 OFFCURVE",
"531 484 OFFCURVE",
"580 443 CURVE",
"620 476 OFFCURVE",
"669 492 OFFCURVE",
"728 492 CURVE SMOOTH",
"986 492 LINE",
"986 443 LINE",
"888 443 LINE",
"888 0 LINE",
"826 0 LINE",
"826 443 LINE",
"728 443 LINE SMOOTH",
"683 443 OFFCURVE",
"646 431 OFFCURVE",
"617 406 CURVE",
"672 361 OFFCURVE",
"703 286 OFFCURVE",
"703 186 CURVE SMOOTH",
"703 103 OFFCURVE",
"657 -12 OFFCURVE",
"580 -12 CURVE SMOOTH",
"503 -12 OFFCURVE",
"457 104 OFFCURVE",
"457 186 CURVE SMOOTH",
"457 279 OFFCURVE",
"486 350 OFFCURVE",
"543 400 CURVE",
"500 437 OFFCURVE",
"441 455 OFFCURVE",
"368 455 CURVE SMOOTH",
"295 455 OFFCURVE",
"233 431 OFFCURVE",
"180 383 CURVE SMOOTH",
"127 335 OFFCURVE",
"101 277 OFFCURVE",
"101 209 CURVE SMOOTH",
"101 155 OFFCURVE",
"117 114 OFFCURVE",
"150 86 CURVE",
"142 101 OFFCURVE",
"138 117 OFFCURVE",
"138 135 CURVE SMOOTH",
"138 213 OFFCURVE",
"196 283 OFFCURVE",
"273 283 CURVE SMOOTH",
"351 283 OFFCURVE",
"408 215 OFFCURVE",
"408 136 CURVE SMOOTH"
);
}
);
width = 993;
}
);
unicode = 0BA9;
},
{
glyphname = "rra-tamil";
lastChange = "2018-12-15 20:55:03 +0000";
layers = (
{
layerId = "FDB844D3-6113-4F20-A391-626B83580871";
paths = (
{
closed = 1;
nodes = (
"347 480 OFFCURVE",
"395 504 OFFCURVE",
"451 504 CURVE SMOOTH",
"500 504 OFFCURVE",
"542 477 OFFCURVE",
"577 424 CURVE SMOOTH",
"612 371 OFFCURVE",
"629 308 OFFCURVE",
"629 234 CURVE SMOOTH",
"629 135 OFFCURVE",
"604 52 OFFCURVE",
"554 -18 CURVE SMOOTH",
"504 -88 OFFCURVE",
"442 -123 OFFCURVE",
"371 -123 CURVE SMOOTH",
"175 -123 LINE SMOOTH",
"148 -123 OFFCURVE",
"129 -137 OFFCURVE",
"118 -164 CURVE SMOOTH",
"107 -191 OFFCURVE",
"110 -219 OFFCURVE",
"125 -246 CURVE",
"76 -270 LINE",
"60 -242 OFFCURVE",
"52 -218 OFFCURVE",
"52 -197 CURVE SMOOTH",
"52 -130 OFFCURVE",
"108 -74 OFFCURVE",
"175 -74 CURVE SMOOTH",
"371 -74 LINE SMOOTH",
"425 -74 OFFCURVE",
"471 -44 OFFCURVE",
"510 16 CURVE SMOOTH",
"549 76 OFFCURVE",
"568 149 OFFCURVE",
"568 234 CURVE SMOOTH",
"568 295 OFFCURVE",
"558 347 OFFCURVE",
"536 390 CURVE SMOOTH",
"514 433 OFFCURVE",
"489 455 OFFCURVE",
"460 455 CURVE SMOOTH",
"407 455 OFFCURVE",
"359 419 OFFCURVE",
"359 369 CURVE SMOOTH",
"359 0 LINE",
"297 0 LINE",
"297 369 LINE SMOOTH",
"297 414 OFFCURVE",
"267 455 OFFCURVE",
"224 455 CURVE SMOOTH",
"181 455 OFFCURVE",
"150 413 OFFCURVE",
"150 369 CURVE SMOOTH",
"150 0 LINE",
"89 0 LINE",
"89 369 LINE SMOOTH",
"89 444 OFFCURVE",
"149 504 OFFCURVE",
"224 504 CURVE SMOOTH",
"272 504 OFFCURVE",
"312 477 OFFCURVE",
"328 443 CURVE"
);
}
);
width = 697;
}
);
unicode = 0BB1;
},
{
glyphname = "lla-tamil";
lastChange = "2018-02-20 19:37:35 +0000";
layers = (
{
layerId = "FDB844D3-6113-4F20-A391-626B83580871";
paths = (
{
closed = 1;
nodes = (
"204 99 OFFCURVE",
"234 49 OFFCURVE",
"278 49 CURVE SMOOTH",
"322 49 OFFCURVE",
"352 100 OFFCURVE",
"352 146 CURVE SMOOTH",
"352 193 OFFCURVE",
"323 234 OFFCURVE",
"278 234 CURVE SMOOTH",
"234 234 OFFCURVE",
"204 191 OFFCURVE",
"204 145 CURVE SMOOTH"
);
},
{
closed = 1;
nodes = (
"379 504 OFFCURVE",
"454 463 OFFCURVE",
"487 406 CURVE",
"487 492 LINE",
"917 492 LINE",
"917 443 LINE",
"782 443 LINE",
"782 0 LINE",
"720 0 LINE",
"720 443 LINE",
"536 443 LINE",
"536 0 LINE",
"475 0 LINE",
"475 246 LINE SMOOTH",
"475 303 OFFCURVE",
"456 353 OFFCURVE",
"420 394 CURVE SMOOTH",
"384 435 OFFCURVE",
"341 455 OFFCURVE",
"290 455 CURVE SMOOTH",
"239 455 OFFCURVE",
"196 433 OFFCURVE",
"160 390 CURVE SMOOTH",
"124 347 OFFCURVE",
"106 295 OFFCURVE",
"106 234 CURVE SMOOTH",
"106 164 OFFCURVE",
"138 108 OFFCURVE",
"179 74 CURVE",
"163 102 OFFCURVE",
"155 127 OFFCURVE",
"155 148 CURVE SMOOTH",
"155 220 OFFCURVE",
"208 283 OFFCURVE",
"278 283 CURVE SMOOTH",
"350 283 OFFCURVE",
"401 218 OFFCURVE",
"401 143 CURVE SMOOTH",
"401 102 OFFCURVE",
"387 66 OFFCURVE",
"358 35 CURVE SMOOTH",
"329 4 OFFCURVE",
"294 -12 OFFCURVE",
"253 -12 CURVE SMOOTH",
"199 -12 OFFCURVE",
"152 12 OFFCURVE",
"114 60 CURVE SMOOTH",
"76 108 OFFCURVE",
"57 168 OFFCURVE",
"57 239 CURVE SMOOTH",
"57 310 OFFCURVE",
"80 372 OFFCURVE",
"125 425 CURVE SMOOTH",
"170 478 OFFCURVE",
"225 504 OFFCURVE",
"290 504 CURVE SMOOTH"
);
}
);
width = 924;
}
);
unicode = 0BB3;
},
{
glyphname = "llla-tamil";
lastChange = "2018-02-20 19:37:35 +0000";
layers = (
{
layerId = "FDB844D3-6113-4F20-A391-626B83580871";
paths = (
{
closed = 1;
nodes = (
"479 455 OFFCURVE",
"449 413 OFFCURVE",
"449 369 CURVE SMOOTH",
"449 49 LINE",
"621 49 LINE SMOOTH",
"677 49 OFFCURVE",
"707 123 OFFCURVE",
"707 184 CURVE SMOOTH",
"707 259 OFFCURVE",
"689 323 OFFCURVE",
"653 376 CURVE SMOOTH",
"617 429 OFFCURVE",
"573 455 OFFCURVE",
"522 455 CURVE SMOOTH"
);
},
{
closed = 1;
nodes = (
"387 444 OFFCURVE",
"447 504 OFFCURVE",
"522 504 CURVE SMOOTH",
"590 504 OFFCURVE",
"648 472 OFFCURVE",
"696 410 CURVE SMOOTH",
"744 348 OFFCURVE",
"768 273 OFFCURVE",
"768 184 CURVE SMOOTH",
"768 92 OFFCURVE",
"709 0 OFFCURVE",
"621 0 CURVE SMOOTH",
"449 0 LINE",
"457 -52 OFFCURVE",
"501 -98 OFFCURVE",
"559 -98 CURVE SMOOTH",
"707 -98 LINE",
"707 -148 LINE",
"608 -148 LINE SMOOTH",
"536 -148 OFFCURVE",
"487 -189 OFFCURVE",
"458 -240 CURVE SMOOTH",
"427 -294 OFFCURVE",
"358 -344 OFFCURVE",
"277 -344 CURVE SMOOTH",
"226 -344 OFFCURVE",
"182 -330 OFFCURVE",
"146 -301 CURVE SMOOTH",
"110 -272 OFFCURVE",
"92 -239 OFFCURVE",
"92 -202 CURVE SMOOTH",
"92 -131 OFFCURVE",
"146 -74 OFFCURVE",
"215 -74 CURVE SMOOTH",
"313 -74 LINE",
"313 -123 LINE",
"215 -123 LINE SMOOTH",
"176 -123 OFFCURVE",
"154 -160 OFFCURVE",
"154 -202 CURVE SMOOTH",
"154 -253 OFFCURVE",
"216 -295 OFFCURVE",
"268 -295 CURVE SMOOTH",
"324 -295 OFFCURVE",
"364 -275 OFFCURVE",
"387 -234 CURVE SMOOTH",
"410 -191 OFFCURVE",
"443 -158 OFFCURVE",
"486 -135 CURVE",
"435 -116 OFFCURVE",
"387 -66 OFFCURVE",
"387 0 CURVE",
"92 0 LINE",
"92 492 LINE",
"154 492 LINE",
"154 49 LINE",
"387 49 LINE",
"387 369 LINE SMOOTH"
);
}
);
width = 824;
}
);
unicode = 0BB4;
},
{
glyphname = "sa-tamil";
lastChange = "2018-02-20 19:37:35 +0000";
layers = (
{
layerId = "FDB844D3-6113-4F20-A391-626B83580871";
paths = (
{
closed = 1;
nodes = (
"215 87 OFFCURVE",
"243 37 OFFCURVE",
"289 37 CURVE SMOOTH",
"334 37 OFFCURVE",
"363 88 OFFCURVE",
"363 136 CURVE SMOOTH",
"363 184 OFFCURVE",
"335 234 OFFCURVE",
"289 234 CURVE SMOOTH",
"243 234 OFFCURVE",
"215 183 OFFCURVE",
"215 135 CURVE SMOOTH"
);
},
{
closed = 1;
nodes = (
"486 394 OFFCURVE",
"390 449 OFFCURVE",
"298 449 CURVE SMOOTH",
"246 449 OFFCURVE",
"201 426 OFFCURVE",
"162 382 CURVE SMOOTH",
"123 338 OFFCURVE",
"104 284 OFFCURVE",
"104 221 CURVE SMOOTH",
"104 149 OFFCURVE",
"133 87 OFFCURVE",
"178 61 CURVE",
"170 84 OFFCURVE",
"166 108 OFFCURVE",
"166 135 CURVE SMOOTH",
"166 210 OFFCURVE",
"216 283 OFFCURVE",
"288 283 CURVE SMOOTH",
"360 283 OFFCURVE",
"412 211 OFFCURVE",
"412 136 CURVE SMOOTH",
"412 58 OFFCURVE",
"354 -12 OFFCURVE",
"277 -12 CURVE SMOOTH",
"216 -12 OFFCURVE",
"163 11 OFFCURVE",
"120 56 CURVE SMOOTH",
"77 101 OFFCURVE",
"55 156 OFFCURVE",
"55 221 CURVE SMOOTH",
"55 299 OFFCURVE",
"79 366 OFFCURVE",
"127 421 CURVE SMOOTH",
"175 476 OFFCURVE",
"233 504 OFFCURVE",
"301 504 CURVE SMOOTH",
"393 504 OFFCURVE",
"470 464 OFFCURVE",
"504 406 CURVE",
"518 459 OFFCURVE",
"562 504 OFFCURVE",
"626 504 CURVE SMOOTH",
"656 504 OFFCURVE",
"684 490 OFFCURVE",
"708 464 CURVE SMOOTH",
"732 438 OFFCURVE",
"744 406 OFFCURVE",
"744 369 CURVE SMOOTH",
"744 135 LINE SMOOTH",
"744 84 OFFCURVE",
"780 37 OFFCURVE",
"830 37 CURVE SMOOTH",
"920 37 OFFCURVE",
"977 146 OFFCURVE",
"977 240 CURVE SMOOTH",
"977 351 OFFCURVE",
"926 437 OFFCURVE",
"854 479 CURVE",
"897 529 LINE",
"982 479 OFFCURVE",
"1039 373 OFFCURVE",
"1039 239 CURVE SMOOTH",
"1039 172 OFFCURVE",
"1019 114 OFFCURVE",
"978 64 CURVE SMOOTH",
"937 14 OFFCURVE",
"887 -12 OFFCURVE",
"830 -12 CURVE SMOOTH",
"749 -12 OFFCURVE",
"682 54 OFFCURVE",
"682 135 CURVE SMOOTH",
"682 369 LINE SMOOTH",
"682 410 OFFCURVE",
"658 449 OFFCURVE",
"618 449 CURVE SMOOTH",
"574 449 OFFCURVE",
"547 392 OFFCURVE",
"547 344 CURVE SMOOTH",
"547 0 LINE",
"486 0 LINE",
"486 307 LINE SMOOTH"
);
}
);
width = 1100;
}
);
unicode = 0BB8;
},
{
glyphname = "ha-tamil";
lastChange = "2018-02-20 19:37:35 +0000";
layers = (
{
layerId = "FDB844D3-6113-4F20-A391-626B83580871";
paths = (
{
closed = 1;
nodes = (
"205 84 OFFCURVE",
"242 37 OFFCURVE",
"292 37 CURVE SMOOTH",
"341 37 OFFCURVE",
"377 85 OFFCURVE",
"377 136 CURVE SMOOTH",
"377 187 OFFCURVE",
"341 234 OFFCURVE",
"291 234 CURVE SMOOTH",
"241 234 OFFCURVE",
"205 186 OFFCURVE",
"205 135 CURVE SMOOTH"
);
},
{
closed = 1;
nodes = (
"660 449 OFFCURVE",
"718 504 OFFCURVE",
"787 504 CURVE SMOOTH",
"823 504 OFFCURVE",
"854 488 OFFCURVE",
"881 455 CURVE",
"909 488 OFFCURVE",
"950 504 OFFCURVE",
"1002 504 CURVE SMOOTH",
"1054 504 OFFCURVE",
"1098 478 OFFCURVE",
"1134 428 CURVE SMOOTH",
"1170 378 OFFCURVE",
"1189 317 OFFCURVE",
"1189 246 CURVE SMOOTH",
"1189 145 OFFCURVE",
"1163 58 OFFCURVE",
"1110 -14 CURVE SMOOTH",
"1057 -86 OFFCURVE",
"993 -123 OFFCURVE",
"918 -123 CURVE SMOOTH",
"205 -123 LINE SMOOTH",
"167 -123 OFFCURVE",
"132 -155 OFFCURVE",
"132 -191 CURVE SMOOTH",
"132 -208 OFFCURVE",
"140 -230 OFFCURVE",
"156 -258 CURVE",
"107 -295 LINE",
"82 -266 OFFCURVE",
"70 -234 OFFCURVE",
"70 -199 CURVE SMOOTH",
"70 -128 OFFCURVE",
"133 -74 OFFCURVE",
"205 -74 CURVE SMOOTH",
"918 -74 LINE SMOOTH",
"975 -74 OFFCURVE",
"1025 -42 OFFCURVE",
"1066 20 CURVE SMOOTH",
"1107 82 OFFCURVE",
"1127 157 OFFCURVE",
"1127 246 CURVE SMOOTH",
"1127 303 OFFCURVE",
"1115 353 OFFCURVE",
"1091 394 CURVE SMOOTH",
"1067 435 OFFCURVE",
"1040 455 OFFCURVE",
"1009 455 CURVE SMOOTH",
"957 455 OFFCURVE",
"906 429 OFFCURVE",
"906 381 CURVE SMOOTH",
"906 0 LINE",
"845 0 LINE",
"845 381 LINE SMOOTH",
"845 419 OFFCURVE",
"820 455 OFFCURVE",
"783 455 CURVE SMOOTH",
"746 455 OFFCURVE",
"722 419 OFFCURVE",
"722 381 CURVE SMOOTH",
"722 0 LINE",
"451 0 LINE",
"451 37 LINE",
"492 87 OFFCURVE",
"513 146 OFFCURVE",
"513 216 CURVE SMOOTH",
"513 347 OFFCURVE",
"442 455 OFFCURVE",
"315 455 CURVE SMOOTH",
"184 455 OFFCURVE",
"113 346 OFFCURVE",
"113 209 CURVE SMOOTH",
"113 150 OFFCURVE",
"136 101 OFFCURVE",
"181 61 CURVE",
"164 90 OFFCURVE",
"156 115 OFFCURVE",
"156 135 CURVE SMOOTH",
"156 213 OFFCURVE",
"215 283 OFFCURVE",
"292 283 CURVE SMOOTH",
"369 283 OFFCURVE",
"427 215 OFFCURVE",
"427 136 CURVE SMOOTH",
"427 52 OFFCURVE",
"352 -12 OFFCURVE",
"267 -12 CURVE SMOOTH",
"210 -12 OFFCURVE",
"161 9 OFFCURVE",
"120 52 CURVE SMOOTH",
"79 95 OFFCURVE",
"58 148 OFFCURVE",
"58 209 CURVE SMOOTH",
"58 378 OFFCURVE",
"152 504 OFFCURVE",
"316 504 CURVE SMOOTH",
"480 504 OFFCURVE",
"574 377 OFFCURVE",
"574 209 CURVE SMOOTH",
"574 159 OFFCURVE",
"558 106 OFFCURVE",
"525 49 CURVE",
"660 49 LINE",
"660 381 LINE SMOOTH"
);
}
);
width = 1255;
}
);
unicode = 0BB9;
},
{
glyphname = "om-tamil";
lastChange = "2018-02-20 19:37:35 +0000";
layers = (
{
layerId = "FDB844D3-6113-4F20-A391-626B83580871";
paths = (
{
closed = 1;
nodes = (
"347 22 OFFCURVE",
"356 11 OFFCURVE",
"356 -4 CURVE SMOOTH",
"356 -6 LINE SMOOTH",
"356 -19 OFFCURVE",
"347 -30 OFFCURVE",
"332 -30 CURVE SMOOTH",
"318 -30 OFFCURVE",
"308 -18 OFFCURVE",
"308 -4 CURVE SMOOTH",
"308 8 OFFCURVE",
"320 22 OFFCURVE",
"330 22 CURVE SMOOTH"
);
},
{
closed = 1;
nodes = (
"385 -140 OFFCURVE",
"386 -119 OFFCURVE",
"371 -100 CURVE SMOOTH",
"356 -83 OFFCURVE",
"340 -83 OFFCURVE",
"326 -98 CURVE SMOOTH",
"312 -113 OFFCURVE",
"311 -134 OFFCURVE",
"323 -163 CURVE",
"369 -164 LINE"
);
},
{
closed = 1;
nodes = (
"492 -26 OFFCURVE",
"431 32 OFFCURVE",
"431 111 CURVE SMOOTH",
"431 158 OFFCURVE",
"450 198 OFFCURVE",
"489 232 CURVE SMOOTH",
"528 266 OFFCURVE",
"574 283 OFFCURVE",
"628 283 CURVE",
"595 243 OFFCURVE",
"579 202 OFFCURVE",
"579 160 CURVE SMOOTH",
"579 117 OFFCURVE",
"620 86 OFFCURVE",
"665 86 CURVE SMOOTH",
"715 86 OFFCURVE",
"751 133 OFFCURVE",
"751 184 CURVE SMOOTH",
"751 262 OFFCURVE",
"719 329 OFFCURVE",
"654 384 CURVE SMOOTH",
"589 439 OFFCURVE",
"512 467 OFFCURVE",
"422 467 CURVE SMOOTH",
"332 467 OFFCURVE",
"255 442 OFFCURVE",
"193 392 CURVE SMOOTH",
"131 342 OFFCURVE",
"100 280 OFFCURVE",
"100 209 CURVE SMOOTH",
"100 182 OFFCURVE",
"104 158 OFFCURVE",
"112 135 CURVE",
"112 208 OFFCURVE",
"163 277 OFFCURVE",
"234 277 CURVE SMOOTH",
"303 277 OFFCURVE",
"358 216 OFFCURVE",
"358 146 CURVE SMOOTH",
"358 76 OFFCURVE",
"303 12 OFFCURVE",
"235 12 CURVE SMOOTH",
"184 12 OFFCURVE",
"140 31 OFFCURVE",
"104 70 CURVE SMOOTH",
"68 109 OFFCURVE",
"50 155 OFFCURVE",
"50 209 CURVE SMOOTH",
"50 294 OFFCURVE",
"86 366 OFFCURVE",
"158 426 CURVE SMOOTH",
"230 486 OFFCURVE",
"319 516 OFFCURVE",
"424 516 CURVE SMOOTH",
"529 516 OFFCURVE",
"621 484 OFFCURVE",
"698 419 CURVE SMOOTH",
"775 354 OFFCURVE",
"813 276 OFFCURVE",
"813 184 CURVE SMOOTH",
"813 104 OFFCURVE",
"747 37 OFFCURVE",
"668 37 CURVE SMOOTH",
"594 37 OFFCURVE",
"530 88 OFFCURVE",
"530 160 CURVE SMOOTH",
"530 174 OFFCURVE",
"540 198 OFFCURVE",
"561 234 CURVE",
"521 211 OFFCURVE",
"481 167 OFFCURVE",
"481 111 CURVE SMOOTH",
"481 29 OFFCURVE",
"567 -25 OFFCURVE",
"653 -25 CURVE SMOOTH",
"788 -25 LINE",
"788 -74 LINE",
"607 -74 LINE SMOOTH",
"594 -74 OFFCURVE",
"578 -82 OFFCURVE",
"559 -98 CURVE SMOOTH",
"540 -114 OFFCURVE",
"526 -136 OFFCURVE",
"515 -163 CURVE SMOOTH",
"471 -278 OFFCURVE",
"389 -334 OFFCURVE",
"269 -329 CURVE SMOOTH",
"114 -323 OFFCURVE",
"35 -265 OFFCURVE",
"32 -156 CURVE SMOOTH",
"29 -94 OFFCURVE",
"62 -33 OFFCURVE",
"123 -33 CURVE SMOOTH",
"141 -33 OFFCURVE",
"156 -40 OFFCURVE",
"168 -53 CURVE SMOOTH",
"183 -72 OFFCURVE",
"191 -110 OFFCURVE",
"191 -165 CURVE",
"223 -166 OFFCURVE",
"253 -166 OFFCURVE",
"282 -165 CURVE",
"275 -122 OFFCURVE",
"282 -91 OFFCURVE",
"304 -70 CURVE SMOOTH",
"326 -49 OFFCURVE",
"354 -48 OFFCURVE",
"385 -66 CURVE SMOOTH",
"408 -79 OFFCURVE",
"418 -102 OFFCURVE",
"415 -136 CURVE SMOOTH",
"412 -170 OFFCURVE",
"405 -191 OFFCURVE",
"395 -199 CURVE",
"148 -199 LINE",
"158 -143 OFFCURVE",
"154 -106 OFFCURVE",
"136 -88 CURVE SMOOTH",
"118 -70 OFFCURVE",
"103 -69 OFFCURVE",
"89 -86 CURVE SMOOTH",
"75 -103 OFFCURVE",
"70 -132 OFFCURVE",
"73 -174 CURVE SMOOTH",
"78 -245 OFFCURVE",
"143 -283 OFFCURVE",
"267 -290 CURVE SMOOTH",
"358 -295 OFFCURVE",
"427 -253 OFFCURVE",
"466 -161 CURVE SMOOTH",
"489 -106 OFFCURVE",
"515 -68 OFFCURVE",
"554 -49 CURVE"
);
},
{
closed = 1;
nodes = (
"197 221 OFFCURVE",
"173 186 OFFCURVE",
"173 146 CURVE SMOOTH",
"173 106 OFFCURVE",
"197 61 OFFCURVE",
"235 61 CURVE SMOOTH",
"273 61 OFFCURVE",
"296 106 OFFCURVE",
"296 146 CURVE SMOOTH",
"296 186 OFFCURVE",
"273 221 OFFCURVE",
"235 221 CURVE SMOOTH"
);
}
);
width = 1023;
}
);
unicode = 0BD0;
},
{
glyphname = "aytham-tamil";
lastChange = "2018-12-17 06:02:27 +0000";
layers = (
{
layerId = "FDB844D3-6113-4F20-A391-626B83580871";
paths = (
{
closed = 1;
nodes = (
"252 756 OFFCURVE",
"322 826 OFFCURVE",
"402 826 CURVE SMOOTH",
"482 826 OFFCURVE",
"552 758 OFFCURVE",
"552 676 CURVE SMOOTH",
"552 596 OFFCURVE",
"482 526 OFFCURVE",
"402 526 CURVE SMOOTH",
"322 526 OFFCURVE",
"252 596 OFFCURVE",
"252 676 CURVE SMOOTH"
);
},
{
closed = 1;
nodes = (
"328 635 OFFCURVE",
"361 602 OFFCURVE",
"402 602 CURVE SMOOTH",
"443 602 OFFCURVE",
"476 635 OFFCURVE",
"476 676 CURVE SMOOTH",
"476 717 OFFCURVE",
"443 750 OFFCURVE",
"402 750 CURVE SMOOTH",
"361 750 OFFCURVE",
"328 717 OFFCURVE",
"328 676 CURVE SMOOTH"
);
},
{
closed = 1;
nodes = (
"9 229 OFFCURVE",
"77 298 OFFCURVE",
"156 298 CURVE SMOOTH",
"237 298 OFFCURVE",
"303 230 OFFCURVE",
"303 151 CURVE SMOOTH",
"303 72 OFFCURVE",
"236 4 OFFCURVE",
"156 4 CURVE SMOOTH",
"76 4 OFFCURVE",
"9 70 OFFCURVE",
"9 150 CURVE SMOOTH"
);
},
{
closed = 1;
nodes = (
"82 109 OFFCURVE",
"115 77 OFFCURVE",
"156 77 CURVE SMOOTH",
"197 77 OFFCURVE",
"230 110 OFFCURVE",
"230 151 CURVE SMOOTH",
"230 192 OFFCURVE",
"197 224 OFFCURVE",
"156 224 CURVE SMOOTH",
"115 224 OFFCURVE",
"82 191 OFFCURVE",
"82 150 CURVE SMOOTH"
);
},
{
closed = 1;
nodes = (
"504 228 OFFCURVE",
"569 295 OFFCURVE",
"648 295 CURVE SMOOTH",
"725 295 OFFCURVE",
"792 228 OFFCURVE",
"792 151 CURVE SMOOTH",
"792 74 OFFCURVE",
"725 7 OFFCURVE",
"648 7 CURVE SMOOTH",
"571 7 OFFCURVE",
"504 71 OFFCURVE",
"504 150 CURVE SMOOTH"
);
},
{
closed = 1;
nodes = (
"574 109 OFFCURVE",
"607 77 OFFCURVE",
"648 77 CURVE SMOOTH",
"689 77 OFFCURVE",
"722 110 OFFCURVE",
"722 151 CURVE SMOOTH",
"722 192 OFFCURVE",
"689 224 OFFCURVE",
"648 224 CURVE SMOOTH",
"607 224 OFFCURVE",
"574 191 OFFCURVE",
"574 150 CURVE SMOOTH"
);
}
);
width = 803;
}
);
unicode = 0B83;
},
{
glyphname = "ten-tamil";
lastChange = "2018-02-20 19:37:35 +0000";
layers = (
{
layerId = "FDB844D3-6113-4F20-A391-626B83580871";
paths = (
{
closed = 1;
nodes = (
"378 -12 OFFCURVE",
"330 12 OFFCURVE",
"311 49 CURVE",
"277 8 OFFCURVE",
"241 -12 OFFCURVE",
"202 -12 CURVE SMOOTH",
"125 -12 OFFCURVE",
"65 47 OFFCURVE",
"65 123 CURVE SMOOTH",
"65 369 LINE",
"127 369 LINE",
"127 123 LINE SMOOTH",
"127 78 OFFCURVE",
"157 37 OFFCURVE",
"200 37 CURVE SMOOTH",
"243 37 OFFCURVE",
"274 79 OFFCURVE",
"274 123 CURVE SMOOTH",
"274 369 LINE",
"336 369 LINE",
"336 123 LINE",
"351 82 OFFCURVE",
"384 37 OFFCURVE",
"434 37 CURVE SMOOTH",
"505 37 OFFCURVE",
"545 132 OFFCURVE",
"545 209 CURVE SMOOTH",
"545 274 OFFCURVE",
"526 328 OFFCURVE",
"487 374 CURVE SMOOTH",
"448 420 OFFCURVE",
"402 443 OFFCURVE",
"348 443 CURVE SMOOTH",
"188 443 LINE",
"188 492 LINE",
"348 492 LINE SMOOTH",
"419 492 OFFCURVE",
"480 464 OFFCURVE",
"530 409 CURVE SMOOTH",
"580 354 OFFCURVE",
"606 287 OFFCURVE",
"606 209 CURVE SMOOTH",
"606 148 OFFCURVE",
"590 95 OFFCURVE",
"556 52 CURVE SMOOTH",
"522 9 OFFCURVE",
"481 -12 OFFCURVE",
"434 -12 CURVE SMOOTH"
);
}
);
width = 661;
}
);
unicode = 0BF0;
},
{
glyphname = "onehundred-tamil";
lastChange = "2018-02-20 19:37:35 +0000";
layers = (
{
layerId = "FDB844D3-6113-4F20-A391-626B83580871";
paths = (
{
closed = 1;
nodes = (
"89 445 OFFCURVE",
"149 504 OFFCURVE",
"225 504 CURVE SMOOTH",
"264 504 OFFCURVE",
"300 484 OFFCURVE",
"334 443 CURVE",
"353 480 OFFCURVE",
"401 504 OFFCURVE",
"457 504 CURVE SMOOTH",
"679 504 LINE",
"679 449 LINE",
"580 449 LINE",
"580 0 LINE",
"519 0 LINE",
"519 449 LINE",
"457 449 LINE SMOOTH",
"409 449 OFFCURVE",
"373 407 OFFCURVE",
"359 369 CURVE",
"359 0 LINE",
"297 0 LINE",
"297 369 LINE SMOOTH",
"297 414 OFFCURVE",
"267 455 OFFCURVE",
"224 455 CURVE SMOOTH",
"181 455 OFFCURVE",
"150 413 OFFCURVE",
"150 369 CURVE SMOOTH",
"150 0 LINE",
"89 0 LINE",
"89 369 LINE SMOOTH"
);
}
);
width = 684;
}
);
unicode = 0BF1;
},
{
glyphname = "onethousand-tamil";
lastChange = "2018-02-20 19:37:35 +0000";
layers = (
{
layerId = "FDB844D3-6113-4F20-A391-626B83580871";
paths = (
{
closed = 1;
nodes = (
"342 270 LINE",
"342 443 LINE",
"219 443 LINE",
"219 270 LINE"
);
},
{
closed = 1;
nodes = (
"96 94 OFFCURVE",
"160 37 OFFCURVE",
"226 37 CURVE SMOOTH",
"287 37 OFFCURVE",
"342 77 OFFCURVE",
"342 135 CURVE SMOOTH",
"342 221 LINE",
"157 221 LINE SMOOTH",
"123 221 OFFCURVE",
"96 194 OFFCURVE",
"96 160 CURVE SMOOTH"
);
},
{
closed = 1;
nodes = (
"34 222 OFFCURVE",
"94 270 OFFCURVE",
"157 270 CURVE",
"157 492 LINE",
"575 492 LINE",
"575 443 LINE",
"403 443 LINE",
"403 270 LINE",
"649 270 LINE",
"649 221 LINE",
"514 221 LINE",
"514 135 LINE",
"536 160 OFFCURVE",
"565 172 OFFCURVE",
"602 172 CURVE SMOOTH",
"682 172 OFFCURVE",
"735 93 OFFCURVE",
"735 10 CURVE SMOOTH",
"735 -36 OFFCURVE",
"712 -76 OFFCURVE",
"667 -110 CURVE SMOOTH",
"622 -144 OFFCURVE",
"567 -160 OFFCURVE",
"502 -160 CURVE SMOOTH",
"157 -160 LINE SMOOTH",
"98 -160 OFFCURVE",
"59 -221 OFFCURVE",
"59 -283 CURVE",
"10 -283 LINE",
"10 -195 OFFCURVE",
"71 -111 OFFCURVE",
"157 -111 CURVE SMOOTH",
"502 -111 LINE SMOOTH",
"549 -111 OFFCURVE",
"590 -98 OFFCURVE",
"624 -74 CURVE SMOOTH",
"658 -50 OFFCURVE",
"674 -22 OFFCURVE",
"674 10 CURVE SMOOTH",
"674 62 OFFCURVE",
"648 123 OFFCURVE",
"600 123 CURVE SMOOTH",
"556 123 OFFCURVE",
"524 91 OFFCURVE",
"514 55 CURVE",
"514 0 LINE",
"452 0 LINE",
"452 221 LINE",
"403 221 LINE",
"403 135 LINE SMOOTH",
"403 47 OFFCURVE",
"318 -12 OFFCURVE",
"226 -12 CURVE SMOOTH",
"175 -12 OFFCURVE",
"131 4 OFFCURVE",
"92 38 CURVE SMOOTH",
"53 72 OFFCURVE",
"34 113 OFFCURVE",
"34 160 CURVE SMOOTH"
);
}
);
width = 759;
}
);
unicode = 0BF2;
},
{
glyphname = "zero-tamil";
lastChange = "2018-02-20 19:37:35 +0000";
layers = (
{
layerId = "FDB844D3-6113-4F20-A391-626B83580871";
paths = (
{
closed = 1;
nodes = (
"165 607 OFFCURVE",
"222 639 OFFCURVE",
"293 639 CURVE SMOOTH",
"364 639 OFFCURVE",
"420 607 OFFCURVE",
"462 544 CURVE SMOOTH",
"504 481 OFFCURVE",
"525 408 OFFCURVE",
"525 322 CURVE SMOOTH",
"525 236 OFFCURVE",
"504 160 OFFCURVE",
"463 96 CURVE SMOOTH",
"422 32 OFFCURVE",
"365 0 OFFCURVE",
"293 0 CURVE SMOOTH",
"221 0 OFFCURVE",
"164 32 OFFCURVE",
"122 96 CURVE SMOOTH",
"80 160 OFFCURVE",
"60 236 OFFCURVE",
"60 322 CURVE SMOOTH",
"60 408 OFFCURVE",
"81 481 OFFCURVE",
"123 544 CURVE SMOOTH"
);
},
{
closed = 1;
nodes = (
"196 91 OFFCURVE",
"237 65 OFFCURVE",
"292 65 CURVE SMOOTH",
"347 65 OFFCURVE",
"389 91 OFFCURVE",
"418 142 CURVE SMOOTH",
"447 193 OFFCURVE",
"461 254 OFFCURVE",
"461 322 CURVE SMOOTH",
"461 390 OFFCURVE",
"447 449 OFFCURVE",
"418 499 CURVE SMOOTH",
"389 549 OFFCURVE",
"347 574 OFFCURVE",
"293 574 CURVE SMOOTH",
"239 574 OFFCURVE",
"197 549 OFFCURVE",
"168 499 CURVE SMOOTH",
"139 449 OFFCURVE",
"125 390 OFFCURVE",
"125 322 CURVE SMOOTH",
"125 254 OFFCURVE",
"140 193 OFFCURVE",
"168 142 CURVE SMOOTH"
);
}
);
width = 585;
}
);
unicode = 0BE6;
},
{
glyphname = "one-tamil";
lastChange = "2018-02-20 19:37:35 +0000";
layers = (
{
layerId = "FDB844D3-6113-4F20-A391-626B83580871";
paths = (
{
closed = 1;
nodes = (
"369 443 LINE",
"246 443 LINE",
"246 270 LINE",
"369 270 LINE"
);
},
{
closed = 1;
nodes = (
"123 94 OFFCURVE",
"186 37 OFFCURVE",
"252 37 CURVE SMOOTH",
"313 37 OFFCURVE",
"369 77 OFFCURVE",
"369 135 CURVE SMOOTH",
"369 221 LINE",
"184 221 LINE SMOOTH",
"150 221 OFFCURVE",
"123 194 OFFCURVE",
"123 160 CURVE SMOOTH"
);
},
{
closed = 1;
nodes = (
"639 60 OFFCURVE",
"587 -12 OFFCURVE",
"516 -12 CURVE SMOOTH",
"498 -12 OFFCURVE",
"478 -8 OFFCURVE",
"455 0 CURVE",
"467 49 LINE",
"503 30 OFFCURVE",
"539 32 OFFCURVE",
"560 66 CURVE SMOOTH",
"572 85 OFFCURVE",
"578 108 OFFCURVE",
"578 133 CURVE SMOOTH",
"578 179 OFFCURVE",
"548 221 OFFCURVE",
"504 221 CURVE SMOOTH",
"430 221 LINE",
"430 135 LINE SMOOTH",
"430 47 OFFCURVE",
"345 -12 OFFCURVE",
"253 -12 CURVE SMOOTH",
"202 -12 OFFCURVE",
"158 4 OFFCURVE",
"119 38 CURVE SMOOTH",
"80 72 OFFCURVE",
"61 113 OFFCURVE",
"61 160 CURVE SMOOTH",
"61 222 OFFCURVE",
"121 270 OFFCURVE",
"184 270 CURVE",
"184 492 LINE",
"565 492 LINE",
"565 443 LINE",
"430 443 LINE",
"430 270 LINE",
"504 270 LINE SMOOTH",
"581 270 OFFCURVE",
"639 210 OFFCURVE",
"639 133 CURVE SMOOTH"
);
}
);
width = 700;
}
);
unicode = 0BE7;
},
{
glyphname = "two-tamil";
lastChange = "2018-02-20 19:37:35 +0000";
layers = (
{
layerId = "FDB844D3-6113-4F20-A391-626B83580871";
paths = (
{
closed = 1;
nodes = (
"111 310 OFFCURVE",
"136 283 OFFCURVE",
"172 283 CURVE SMOOTH",
"208 283 OFFCURVE",
"234 309 OFFCURVE",
"234 346 CURVE SMOOTH",
"234 382 OFFCURVE",
"208 418 OFFCURVE",
"172 418 CURVE SMOOTH",
"136 418 OFFCURVE",
"111 382 OFFCURVE",
"111 346 CURVE SMOOTH"
);
},
{
closed = 1;
nodes = (
"107 234 OFFCURVE",
"61 294 OFFCURVE",
"61 362 CURVE SMOOTH",
"61 399 OFFCURVE",
"81 431 OFFCURVE",
"122 460 CURVE SMOOTH",
"163 489 OFFCURVE",
"215 504 OFFCURVE",
"278 504 CURVE SMOOTH",
"341 504 OFFCURVE",
"396 485 OFFCURVE",
"444 446 CURVE SMOOTH",
"492 407 OFFCURVE",
"516 362 OFFCURVE",
"516 310 CURVE SMOOTH",
"516 202 OFFCURVE",
"416 123 OFFCURVE",
"307 123 CURVE SMOOTH",
"172 123 LINE SMOOTH",
"148 123 OFFCURVE",
"123 109 OFFCURVE",
"123 86 CURVE SMOOTH",
"123 63 OFFCURVE",
"148 49 OFFCURVE",
"172 49 CURVE SMOOTH",
"664 49 LINE",
"664 0 LINE",
"172 0 LINE SMOOTH",
"118 0 OFFCURVE",
"61 34 OFFCURVE",
"61 86 CURVE SMOOTH",
"61 138 OFFCURVE",
"118 172 OFFCURVE",
"172 172 CURVE SMOOTH",
"307 172 LINE SMOOTH",
"386 172 OFFCURVE",
"455 231 OFFCURVE",
"455 310 CURVE SMOOTH",
"455 349 OFFCURVE",
"437 383 OFFCURVE",
"401 412 CURVE SMOOTH",
"365 441 OFFCURVE",
"321 455 OFFCURVE",
"270 455 CURVE SMOOTH",
"197 455 LINE",
"243 438 OFFCURVE",
"283 399 OFFCURVE",
"283 340 CURVE SMOOTH",
"283 284 OFFCURVE",
"229 234 OFFCURVE",
"172 234 CURVE SMOOTH"
);
}
);
width = 725;
}
);
unicode = 0BE8;
},
{
glyphname = "three-tamil";
lastChange = "2018-02-20 19:37:35 +0000";
layers = (
{
layerId = "FDB844D3-6113-4F20-A391-626B83580871";
paths = (
{
closed = 1;
nodes = (
"516 210 OFFCURVE",
"472 246 OFFCURVE",
"417 246 CURVE SMOOTH",
"389 246 OFFCURVE",
"360 230 OFFCURVE",
"332 197 CURVE",
"332 98 LINE",
"270 98 LINE",
"270 443 LINE",
"123 443 LINE",
"123 0 LINE",
"61 0 LINE",
"61 492 LINE",
"504 492 LINE",
"504 443 LINE",
"332 443 LINE",
"332 264 LINE",
"357 289 OFFCURVE",
"388 301 OFFCURVE",
"426 301 CURVE SMOOTH",
"464 301 OFFCURVE",
"500 287 OFFCURVE",
"531 260 CURVE SMOOTH",
"562 233 OFFCURVE",
"578 197 OFFCURVE",
"578 155 CURVE SMOOTH",
"578 113 OFFCURVE",
"562 77 OFFCURVE",
"529 49 CURVE",
"719 49 LINE",
"719 0 LINE",
"270 0 LINE",
"270 49 LINE",
"406 49 LINE SMOOTH",
"463 49 OFFCURVE",
"516 99 OFFCURVE",
"516 155 CURVE SMOOTH"
);
}
);
width = 780;
}
);
unicode = 0BE9;
},
{
glyphname = "four-tamil";
lastChange = "2018-02-20 19:37:35 +0000";
layers = (
{
layerId = "FDB844D3-6113-4F20-A391-626B83580871";
paths = (
{
closed = 1;
nodes = (
"369 443 LINE",
"246 443 LINE",
"246 270 LINE",
"369 270 LINE"
);
},
{
closed = 1;
nodes = (
"123 94 OFFCURVE",
"186 37 OFFCURVE",
"252 37 CURVE SMOOTH",
"313 37 OFFCURVE",
"369 77 OFFCURVE",
"369 135 CURVE SMOOTH",
"369 221 LINE",
"184 221 LINE SMOOTH",
"150 221 OFFCURVE",
"123 194 OFFCURVE",
"123 160 CURVE SMOOTH"
);
},
{
closed = 1;
nodes = (
"61 222 OFFCURVE",
"121 270 OFFCURVE",
"184 270 CURVE",
"184 492 LINE",
"578 492 LINE",
"578 443 LINE",
"430 443 LINE",
"430 270 LINE",
"541 270 LINE",
"541 332 LINE",
"602 332 LINE",
"602 221 LINE",
"430 221 LINE",
"430 135 LINE SMOOTH",
"430 47 OFFCURVE",
"345 -12 OFFCURVE",
"253 -12 CURVE SMOOTH",
"202 -12 OFFCURVE",
"158 4 OFFCURVE",
"119 38 CURVE SMOOTH",
"80 72 OFFCURVE",
"61 113 OFFCURVE",
"61 160 CURVE SMOOTH"
);
}
);
width = 663;
}
);
unicode = 0BEA;
},
{
glyphname = "five-tamil";
lastChange = "2018-02-20 19:37:35 +0000";
layers = (
{
layerId = "FDB844D3-6113-4F20-A391-626B83580871";
paths = (
{
closed = 1;
nodes = (
"774 191 OFFCURVE",
"726 258 OFFCURVE",
"662 258 CURVE SMOOTH",
"633 258 OFFCURVE",
"605 242 OFFCURVE",
"578 209 CURVE",
"578 0 LINE",
"516 0 LINE",
"516 443 LINE",
"369 443 LINE",
"369 0 LINE",
"307 0 LINE",
"307 492 LINE",
"676 492 LINE",
"676 443 LINE",
"578 443 LINE",
"578 270 LINE",
"592 293 OFFCURVE",
"626 307 OFFCURVE",
"664 307 CURVE SMOOTH",
"760 307 OFFCURVE",
"836 221 OFFCURVE",
"836 123 CURVE SMOOTH",
"836 14 OFFCURVE",
"798 -78 OFFCURVE",
"721 -155 CURVE SMOOTH",
"644 -232 OFFCURVE",
"553 -270 OFFCURVE",
"446 -270 CURVE SMOOTH",
"339 -270 OFFCURVE",
"249 -223 OFFCURVE",
"174 -128 CURVE SMOOTH",
"99 -33 OFFCURVE",
"61 83 OFFCURVE",
"61 222 CURVE SMOOTH",
"61 361 OFFCURVE",
"102 482 OFFCURVE",
"184 584 CURVE SMOOTH",
"266 686 OFFCURVE",
"364 738 OFFCURVE",
"479 738 CURVE SMOOTH",
"574 738 OFFCURVE",
"656 706 OFFCURVE",
"723 644 CURVE SMOOTH",
"790 582 OFFCURVE",
"824 507 OFFCURVE",
"824 418 CURVE",
"762 418 LINE",
"762 493 OFFCURVE",
"734 556 OFFCURVE",
"679 609 CURVE SMOOTH",
"624 662 OFFCURVE",
"557 688 OFFCURVE",
"479 688 CURVE SMOOTH",
"379 688 OFFCURVE",
"294 642 OFFCURVE",
"223 550 CURVE SMOOTH",
"152 458 OFFCURVE",
"117 348 OFFCURVE",
"117 222 CURVE SMOOTH",
"117 96 OFFCURVE",
"149 -9 OFFCURVE",
"212 -94 CURVE SMOOTH",
"275 -179 OFFCURVE",
"353 -221 OFFCURVE",
"444 -221 CURVE SMOOTH",
"535 -221 OFFCURVE",
"614 -187 OFFCURVE",
"678 -120 CURVE SMOOTH",
"742 -53 OFFCURVE",
"774 28 OFFCURVE",
"774 123 CURVE SMOOTH"
);
}
);
width = 897;
}
);
unicode = 0BEB;
},
{
glyphname = "six-tamil";
lastChange = "2018-02-20 19:37:35 +0000";
layers = (
{
layerId = "FDB844D3-6113-4F20-A391-626B83580871";
paths = (
{
closed = 1;
nodes = (
"369 270 LINE",
"369 443 LINE",
"246 443 LINE",
"246 270 LINE"
);
},
{
closed = 1;
nodes = (
"123 94 OFFCURVE",
"186 37 OFFCURVE",
"252 37 CURVE SMOOTH",
"313 37 OFFCURVE",
"369 77 OFFCURVE",
"369 135 CURVE SMOOTH",
"369 221 LINE",
"184 221 LINE SMOOTH",
"150 221 OFFCURVE",
"123 194 OFFCURVE",
"123 160 CURVE SMOOTH"
);
},
{
closed = 1;
nodes = (
"61 222 OFFCURVE",
"121 270 OFFCURVE",
"184 270 CURVE",
"184 492 LINE",
"602 492 LINE",
"602 443 LINE",
"430 443 LINE",
"430 270 LINE",
"768 270 LINE",
"768 221 LINE",
"701 221 LINE",
"701 0 LINE",
"639 0 LINE",
"639 221 LINE",
"565 221 LINE",
"565 0 LINE",
"504 0 LINE",
"504 221 LINE",
"430 221 LINE",
"430 135 LINE SMOOTH",
"430 47 OFFCURVE",
"345 -12 OFFCURVE",
"253 -12 CURVE SMOOTH",
"202 -12 OFFCURVE",
"158 4 OFFCURVE",
"119 38 CURVE SMOOTH",
"80 72 OFFCURVE",
"61 113 OFFCURVE",
"61 160 CURVE SMOOTH"
);
}
);
width = 829;
}
);
unicode = 0BEC;
},
{
glyphname = "seven-tamil";
lastChange = "2018-02-20 19:37:35 +0000";
layers = (
{
layerId = "FDB844D3-6113-4F20-A391-626B83580871";
paths = (
{
closed = 1;
nodes = (
"221 86 OFFCURVE",
"250 37 OFFCURVE",
"295 37 CURVE SMOOTH",
"339 37 OFFCURVE",
"369 87 OFFCURVE",
"369 133 CURVE SMOOTH",
"369 179 OFFCURVE",
"339 221 OFFCURVE",
"295 221 CURVE SMOOTH",
"250 221 OFFCURVE",
"221 179 OFFCURVE",
"221 132 CURVE SMOOTH"
);
},
{
closed = 1;
nodes = (
"430 51 OFFCURVE",
"354 -12 OFFCURVE",
"270 -12 CURVE SMOOTH",
"213 -12 OFFCURVE",
"163 11 OFFCURVE",
"122 56 CURVE SMOOTH",
"81 101 OFFCURVE",
"61 158 OFFCURVE",
"61 228 CURVE SMOOTH",
"61 298 OFFCURVE",
"86 359 OFFCURVE",
"137 412 CURVE SMOOTH",
"188 465 OFFCURVE",
"249 492 OFFCURVE",
"320 492 CURVE SMOOTH",
"707 492 LINE",
"707 443 LINE",
"627 443 LINE",
"627 0 LINE",
"565 0 LINE",
"565 443 LINE",
"320 443 LINE SMOOTH",
"263 443 OFFCURVE",
"213 421 OFFCURVE",
"172 378 CURVE SMOOTH",
"131 335 OFFCURVE",
"111 282 OFFCURVE",
"111 221 CURVE SMOOTH",
"111 141 OFFCURVE",
"155 80 OFFCURVE",
"209 49 CURVE",
"184 78 OFFCURVE",
"172 109 OFFCURVE",
"172 142 CURVE SMOOTH",
"172 210 OFFCURVE",
"229 270 OFFCURVE",
"298 270 CURVE SMOOTH",
"372 270 OFFCURVE",
"430 208 OFFCURVE",
"430 133 CURVE SMOOTH"
);
}
);
width = 768;
}
);
unicode = 0BED;
},
{
glyphname = "eight-tamil";
lastChange = "2018-02-20 19:37:35 +0000";
layers = (
{
layerId = "FDB844D3-6113-4F20-A391-626B83580871";
paths = (
{
closed = 1;
nodes = (
"294 202 OFFCURVE",
"264 253 OFFCURVE",
"264 313 CURVE SMOOTH",
"264 366 OFFCURVE",
"289 411 OFFCURVE",
"338 448 CURVE SMOOTH",
"387 485 OFFCURVE",
"448 504 OFFCURVE",
"522 504 CURVE SMOOTH",
"596 504 OFFCURVE",
"661 480 OFFCURVE",
"716 432 CURVE SMOOTH",
"771 384 OFFCURVE",
"799 326 OFFCURVE",
"799 258 CURVE SMOOTH",
"799 233 OFFCURVE",
"795 208 OFFCURVE",
"787 184 CURVE",
"897 184 LINE",
"897 492 LINE",
"959 492 LINE",
"959 -61 LINE",
"897 -61 LINE",
"897 135 LINE",
"774 135 LINE",
"727 9 OFFCURVE",
"593 -86 OFFCURVE",
"424 -86 CURVE SMOOTH",
"309 -86 OFFCURVE",
"213 -53 OFFCURVE",
"135 12 CURVE SMOOTH",
"86 53 OFFCURVE",
"61 90 OFFCURVE",
"61 123 CURVE SMOOTH",
"61 160 OFFCURVE",
"97 184 OFFCURVE",
"135 184 CURVE SMOOTH",
"338 186 LINE"
);
},
{
closed = 1;
nodes = (
"320 240 OFFCURVE",
"386 184 OFFCURVE",
"460 184 CURVE SMOOTH",
"534 184 OFFCURVE",
"596 237 OFFCURVE",
"596 310 CURVE SMOOTH",
"596 383 OFFCURVE",
"534 443 OFFCURVE",
"460 443 CURVE SMOOTH",
"386 443 OFFCURVE",
"320 386 OFFCURVE",
"320 313 CURVE SMOOTH"
);
},
{
closed = 1;
nodes = (
"136 135 OFFCURVE",
"123 123 OFFCURVE",
"123 112 CURVE SMOOTH",
"123 102 OFFCURVE",
"131 89 OFFCURVE",
"148 74 CURVE SMOOTH",
"210 12 OFFCURVE",
"303 -37 OFFCURVE",
"418 -37 CURVE SMOOTH",
"556 -37 OFFCURVE",
"676 34 OFFCURVE",
"713 135 CURVE",
"148 135 LINE SMOOTH"
);
},
{
closed = 1;
nodes = (
"604 435 OFFCURVE",
"652 379 OFFCURVE",
"652 310 CURVE SMOOTH",
"652 253 OFFCURVE",
"631 212 OFFCURVE",
"590 184 CURVE",
"725 184 LINE",
"734 209 OFFCURVE",
"738 233 OFFCURVE",
"738 258 CURVE SMOOTH",
"738 367 OFFCURVE",
"655 451 OFFCURVE",
"559 467 CURVE"
);
}
);
width = 1020;
}
);
unicode = 0BEE;
},
{
glyphname = "nine-tamil";
lastChange = "2018-02-20 19:37:35 +0000";
layers = (
{
layerId = "FDB844D3-6113-4F20-A391-626B83580871";
paths = (
{
closed = 1;
nodes = (
"369 443 LINE",
"246 443 LINE",
"246 270 LINE",
"369 270 LINE"
);
},
{
closed = 1;
nodes = (
"123 98 OFFCURVE",
"189 49 OFFCURVE",
"252 49 CURVE SMOOTH",
"310 49 OFFCURVE",
"369 81 OFFCURVE",
"369 135 CURVE SMOOTH",
"369 221 LINE",
"184 221 LINE SMOOTH",
"150 221 OFFCURVE",
"123 194 OFFCURVE",
"123 160 CURVE SMOOTH"
);
},
{
closed = 1;
nodes = (
"635 37 OFFCURVE",
"652 85 OFFCURVE",
"652 121 CURVE SMOOTH",
"652 171 OFFCURVE",
"617 207 OFFCURVE",
"578 221 CURVE",
"561 192 OFFCURVE",
"553 162 OFFCURVE",
"553 132 CURVE SMOOTH",
"553 88 OFFCURVE",
"565 37 OFFCURVE",
"602 37 CURVE SMOOTH"
);
},
{
closed = 1;
nodes = (
"540 -12 OFFCURVE",
"504 57 OFFCURVE",
"504 123 CURVE SMOOTH",
"504 161 OFFCURVE",
"512 194 OFFCURVE",
"529 221 CURVE",
"430 221 LINE",
"430 135 LINE SMOOTH",
"430 47 OFFCURVE",
"345 -12 OFFCURVE",
"253 -12 CURVE SMOOTH",
"202 -12 OFFCURVE",
"158 4 OFFCURVE",
"119 38 CURVE SMOOTH",
"80 72 OFFCURVE",
"61 113 OFFCURVE",
"61 160 CURVE SMOOTH",
"61 222 OFFCURVE",
"121 270 OFFCURVE",
"184 270 CURVE",
"184 492 LINE",
"547 492 LINE",
"547 443 LINE",
"430 443 LINE",
"430 270 LINE",
"553 270 LINE",
"583 311 OFFCURVE",
"638 344 OFFCURVE",
"707 344 CURVE SMOOTH",
"803 344 OFFCURVE",
"885 267 OFFCURVE",
"885 172 CURVE SMOOTH",
"885 108 OFFCURVE",
"865 50 OFFCURVE",
"824 0 CURVE",
"756 0 LINE",
"801 54 OFFCURVE",
"824 111 OFFCURVE",
"824 172 CURVE SMOOTH",
"824 237 OFFCURVE",
"771 295 OFFCURVE",
"707 295 CURVE SMOOTH",
"663 295 OFFCURVE",
"630 283 OFFCURVE",
"608 258 CURVE",
"661 239 OFFCURVE",
"701 188 OFFCURVE",
"701 117 CURVE SMOOTH",
"701 56 OFFCURVE",
"661 -12 OFFCURVE",
"602 -12 CURVE SMOOTH"
);
}
);
width = 946;
}
);
unicode = 0BEF;
},
{
glyphname = period;
lastChange = "2018-12-17 06:54:52 +0000";
layers = (
{
layerId = "FDB844D3-6113-4F20-A391-626B83580871";
paths = (
{
closed = 1;
nodes = (
"352 -9 OFFCURVE",
"379 18 OFFCURVE",
"379 52 CURVE SMOOTH",
"379 86 OFFCURVE",
"352 113 OFFCURVE",
"318 113 CURVE SMOOTH",
"284 113 OFFCURVE",
"257 86 OFFCURVE",
"257 52 CURVE SMOOTH",
"257 18 OFFCURVE",
"284 -9 OFFCURVE",
"318 -9 CURVE SMOOTH"
);
}
);
width = 600;
}
);
unicode = 002E;
},
{
color = 3;
glyphname = "kunddaliya-sinhala";
lastChange = "2018-12-17 06:01:13 +0000";
layers = (
{
layerId = "FDB844D3-6113-4F20-A391-626B83580871";
paths = (
{
closed = 1;
nodes = (
"1078 -5 OFFCURVE",
"1033 55 OFFCURVE",
"1025 128 CURVE",
"990 94 OFFCURVE",
"963 65 OFFCURVE",
"944 42 CURVE",
"896 58 LINE",
"907 132 OFFCURVE",
"915 181 OFFCURVE",
"920 204 CURVE",
"874 158 OFFCURVE",
"843 125 OFFCURVE",
"826 105 CURVE",
"780 123 LINE",
"796 313 LINE",
"752 251 OFFCURVE",
"715 195 OFFCURVE",
"686 145 CURVE",
"648 156 LINE",
"634 335 LINE",
"592 247 OFFCURVE",
"559 172 OFFCURVE",
"537 110 CURVE",
"489 124 LINE",
"478 173 OFFCURVE",
"467 222 OFFCURVE",
"456 270 CURVE",
"435 228 OFFCURVE",
"405 157 OFFCURVE",
"367 58 CURVE",
"323 68 LINE",
"323 73 OFFCURVE",
"319 93 OFFCURVE",
"311 128 CURVE SMOOTH",
"305 155 LINE",
"261 52 OFFCURVE",
"207 0 OFFCURVE",
"143 0 CURVE SMOOTH",
"80 0 OFFCURVE",
"40 34 OFFCURVE",
"22 102 CURVE",
"92 123 LINE",
"99 88 OFFCURVE",
"116 70 OFFCURVE",
"143 70 CURVE SMOOTH",
"159 70 OFFCURVE",
"174 74 OFFCURVE",
"188 84 CURVE SMOOTH",
"220 106 OFFCURVE",
"252 170 OFFCURVE",
"285 273 CURVE",
"331 268 LINE",
"338 225 OFFCURVE",
"345 192 OFFCURVE",
"352 171 CURVE",
"358 188 OFFCURVE",
"390 266 OFFCURVE",
"447 404 CURVE",
"495 393 LINE",
"498 360 OFFCURVE",
"507 308 OFFCURVE",
"522 237 CURVE",
"560 321 OFFCURVE",
"599 397 OFFCURVE",
"639 463 CURVE",
"688 451 LINE",
"690 397 OFFCURVE",
"694 334 OFFCURVE",
"699 262 CURVE",
"752 341 OFFCURVE",
"796 399 OFFCURVE",
"829 434 CURVE",
"875 421 LINE",
"864 335 OFFCURVE",
"856 265 OFFCURVE",
"851 212 CURVE",
"909 272 OFFCURVE",
"947 309 OFFCURVE",
"965 325 CURVE",
"1006 310 LINE",
"994 264 OFFCURVE",
"982 207 OFFCURVE",
"971 140 CURVE",
"994 165 OFFCURVE",
"1018 190 OFFCURVE",
"1045 214 CURVE",
"1086 199 LINE",
"1087 147 OFFCURVE",
"1093 112 OFFCURVE",
"1103 92 CURVE SMOOTH",
"1113 72 OFFCURVE",
"1129 62 OFFCURVE",
"1151 62 CURVE SMOOTH",
"1180 62 OFFCURVE",
"1195 77 OFFCURVE",
"1195 108 CURVE SMOOTH",
"1195 117 OFFCURVE",
"1194 126 OFFCURVE",
"1192 134 CURVE",
"1262 145 LINE",
"1265 130 OFFCURVE",
"1267 115 OFFCURVE",
"1267 100 CURVE SMOOTH",
"1267 34 OFFCURVE",
"1222 -5 OFFCURVE",
"1155 -5 CURVE SMOOTH"
);
}
);
width = 1293;
}
);
unicode = 0DF4;
},
{
glyphname = .notdef;
lastChange = "2018-02-20 19:37:35 +0000";
layers = (
{
layerId = "FDB844D3-6113-4F20-A391-626B83580871";
paths = (
{
closed = 1;
nodes = (
"517 731 LINE",
"517 0 LINE",
"96 0 LINE",
"96 731 LINE"
);
},
{
closed = 1;
nodes = (
"465 52 LINE",
"465 679 LINE",
"148 679 LINE",
"148 52 LINE"
);
}
);
width = 614;
}
);
},
{
glyphname = colonsign;
lastChange = "2018-02-20 19:37:35 +0000";
layers = (
{
layerId = "FDB844D3-6113-4F20-A391-626B83580871";
paths = (
{
closed = 1;
nodes = (
"521 65 OFFCURVE",
"466 19 OFFCURVE",
"394 0 CURVE",
"394 -123 LINE",
"340 -123 LINE",
"340 -9 LINE",
"313 -10 LINE SMOOTH",
"301 -10 OFFCURVE",
"290 -9 OFFCURVE",
"279 -8 CURVE",
"279 -123 LINE",
"224 -123 LINE",
"224 3 LINE",
"169 19 OFFCURVE",
"123 52 OFFCURVE",
"86 104 CURVE SMOOTH",
"53 150 OFFCURVE",
"36 205 OFFCURVE",
"36 268 CURVE SMOOTH",
"36 364 OFFCURVE",
"73 438 OFFCURVE",
"146 492 CURVE SMOOTH",
"169 509 OFFCURVE",
"195 522 OFFCURVE",
"224 531 CURVE",
"224 660 LINE",
"279 660 LINE",
"279 543 LINE",
"290 544 OFFCURVE",
"301 545 OFFCURVE",
"312 545 CURVE SMOOTH",
"340 544 LINE",
"340 660 LINE",
"394 660 LINE",
"394 534 LINE",
"463 514 OFFCURVE",
"514 473 OFFCURVE",
"546 412 CURVE",
"436 377 LINE",
"414 416 OFFCURVE",
"371 449 OFFCURVE",
"314 449 CURVE SMOOTH",
"260 449 OFFCURVE",
"224 428 OFFCURVE",
"198 398 CURVE SMOOTH",
"168 364 OFFCURVE",
"152 321 OFFCURVE",
"152 268 CURVE SMOOTH",
"152 173 OFFCURVE",
"218 86 OFFCURVE",
"311 86 CURVE SMOOTH",
"365 86 OFFCURVE",
"421 113 OFFCURVE",
"439 160 CURVE",
"549 127 LINE"
);
}
);
width = 577;
}
);
unicode = 20A1;
},
{
glyphname = "rupee-tamil";
lastChange = "2018-02-20 19:37:35 +0000";
layers = (
{
layerId = "FDB844D3-6113-4F20-A391-626B83580871";
paths = (
{
closed = 1;
nodes = (
"789 191 OFFCURVE",
"741 258 OFFCURVE",
"677 258 CURVE SMOOTH",
"648 258 OFFCURVE",
"620 242 OFFCURVE",
"593 209 CURVE",
"593 0 LINE",
"531 0 LINE",
"531 443 LINE",
"384 443 LINE",
"384 0 LINE",
"322 0 LINE",
"322 492 LINE",
"691 492 LINE",
"691 443 LINE",
"593 443 LINE",
"593 270 LINE",
"607 293 OFFCURVE",
"641 307 OFFCURVE",
"679 307 CURVE SMOOTH",
"775 307 OFFCURVE",
"851 221 OFFCURVE",
"851 123 CURVE SMOOTH",
"851 14 OFFCURVE",
"813 -78 OFFCURVE",
"736 -155 CURVE SMOOTH",
"659 -232 OFFCURVE",
"567 -270 OFFCURVE",
"460 -270 CURVE SMOOTH",
"353 -270 OFFCURVE",
"263 -223 OFFCURVE",
"188 -128 CURVE SMOOTH",
"113 -33 OFFCURVE",
"76 83 OFFCURVE",
"76 222 CURVE SMOOTH",
"76 361 OFFCURVE",
"116 482 OFFCURVE",
"198 584 CURVE SMOOTH",
"280 686 OFFCURVE",
"379 738 OFFCURVE",
"494 738 CURVE SMOOTH",
"570 738 OFFCURVE",
"640 715 OFFCURVE",
"703 670 CURVE SMOOTH",
"766 625 OFFCURVE",
"811 565 OFFCURVE",
"838 492 CURVE",
"860 548 OFFCURVE",
"916 590 OFFCURVE",
"992 590 CURVE SMOOTH",
"1062 590 OFFCURVE",
"1133 536 OFFCURVE",
"1133 467 CURVE",
"1232 467 LINE",
"1232 418 LINE",
"1084 418 LINE",
"1084 481 OFFCURVE",
"1043 541 OFFCURVE",
"981 541 CURVE SMOOTH",
"951 541 OFFCURVE",
"924 527 OFFCURVE",
"900 498 CURVE SMOOTH",
"876 469 OFFCURVE",
"863 434 OFFCURVE",
"863 393 CURVE",
"801 393 LINE",
"801 474 OFFCURVE",
"772 544 OFFCURVE",
"712 602 CURVE SMOOTH",
"652 660 OFFCURVE",
"579 688 OFFCURVE",
"494 688 CURVE SMOOTH",
"394 688 OFFCURVE",
"309 642 OFFCURVE",
"238 550 CURVE SMOOTH",
"167 458 OFFCURVE",
"132 348 OFFCURVE",
"132 222 CURVE SMOOTH",
"132 96 OFFCURVE",
"164 -9 OFFCURVE",
"227 -94 CURVE SMOOTH",
"290 -179 OFFCURVE",
"367 -221 OFFCURVE",
"458 -221 CURVE SMOOTH",
"549 -221 OFFCURVE",
"627 -187 OFFCURVE",
"692 -120 CURVE SMOOTH",
"757 -53 OFFCURVE",
"789 28 OFFCURVE",
"789 123 CURVE SMOOTH"
);
}
);
width = 1231;
}
);
unicode = 0BF9;
},
{
glyphname = bulletoperator;
lastChange = "2018-02-20 19:37:35 +0000";
layers = (
{
layerId = "FDB844D3-6113-4F20-A391-626B83580871";
paths = (
{
closed = 1;
nodes = (
"62 389 LINE",
"156 389 LINE",
"156 249 LINE",
"62 249 LINE"
);
}
);
width = 218;
}
);
unicode = 2219;
},
{
glyphname = divisionslash;
lastChange = "2018-02-20 19:37:35 +0000";
layers = (
{
layerId = "FDB844D3-6113-4F20-A391-626B83580871";
paths = (
{
closed = 1;
nodes = (
"570 733 LINE",
"636 679 LINE",
"53 -6 LINE",
"-12 48 LINE"
);
}
);
width = 623;
}
);
unicode = 2215;
},
{
glyphname = dottedCircle;
lastChange = "2018-02-20 19:37:35 +0000";
layers = (
{
layerId = "FDB844D3-6113-4F20-A391-626B83580871";
paths = (
{
closed = 1;
nodes = (
"293 484 OFFCURVE",
"281 497 OFFCURVE",
"281 522 CURVE SMOOTH",
"281 547 OFFCURVE",
"293 559 OFFCURVE",
"318 559 CURVE SMOOTH",
"343 559 OFFCURVE",
"355 547 OFFCURVE",
"355 522 CURVE SMOOTH",
"355 497 OFFCURVE",
"343 484 OFFCURVE",
"318 484 CURVE SMOOTH"
);
},
{
closed = 1;
nodes = (
"127 420 OFFCURVE",
"115 433 OFFCURVE",
"115 458 CURVE SMOOTH",
"115 483 OFFCURVE",
"127 495 OFFCURVE",
"152 495 CURVE SMOOTH",
"177 495 OFFCURVE",
"190 483 OFFCURVE",
"190 458 CURVE SMOOTH",
"190 433 OFFCURVE",
"177 420 OFFCURVE",
"152 420 CURVE SMOOTH"
);
},
{
closed = 1;
nodes = (
"459 420 OFFCURVE",
"447 433 OFFCURVE",
"447 458 CURVE SMOOTH",
"447 483 OFFCURVE",
"459 495 OFFCURVE",
"484 495 CURVE SMOOTH",
"509 495 OFFCURVE",
"521 483 OFFCURVE",
"521 458 CURVE SMOOTH",
"521 433 OFFCURVE",
"509 420 OFFCURVE",
"484 420 CURVE SMOOTH"
);
},
{
closed = 1;
nodes = (
"516 260 OFFCURVE",
"504 272 OFFCURVE",
"504 297 CURVE SMOOTH",
"504 322 OFFCURVE",
"516 334 OFFCURVE",
"541 334 CURVE SMOOTH",
"566 334 OFFCURVE",
"578 322 OFFCURVE",
"578 297 CURVE SMOOTH",
"578 272 OFFCURVE",
"566 260 OFFCURVE",
"541 260 CURVE SMOOTH"
);
},
{
closed = 1;
nodes = (
"70 260 OFFCURVE",
"58 272 OFFCURVE",
"58 297 CURVE SMOOTH",
"58 322 OFFCURVE",
"70 334 OFFCURVE",
"95 334 CURVE SMOOTH",
"120 334 OFFCURVE",
"132 322 OFFCURVE",
"132 297 CURVE SMOOTH",
"132 272 OFFCURVE",
"120 260 OFFCURVE",
"95 260 CURVE SMOOTH"
);
},
{
closed = 1;
nodes = (
"127 98 OFFCURVE",
"115 111 OFFCURVE",
"115 136 CURVE SMOOTH",
"115 161 OFFCURVE",
"127 173 OFFCURVE",
"152 173 CURVE SMOOTH",
"177 173 OFFCURVE",
"190 161 OFFCURVE",
"190 136 CURVE SMOOTH",
"190 111 OFFCURVE",
"177 98 OFFCURVE",
"152 98 CURVE SMOOTH"
);
},
{
closed = 1;
nodes = (
"459 98 OFFCURVE",
"447 111 OFFCURVE",
"447 136 CURVE SMOOTH",
"447 161 OFFCURVE",
"459 173 OFFCURVE",
"484 173 CURVE SMOOTH",
"509 173 OFFCURVE",
"521 161 OFFCURVE",
"521 136 CURVE SMOOTH",
"521 111 OFFCURVE",
"509 98 OFFCURVE",
"484 98 CURVE SMOOTH"
);
},
{
closed = 1;
nodes = (
"293 35 OFFCURVE",
"281 47 OFFCURVE",
"281 72 CURVE SMOOTH",
"281 97 OFFCURVE",
"293 109 OFFCURVE",
"318 109 CURVE SMOOTH",
"343 109 OFFCURVE",
"355 97 OFFCURVE",
"355 72 CURVE SMOOTH",
"355 47 OFFCURVE",
"343 35 OFFCURVE",
"318 35 CURVE SMOOTH"
);
}
);
width = 637;
}
);
unicode = 25CC;
},
{
glyphname = "day-tamil";
lastChange = "2018-02-20 19:37:35 +0000";
layers = (
{
layerId = "FDB844D3-6113-4F20-A391-626B83580871";
paths = (
{
closed = 1;
nodes = (
"200 82 OFFCURVE",
"237 37 OFFCURVE",
"289 37 CURVE SMOOTH",
"340 37 OFFCURVE",
"385 84 OFFCURVE",
"385 136 CURVE SMOOTH",
"385 188 OFFCURVE",
"340 234 OFFCURVE",
"288 234 CURVE SMOOTH",
"236 234 OFFCURVE",
"200 188 OFFCURVE",
"200 135 CURVE SMOOTH"
);
},
{
closed = 1;
nodes = (
"434 54 OFFCURVE",
"368 -12 OFFCURVE",
"286 -12 CURVE SMOOTH",
"221 -12 OFFCURVE",
"166 12 OFFCURVE",
"121 60 CURVE SMOOTH",
"76 108 OFFCURVE",
"53 168 OFFCURVE",
"53 239 CURVE SMOOTH",
"53 310 OFFCURVE",
"79 372 OFFCURVE",
"132 425 CURVE SMOOTH",
"185 478 OFFCURVE",
"250 504 OFFCURVE",
"326 504 CURVE SMOOTH",
"402 504 OFFCURVE",
"468 477 OFFCURVE",
"523 424 CURVE SMOOTH",
"578 371 OFFCURVE",
"606 310 OFFCURVE",
"606 240 CURVE SMOOTH",
"606 170 OFFCURVE",
"590 106 OFFCURVE",
"557 49 CURVE",
"901 49 LINE",
"901 0 LINE",
"483 0 LINE",
"483 37 LINE",
"524 87 OFFCURVE",
"545 152 OFFCURVE",
"545 234 CURVE SMOOTH",
"545 295 OFFCURVE",
"523 347 OFFCURVE",
"480 390 CURVE SMOOTH",
"437 433 OFFCURVE",
"386 455 OFFCURVE",
"324 455 CURVE SMOOTH",
"262 455 OFFCURVE",
"209 433 OFFCURVE",
"166 390 CURVE SMOOTH",
"123 347 OFFCURVE",
"102 295 OFFCURVE",
"102 234 CURVE SMOOTH",
"102 176 OFFCURVE",
"122 123 OFFCURVE",
"163 74 CURVE",
"155 97 OFFCURVE",
"151 117 OFFCURVE",
"151 135 CURVE SMOOTH",
"151 214 OFFCURVE",
"209 283 OFFCURVE",
"288 283 CURVE SMOOTH",
"367 283 OFFCURVE",
"434 216 OFFCURVE",
"434 136 CURVE SMOOTH"
);
}
);
width = 910;
}
);
unicode = 0BF3;
},
{
glyphname = "month-tamil";
lastChange = "2018-02-20 19:37:35 +0000";
layers = (
{
layerId = "FDB844D3-6113-4F20-A391-626B83580871";
paths = (
{
closed = 1;
nodes = (
"479 455 OFFCURVE",
"449 413 OFFCURVE",
"449 369 CURVE SMOOTH",
"449 49 LINE",
"621 49 LINE SMOOTH",
"677 49 OFFCURVE",
"707 123 OFFCURVE",
"707 184 CURVE SMOOTH",
"707 259 OFFCURVE",
"689 323 OFFCURVE",
"653 376 CURVE SMOOTH",
"617 429 OFFCURVE",
"573 455 OFFCURVE",
"522 455 CURVE SMOOTH"
);
},
{
closed = 1;
nodes = (
"902 612 OFFCURVE",
"872 647 OFFCURVE",
"872 690 CURVE SMOOTH",
"872 713 OFFCURVE",
"884 737 OFFCURVE",
"908 762 CURVE",
"882 793 OFFCURVE",
"852 809 OFFCURVE",
"816 809 CURVE SMOOTH",
"780 809 OFFCURVE",
"751 801 OFFCURVE",
"728 784 CURVE",
"761 762 OFFCURVE",
"797 724 OFFCURVE",
"797 676 CURVE SMOOTH",
"797 616 OFFCURVE",
"737 565 OFFCURVE",
"676 565 CURVE SMOOTH",
"619 565 OFFCURVE",
"572 606 OFFCURVE",
"572 660 CURVE SMOOTH",
"572 713 OFFCURVE",
"598 754 OFFCURVE",
"633 774 CURVE",
"608 774 LINE SMOOTH",
"572 774 OFFCURVE",
"542 762 OFFCURVE",
"516 738 CURVE SMOOTH",
"490 714 OFFCURVE",
"477 688 OFFCURVE",
"477 658 CURVE SMOOTH",
"477 628 OFFCURVE",
"489 599 OFFCURVE",
"512 570 CURVE SMOOTH",
"535 541 OFFCURVE",
"565 510 OFFCURVE",
"608 492 CURVE SMOOTH",
"707 451 OFFCURVE",
"768 325 OFFCURVE",
"768 184 CURVE SMOOTH",
"768 92 OFFCURVE",
"709 0 OFFCURVE",
"621 0 CURVE SMOOTH",
"92 0 LINE",
"92 492 LINE",
"154 492 LINE",
"154 49 LINE",
"387 49 LINE",
"387 369 LINE SMOOTH",
"387 441 OFFCURVE",
"440 504 OFFCURVE",
"510 504 CURVE",
"464 531 OFFCURVE",
"424 584 OFFCURVE",
"424 652 CURVE SMOOTH",
"424 748 OFFCURVE",
"510 824 OFFCURVE",
"608 824 CURVE SMOOTH",
"639 824 OFFCURVE",
"663 821 OFFCURVE",
"681 815 CURVE",
"726 844 OFFCURVE",
"771 858 OFFCURVE",
"816 858 CURVE SMOOTH",
"871 858 OFFCURVE",
"916 831 OFFCURVE",
"939 797 CURVE",
"965 831 OFFCURVE",
"1008 858 OFFCURVE",
"1062 858 CURVE",
"1062 809 LINE",
"1026 809 OFFCURVE",
"998 784 OFFCURVE",
"982 760 CURVE",
"1003 732 OFFCURVE",
"1014 708 OFFCURVE",
"1014 687 CURVE SMOOTH",
"1014 647 OFFCURVE",
"984 612 OFFCURVE",
"944 612 CURVE SMOOTH"
);
},
{
closed = 1;
nodes = (
"621 635 OFFCURVE",
"641 615 OFFCURVE",
"675 615 CURVE SMOOTH",
"709 615 OFFCURVE",
"744 642 OFFCURVE",
"744 676 CURVE SMOOTH",
"744 715 OFFCURVE",
"717 743 OFFCURVE",
"688 756 CURVE",
"656 741 OFFCURVE",
"621 709 OFFCURVE",
"621 668 CURVE SMOOTH"
);
},
{
closed = 1;
nodes = (
"956 664 OFFCURVE",
"965 676 OFFCURVE",
"965 688 CURVE SMOOTH",
"965 703 OFFCURVE",
"958 715 OFFCURVE",
"944 725 CURVE",
"929 715 OFFCURVE",
"922 702 OFFCURVE",
"922 688 CURVE SMOOTH",
"922 675 OFFCURVE",
"932 664 OFFCURVE",
"944 664 CURVE SMOOTH"
);
}
);
width = 1062;
}
);
unicode = 0BF4;
},
{
glyphname = "year-tamil";
lastChange = "2018-02-20 19:37:35 +0000";
layers = (
{
layerId = "FDB844D3-6113-4F20-A391-626B83580871";
paths = (
{
closed = 1;
nodes = (
"386 85 OFFCURVE",
"419 37 OFFCURVE",
"467 37 CURVE SMOOTH",
"514 37 OFFCURVE",
"548 87 OFFCURVE",
"548 136 CURVE SMOOTH",
"548 185 OFFCURVE",
"514 234 OFFCURVE",
"467 234 CURVE SMOOTH",
"420 234 OFFCURVE",
"386 185 OFFCURVE",
"386 135 CURVE SMOOTH"
);
},
{
closed = 1;
nodes = (
"321 -12 OFFCURVE",
"236 91 OFFCURVE",
"236 234 CURVE SMOOTH",
"236 309 OFFCURVE",
"263 372 OFFCURVE",
"316 425 CURVE SMOOTH",
"369 478 OFFCURVE",
"434 504 OFFCURVE",
"509 504 CURVE SMOOTH",
"584 504 OFFCURVE",
"649 477 OFFCURVE",
"702 424 CURVE SMOOTH",
"755 371 OFFCURVE",
"782 310 OFFCURVE",
"782 240 CURVE SMOOTH",
"782 170 OFFCURVE",
"768 106 OFFCURVE",
"739 49 CURVE",
"929 49 LINE",
"929 492 LINE",
"1302 492 LINE",
"1302 443 LINE",
"1175 443 LINE",
"1175 240 LINE",
"1198 260 OFFCURVE",
"1225 270 OFFCURVE",
"1256 270 CURVE SMOOTH",
"1287 270 OFFCURVE",
"1314 253 OFFCURVE",
"1338 220 CURVE SMOOTH",
"1362 187 OFFCURVE",
"1374 146 OFFCURVE",
"1374 98 CURVE SMOOTH",
"1374 -17 OFFCURVE",
"1310 -116 OFFCURVE",
"1182 -198 CURVE SMOOTH",
"1054 -280 OFFCURVE",
"901 -320 OFFCURVE",
"720 -320 CURVE SMOOTH",
"539 -320 OFFCURVE",
"385 -269 OFFCURVE",
"257 -168 CURVE SMOOTH",
"129 -67 OFFCURVE",
"65 56 OFFCURVE",
"65 202 CURVE SMOOTH",
"65 348 OFFCURVE",
"136 474 OFFCURVE",
"278 580 CURVE SMOOTH",
"420 686 OFFCURVE",
"591 738 OFFCURVE",
"792 738 CURVE SMOOTH",
"993 738 OFFCURVE",
"1164 702 OFFCURVE",
"1306 630 CURVE SMOOTH",
"1448 558 OFFCURVE",
"1518 470 OFFCURVE",
"1518 369 CURVE SMOOTH",
"1518 184 LINE SMOOTH",
"1518 119 OFFCURVE",
"1550 49 OFFCURVE",
"1611 49 CURVE SMOOTH",
"1638 49 OFFCURVE",
"1662 68 OFFCURVE",
"1684 107 CURVE SMOOTH",
"1706 146 OFFCURVE",
"1717 192 OFFCURVE",
"1717 246 CURVE SMOOTH",
"1717 326 OFFCURVE",
"1688 443 OFFCURVE",
"1618 443 CURVE",
"1637 492 LINE",
"1672 492 OFFCURVE",
"1703 468 OFFCURVE",
"1728 420 CURVE SMOOTH",
"1753 372 OFFCURVE",
"1766 314 OFFCURVE",
"1766 246 CURVE SMOOTH",
"1766 178 OFFCURVE",
"1751 120 OFFCURVE",
"1720 72 CURVE SMOOTH",
"1689 24 OFFCURVE",
"1652 0 OFFCURVE",
"1610 0 CURVE SMOOTH",
"1520 0 OFFCURVE",
"1459 91 OFFCURVE",
"1459 184 CURVE SMOOTH",
"1459 369 LINE SMOOTH",
"1459 458 OFFCURVE",
"1394 533 OFFCURVE",
"1263 595 CURVE SMOOTH",
"1132 657 OFFCURVE",
"974 688 OFFCURVE",
"789 688 CURVE SMOOTH",
"604 688 OFFCURVE",
"446 640 OFFCURVE",
"315 544 CURVE SMOOTH",
"184 448 OFFCURVE",
"119 334 OFFCURVE",
"119 202 CURVE SMOOTH",
"119 70 OFFCURVE",
"177 -42 OFFCURVE",
"294 -133 CURVE SMOOTH",
"411 -224 OFFCURVE",
"553 -270 OFFCURVE",
"718 -270 CURVE SMOOTH",
"883 -270 OFFCURVE",
"1023 -234 OFFCURVE",
"1140 -162 CURVE SMOOTH",
"1257 -90 OFFCURVE",
"1315 -3 OFFCURVE",
"1315 98 CURVE SMOOTH",
"1315 149 OFFCURVE",
"1292 215 OFFCURVE",
"1246 215 CURVE SMOOTH",
"1207 215 OFFCURVE",
"1175 181 OFFCURVE",
"1175 141 CURVE SMOOTH",
"1175 0 LINE",
"1116 0 LINE",
"1116 443 LINE",
"990 443 LINE",
"990 0 LINE",
"668 0 LINE",
"668 37 LINE",
"704 84 OFFCURVE",
"722 150 OFFCURVE",
"722 234 CURVE SMOOTH",
"722 295 OFFCURVE",
"702 347 OFFCURVE",
"660 390 CURVE SMOOTH",
"618 433 OFFCURVE",
"568 455 OFFCURVE",
"510 455 CURVE SMOOTH",
"452 455 OFFCURVE",
"402 433 OFFCURVE",
"360 390 CURVE SMOOTH",
"318 347 OFFCURVE",
"297 295 OFFCURVE",
"297 234 CURVE SMOOTH",
"297 171 OFFCURVE",
"314 118 OFFCURVE",
"348 74 CURVE",
"341 99 OFFCURVE",
"337 119 OFFCURVE",
"337 135 CURVE SMOOTH",
"337 212 OFFCURVE",
"389 283 OFFCURVE",
"464 283 CURVE SMOOTH",
"540 283 OFFCURVE",
"597 213 OFFCURVE",
"597 136 CURVE SMOOTH",
"597 57 OFFCURVE",
"539 -12 OFFCURVE",
"461 -12 CURVE SMOOTH"
);
}
);
width = 1800;
}
);
unicode = 0BF5;
},
{
glyphname = "debit-tamil";
lastChange = "2018-02-20 19:37:35 +0000";
layers = (
{
layerId = "FDB844D3-6113-4F20-A391-626B83580871";
paths = (
{
closed = 1;
nodes = (
"151 -12 OFFCURVE",
"85 54 OFFCURVE",
"85 135 CURVE SMOOTH",
"85 492 LINE",
"146 492 LINE",
"146 135 LINE SMOOTH",
"146 81 OFFCURVE",
"183 37 OFFCURVE",
"237 37 CURVE SMOOTH",
"293 37 OFFCURVE",
"343 90 OFFCURVE",
"343 148 CURVE SMOOTH",
"343 492 LINE",
"404 492 LINE",
"404 -61 LINE",
"638 -61 LINE",
"638 492 LINE",
"699 492 LINE",
"699 -111 LINE",
"404 -111 LINE",
"404 -184 LINE SMOOTH",
"404 -249 OFFCURVE",
"353 -307 OFFCURVE",
"288 -307 CURVE SMOOTH",
"202 -307 LINE SMOOTH",
"136 -307 OFFCURVE",
"79 -251 OFFCURVE",
"79 -184 CURVE SMOOTH",
"79 -117 OFFCURVE",
"135 -61 OFFCURVE",
"202 -61 CURVE SMOOTH",
"343 -61 LINE",
"343 37 LINE",
"324 6 OFFCURVE",
"282 -12 OFFCURVE",
"232 -12 CURVE SMOOTH"
);
},
{
closed = 1;
nodes = (
"140 -222 OFFCURVE",
"165 -258 OFFCURVE",
"202 -258 CURVE SMOOTH",
"288 -258 LINE SMOOTH",
"322 -258 OFFCURVE",
"343 -220 OFFCURVE",
"343 -184 CURVE SMOOTH",
"343 -111 LINE",
"202 -111 LINE SMOOTH",
"165 -111 OFFCURVE",
"140 -146 OFFCURVE",
"140 -184 CURVE SMOOTH"
);
}
);
width = 791;
}
);
unicode = 0BF6;
},
{
glyphname = "credit-tamil";
lastChange = "2018-02-20 19:37:35 +0000";
layers = (
{
layerId = "FDB844D3-6113-4F20-A391-626B83580871";
paths = (
{
closed = 1;
nodes = (
"214 86 OFFCURVE",
"243 37 OFFCURVE",
"288 37 CURVE SMOOTH",
"332 37 OFFCURVE",
"361 87 OFFCURVE",
"361 133 CURVE SMOOTH",
"361 179 OFFCURVE",
"332 221 OFFCURVE",
"288 221 CURVE SMOOTH",
"244 221 OFFCURVE",
"214 178 OFFCURVE",
"214 132 CURVE SMOOTH"
);
},
{
closed = 1;
nodes = (
"990 43 OFFCURVE",
"930 -9 OFFCURVE",
"857 -9 CURVE SMOOTH",
"818 -9 OFFCURVE",
"784 9 OFFCURVE",
"755 44 CURVE SMOOTH",
"726 79 OFFCURVE",
"711 122 OFFCURVE",
"711 171 CURVE",
"665 145 OFFCURVE",
"634 112 OFFCURVE",
"620 71 CURVE",
"620 0 LINE",
"558 0 LINE",
"558 443 LINE",
"312 443 LINE SMOOTH",
"255 443 OFFCURVE",
"205 421 OFFCURVE",
"164 378 CURVE SMOOTH",
"123 335 OFFCURVE",
"103 282 OFFCURVE",
"103 221 CURVE SMOOTH",
"103 141 OFFCURVE",
"148 80 OFFCURVE",
"202 49 CURVE",
"177 78 OFFCURVE",
"165 109 OFFCURVE",
"165 142 CURVE SMOOTH",
"165 210 OFFCURVE",
"222 270 OFFCURVE",
"291 270 CURVE SMOOTH",
"365 270 OFFCURVE",
"423 208 OFFCURVE",
"423 133 CURVE SMOOTH",
"423 51 OFFCURVE",
"346 -12 OFFCURVE",
"263 -12 CURVE SMOOTH",
"206 -12 OFFCURVE",
"157 11 OFFCURVE",
"116 56 CURVE SMOOTH",
"75 101 OFFCURVE",
"54 158 OFFCURVE",
"54 228 CURVE SMOOTH",
"54 298 OFFCURVE",
"80 359 OFFCURVE",
"130 412 CURVE SMOOTH",
"180 465 OFFCURVE",
"241 492 OFFCURVE",
"312 492 CURVE SMOOTH",
"742 492 LINE",
"742 443 LINE",
"620 443 LINE",
"620 145 LINE",
"644 175 OFFCURVE",
"677 199 OFFCURVE",
"717 218 CURVE",
"736 298 OFFCURVE",
"812 368 OFFCURVE",
"908 368 CURVE SMOOTH",
"965 368 OFFCURVE",
"1014 349 OFFCURVE",
"1054 310 CURVE SMOOTH",
"1094 271 OFFCURVE",
"1114 225 OFFCURVE",
"1114 172 CURVE SMOOTH",
"1114 119 OFFCURVE",
"1102 74 OFFCURVE",
"1079 36 CURVE",
"1329 36 LINE",
"1329 0 LINE",
"1024 0 LINE",
"1024 27 LINE",
"1053 63 OFFCURVE",
"1068 111 OFFCURVE",
"1068 171 CURVE SMOOTH",
"1068 259 OFFCURVE",
"996 332 OFFCURVE",
"908 332 CURVE SMOOTH",
"836 332 OFFCURVE",
"784 285 OFFCURVE",
"761 232 CURVE",
"788 239 OFFCURVE",
"813 242 OFFCURVE",
"837 242 CURVE SMOOTH",
"914 242 OFFCURVE",
"990 188 OFFCURVE",
"990 114 CURVE SMOOTH"
);
},
{
closed = 1;
nodes = (
"940 164 OFFCURVE",
"889 202 OFFCURVE",
"837 202 CURVE SMOOTH",
"808 202 OFFCURVE",
"779 197 OFFCURVE",
"749 187 CURVE",
"749 113 OFFCURVE",
"792 33 OFFCURVE",
"862 33 CURVE SMOOTH",
"907 33 OFFCURVE",
"940 69 OFFCURVE",
"940 114 CURVE SMOOTH"
);
}
);
width = 1336;
}
);
unicode = 0BF7;
},
{
glyphname = "asabove-tamil";
lastChange = "2018-02-20 19:37:35 +0000";
layers = (
{
layerId = "FDB844D3-6113-4F20-A391-626B83580871";
paths = (
{
closed = 1;
nodes = (
"983 299 OFFCURVE",
"926 369 OFFCURVE",
"848 369 CURVE SMOOTH",
"827 369 OFFCURVE",
"809 367 OFFCURVE",
"793 363 CURVE",
"797 345 OFFCURVE",
"799 326 OFFCURVE",
"799 307 CURVE SMOOTH",
"799 222 OFFCURVE",
"783 150 OFFCURVE",
"752 90 CURVE SMOOTH",
"721 30 OFFCURVE",
"684 0 OFFCURVE",
"639 0 CURVE SMOOTH",
"585 0 OFFCURVE",
"553 66 OFFCURVE",
"553 123 CURVE SMOOTH",
"553 250 OFFCURVE",
"624 353 OFFCURVE",
"719 387 CURVE",
"677 504 OFFCURVE",
"574 627 OFFCURVE",
"430 627 CURVE SMOOTH",
"343 627 OFFCURVE",
"269 596 OFFCURVE",
"208 534 CURVE SMOOTH",
"147 472 OFFCURVE",
"117 396 OFFCURVE",
"117 307 CURVE SMOOTH",
"117 248 OFFCURVE",
"135 187 OFFCURVE",
"172 123 CURVE",
"164 207 OFFCURVE",
"227 283 OFFCURVE",
"308 283 CURVE SMOOTH",
"389 283 OFFCURVE",
"455 217 OFFCURVE",
"455 136 CURVE SMOOTH",
"455 54 OFFCURVE",
"389 -12 OFFCURVE",
"307 -12 CURVE SMOOTH",
"239 -12 OFFCURVE",
"181 20 OFFCURVE",
"133 82 CURVE SMOOTH",
"85 144 OFFCURVE",
"61 219 OFFCURVE",
"61 307 CURVE SMOOTH",
"61 408 OFFCURVE",
"98 496 OFFCURVE",
"170 568 CURVE SMOOTH",
"242 640 OFFCURVE",
"329 676 OFFCURVE",
"430 676 CURVE SMOOTH",
"603 676 OFFCURVE",
"730 542 OFFCURVE",
"781 406 CURVE",
"804 414 OFFCURVE",
"830 418 OFFCURVE",
"861 418 CURVE SMOOTH",
"964 418 OFFCURVE",
"1045 325 OFFCURVE",
"1045 221 CURVE SMOOTH",
"1045 141 OFFCURVE",
"1024 83 OFFCURVE",
"983 49 CURVE",
"1217 49 LINE",
"1162 75 OFFCURVE",
"1119 134 OFFCURVE",
"1119 212 CURVE SMOOTH",
"1119 287 OFFCURVE",
"1189 344 OFFCURVE",
"1266 344 CURVE SMOOTH",
"1344 344 OFFCURVE",
"1414 286 OFFCURVE",
"1414 209 CURVE SMOOTH",
"1414 49 LINE",
"1586 49 LINE",
"1586 0 LINE",
"1414 0 LINE",
"1414 -295 LINE",
"1352 -295 LINE",
"1352 0 LINE",
"873 0 LINE",
"873 37 LINE",
"937 60 OFFCURVE",
"983 133 OFFCURVE",
"983 219 CURVE SMOOTH"
);
},
{
closed = 1;
nodes = (
"221 84 OFFCURVE",
"258 37 OFFCURVE",
"308 37 CURVE SMOOTH",
"357 37 OFFCURVE",
"393 85 OFFCURVE",
"393 136 CURVE SMOOTH",
"393 187 OFFCURVE",
"353 234 OFFCURVE",
"304 234 CURVE SMOOTH",
"254 234 OFFCURVE",
"221 186 OFFCURVE",
"221 135 CURVE SMOOTH"
);
},
{
closed = 1;
nodes = (
"615 98 OFFCURVE",
"620 49 OFFCURVE",
"639 49 CURVE SMOOTH",
"664 49 OFFCURVE",
"686 74 OFFCURVE",
"704 124 CURVE SMOOTH",
"722 174 OFFCURVE",
"731 236 OFFCURVE",
"731 307 CURVE SMOOTH",
"731 344 LINE",
"658 317 OFFCURVE",
"615 225 OFFCURVE",
"615 123 CURVE SMOOTH"
);
},
{
closed = 1;
nodes = (
"1218 295 OFFCURVE",
"1180 257 OFFCURVE",
"1180 209 CURVE SMOOTH",
"1180 119 OFFCURVE",
"1261 49 OFFCURVE",
"1352 49 CURVE",
"1352 209 LINE SMOOTH",
"1352 257 OFFCURVE",
"1314 295 OFFCURVE",
"1266 295 CURVE SMOOTH"
);
}
);
width = 1595;
}
);
unicode = 0BF8;
},
{
glyphname = "number-tamil";
lastChange = "2018-02-20 19:37:35 +0000";
layers = (
{
layerId = "FDB844D3-6113-4F20-A391-626B83580871";
paths = (
{
closed = 1;
nodes = (
"688 311 OFFCURVE",
"713 283 OFFCURVE",
"748 283 CURVE SMOOTH",
"784 283 OFFCURVE",
"805 311 OFFCURVE",
"805 349 CURVE SMOOTH",
"805 392 OFFCURVE",
"801 425 OFFCURVE",
"793 449 CURVE",
"746 437 OFFCURVE",
"688 400 OFFCURVE",
"688 348 CURVE SMOOTH"
);
},
{
closed = 1;
nodes = (
"547 210 OFFCURVE",
"502 246 OFFCURVE",
"446 246 CURVE SMOOTH",
"417 246 OFFCURVE",
"390 230 OFFCURVE",
"363 197 CURVE",
"363 98 LINE",
"301 98 LINE",
"301 443 LINE",
"154 443 LINE",
"154 0 LINE",
"92 0 LINE",
"92 492 LINE",
"387 492 LINE",
"366 511 OFFCURVE",
"356 542 OFFCURVE",
"356 585 CURVE SMOOTH",
"356 680 OFFCURVE",
"463 731 OFFCURVE",
"564 731 CURVE SMOOTH",
"622 731 OFFCURVE",
"676 710 OFFCURVE",
"727 668 CURVE SMOOTH",
"778 626 OFFCURVE",
"812 570 OFFCURVE",
"830 503 CURVE",
"848 504 LINE",
"915 504 OFFCURVE",
"971 485 OFFCURVE",
"1018 446 CURVE SMOOTH",
"1065 407 OFFCURVE",
"1088 362 OFFCURVE",
"1088 310 CURVE SMOOTH",
"1088 186 OFFCURVE",
"1003 100 OFFCURVE",
"916 49 CURVE",
"1186 49 LINE",
"1186 0 LINE",
"713 0 LINE",
"809 35 OFFCURVE",
"886 81 OFFCURVE",
"945 137 CURVE SMOOTH",
"1004 193 OFFCURVE",
"1033 250 OFFCURVE",
"1033 307 CURVE SMOOTH",
"1033 395 OFFCURVE",
"940 455 OFFCURVE",
"848 455 CURVE",
"858 432 OFFCURVE",
"863 395 OFFCURVE",
"863 344 CURVE SMOOTH",
"863 283 OFFCURVE",
"811 234 OFFCURVE",
"750 234 CURVE SMOOTH",
"686 234 OFFCURVE",
"633 284 OFFCURVE",
"633 349 CURVE SMOOTH",
"633 425 OFFCURVE",
"705 483 OFFCURVE",
"774 495 CURVE",
"750 585 OFFCURVE",
"670 682 OFFCURVE",
"565 682 CURVE SMOOTH",
"495 682 OFFCURVE",
"412 652 OFFCURVE",
"412 590 CURVE SMOOTH",
"412 544 OFFCURVE",
"424 511 OFFCURVE",
"449 492 CURVE",
"535 492 LINE",
"535 443 LINE",
"363 443 LINE",
"363 264 LINE",
"385 289 OFFCURVE",
"415 301 OFFCURVE",
"455 301 CURVE SMOOTH",
"495 301 OFFCURVE",
"531 287 OFFCURVE",
"562 260 CURVE SMOOTH",
"593 233 OFFCURVE",
"608 198 OFFCURVE",
"608 156 CURVE SMOOTH",
"608 114 OFFCURVE",
"591 78 OFFCURVE",
"558 47 CURVE SMOOTH",
"525 16 OFFCURVE",
"484 0 OFFCURVE",
"436 0 CURVE SMOOTH",
"301 0 LINE",
"301 49 LINE",
"436 49 LINE SMOOTH",
"493 49 OFFCURVE",
"547 99 OFFCURVE",
"547 155 CURVE SMOOTH"
);
}
);
width = 1196;
}
);
unicode = 0BFA;
},
{
glyphname = apostrophemod;
lastChange = "2018-02-20 19:37:35 +0000";
layers = (
{
layerId = "FDB844D3-6113-4F20-A391-626B83580871";
paths = (
{
closed = 1;
nodes = (
"203 635 LINE",
"239 705 LINE",
"234 748 LINE",
"368 748 LINE",
"274 612 LINE"
);
}
);
width = 551;
}
);
unicode = 02BC;
},
{
glyphname = firsttonechinese;
lastChange = "2018-02-20 19:37:35 +0000";
layers = (
{
layerId = "FDB844D3-6113-4F20-A391-626B83580871";
paths = (
{
closed = 1;
nodes = (
"59 731 LINE",
"362 731 LINE",
"362 659 LINE",
"59 659 LINE"
);
}
);
width = 421;
}
);
unicode = 02C9;
},
{
glyphname = dblgravecomb;
lastChange = "2018-02-20 19:37:35 +0000";
layers = (
{
layerId = "FDB844D3-6113-4F20-A391-626B83580871";
paths = (
{
closed = 1;
nodes = (
"269 748 LINE",
"322 635 LINE",
"265 612 LINE",
"178 748 LINE"
);
},
{
closed = 1;
nodes = (
"119 748 LINE",
"171 635 LINE",
"114 612 LINE",
"27 748 LINE"
);
}
);
width = 359;
}
);
unicode = 030F;
},
{
glyphname = breveinvertedcomb;
lastChange = "2018-02-20 19:37:35 +0000";
layers = (
{
layerId = "FDB844D3-6113-4F20-A391-626B83580871";
paths = (
{
closed = 1;
nodes = (
"216 658 OFFCURVE",
"194 695 OFFCURVE",
"159 695 CURVE SMOOTH",
"126 695 OFFCURVE",
"100 658 OFFCURVE",
"100 623 CURVE",
"38 623 LINE",
"38 694 OFFCURVE",
"90 748 OFFCURVE",
"160 748 CURVE SMOOTH",
"229 748 OFFCURVE",
"282 692 OFFCURVE",
"282 623 CURVE",
"219 623 LINE"
);
}
);
width = 319;
}
);
unicode = 0311;
},
{
glyphname = commaaccentcomb;
lastChange = "2018-02-20 19:37:35 +0000";
layers = (
{
layerId = "FDB844D3-6113-4F20-A391-626B83580871";
paths = (
{
closed = 1;
nodes = (
"93 -139 LINE",
"60 -139 LINE",
"60 -49 LINE",
"158 -49 LINE",
"158 -139 LINE",
"122 -218 LINE",
"70 -218 LINE"
);
}
);
width = 188;
}
);
unicode = F6C3;
},
{
glyphname = caron.alt;
lastChange = "2018-02-20 19:37:35 +0000";
layers = (
{
layerId = "FDB844D3-6113-4F20-A391-626B83580871";
paths = (
{
closed = 1;
nodes = (
"48 635 LINE",
"106 748 LINE",
"214 748 LINE",
"122 612 LINE"
);
}
);
width = 249;
}
);
},
{
color = 3;
glyphname = "iiMatra-tamil";
lastChange = "2018-12-17 06:01:13 +0000";
layers = (
{
layerId = "FDB844D3-6113-4F20-A391-626B83580871";
paths = (
{
closed = 1;
nodes = (
"144 526 OFFCURVE",
"92 591 OFFCURVE",
"92 676 CURVE SMOOTH",
"92 723 OFFCURVE",
"111 764 OFFCURVE",
"150 798 CURVE SMOOTH",
"189 832 OFFCURVE",
"233 848 OFFCURVE",
"284 848 CURVE SMOOTH",
"371 848 OFFCURVE",
"461 797 OFFCURVE",
"461 716 CURVE SMOOTH",
"461 647 OFFCURVE",
"406 590 OFFCURVE",
"338 590 CURVE SMOOTH",
"272 590 OFFCURVE",
"215 647 OFFCURVE",
"215 713 CURVE SMOOTH",
"215 753 OFFCURVE",
"237 784 OFFCURVE",
"264 799 CURVE",
"206 788 OFFCURVE",
"154 741 OFFCURVE",
"154 674 CURVE SMOOTH",
"154 643 OFFCURVE",
"166 610 OFFCURVE",
"190 577 CURVE SMOOTH",
"214 544 OFFCURVE",
"247 515 OFFCURVE",
"289 492 CURVE",
"203 492 LINE"
);
},
{
closed = 1;
nodes = (
"277 675 OFFCURVE",
"301 639 OFFCURVE",
"338 639 CURVE SMOOTH",
"375 639 OFFCURVE",
"400 675 OFFCURVE",
"400 713 CURVE SMOOTH",
"400 751 OFFCURVE",
"375 787 OFFCURVE",
"338 787 CURVE SMOOTH",
"301 787 OFFCURVE",
"277 751 OFFCURVE",
"277 713 CURVE SMOOTH"
);
}
);
width = 553;
}
);
unicode = 0BC0;
},
{
color = 3;
glyphname = "uMatra-tamil";
lastChange = "2018-12-17 06:01:13 +0000";
layers = (
{
layerId = "FDB844D3-6113-4F20-A391-626B83580871";
paths = (
{
closed = 1;
nodes = (
"246 172 OFFCURVE",
"173 244 OFFCURVE",
"173 332 CURVE SMOOTH",
"173 443 LINE",
"-208 443 LINE",
"-208 492 LINE",
"333 492 LINE SMOOTH",
"420 492 OFFCURVE",
"493 419 OFFCURVE",
"493 332 CURVE SMOOTH",
"493 244 OFFCURVE",
"422 172 OFFCURVE",
"334 172 CURVE SMOOTH"
);
},
{
closed = 1;
nodes = (
"235 275 OFFCURVE",
"278 221 OFFCURVE",
"334 221 CURVE SMOOTH",
"390 221 OFFCURVE",
"431 275 OFFCURVE",
"431 332 CURVE SMOOTH",
"431 390 OFFCURVE",
"389 443 OFFCURVE",
"333 443 CURVE SMOOTH",
"235 443 LINE",
"235 332 LINE SMOOTH"
);
}
);
width = 532;
}
);
unicode = 0BC1;
},
{
color = 3;
glyphname = "uuMatra-tamil";
lastChange = "2018-12-17 06:01:13 +0000";
layers = (
{
layerId = "FDB844D3-6113-4F20-A391-626B83580871";
paths = (
{
closed = 1;
nodes = (
"230 246 OFFCURVE",
"148 341 OFFCURVE",
"130 443 CURVE",
"-208 443 LINE",
"-208 492 LINE",
"124 492 LINE",
"124 541 LINE SMOOTH",
"124 622 OFFCURVE",
"152 692 OFFCURVE",
"210 750 CURVE SMOOTH",
"268 808 OFFCURVE",
"339 836 OFFCURVE",
"424 836 CURVE SMOOTH",
"509 836 OFFCURVE",
"584 799 OFFCURVE",
"646 724 CURVE SMOOTH",
"708 649 OFFCURVE",
"739 558 OFFCURVE",
"739 450 CURVE SMOOTH",
"739 342 OFFCURVE",
"699 247 OFFCURVE",
"620 168 CURVE SMOOTH",
"541 89 OFFCURVE",
"446 49 OFFCURVE",
"333 49 CURVE SMOOTH",
"209 49 OFFCURVE",
"110 101 OFFCURVE",
"50 172 CURVE",
"87 209 LINE",
"127 139 OFFCURVE",
"222 98 OFFCURVE",
"333 98 CURVE SMOOTH",
"428 98 OFFCURVE",
"509 132 OFFCURVE",
"576 202 CURVE SMOOTH",
"643 272 OFFCURVE",
"677 355 OFFCURVE",
"677 450 CURVE SMOOTH",
"677 545 OFFCURVE",
"652 625 OFFCURVE",
"602 690 CURVE SMOOTH",
"552 755 OFFCURVE",
"492 787 OFFCURVE",
"424 787 CURVE SMOOTH",
"356 787 OFFCURVE",
"299 763 OFFCURVE",
"254 715 CURVE SMOOTH",
"209 667 OFFCURVE",
"186 609 OFFCURVE",
"186 541 CURVE SMOOTH",
"186 492 LINE",
"345 492 LINE SMOOTH",
"417 492 OFFCURVE",
"481 439 OFFCURVE",
"481 369 CURVE SMOOTH",
"481 299 OFFCURVE",
"417 246 OFFCURVE",
"345 246 CURVE SMOOTH"
);
},
{
closed = 1;
nodes = (
"205 369 OFFCURVE",
"263 295 OFFCURVE",
"345 295 CURVE SMOOTH",
"386 295 OFFCURVE",
"419 328 OFFCURVE",
"419 369 CURVE SMOOTH",
"419 410 OFFCURVE",
"386 443 OFFCURVE",
"345 443 CURVE SMOOTH",
"192 443 LINE"
);
}
);
width = 776;
}
);
unicode = 0BC2;
},
{
glyphname = "aulengthmark-tamil";
lastChange = "2018-02-20 19:37:35 +0000";
layers = (
{
layerId = "FDB844D3-6113-4F20-A391-626B83580871";
paths = (
{
closed = 1;
nodes = (
"204 99 OFFCURVE",
"234 49 OFFCURVE",
"278 49 CURVE SMOOTH",
"322 49 OFFCURVE",
"352 100 OFFCURVE",
"352 146 CURVE SMOOTH",
"352 193 OFFCURVE",
"323 234 OFFCURVE",
"278 234 CURVE SMOOTH",
"234 234 OFFCURVE",
"204 191 OFFCURVE",
"204 145 CURVE SMOOTH"
);
},
{
closed = 1;
nodes = (
"379 504 OFFCURVE",
"454 463 OFFCURVE",
"487 406 CURVE",
"487 492 LINE",
"917 492 LINE",
"917 443 LINE",
"782 443 LINE",
"782 0 LINE",
"720 0 LINE",
"720 443 LINE",
"536 443 LINE",
"536 0 LINE",
"475 0 LINE",
"475 246 LINE SMOOTH",
"475 303 OFFCURVE",
"456 353 OFFCURVE",
"420 394 CURVE SMOOTH",
"384 435 OFFCURVE",
"341 455 OFFCURVE",
"290 455 CURVE SMOOTH",
"239 455 OFFCURVE",
"196 433 OFFCURVE",
"160 390 CURVE SMOOTH",
"124 347 OFFCURVE",
"106 295 OFFCURVE",
"106 234 CURVE SMOOTH",
"106 164 OFFCURVE",
"138 108 OFFCURVE",
"179 74 CURVE",
"163 102 OFFCURVE",
"155 127 OFFCURVE",
"155 148 CURVE SMOOTH",
"155 220 OFFCURVE",
"208 283 OFFCURVE",
"278 283 CURVE SMOOTH",
"350 283 OFFCURVE",
"401 218 OFFCURVE",
"401 143 CURVE SMOOTH",
"401 102 OFFCURVE",
"387 66 OFFCURVE",
"358 35 CURVE SMOOTH",
"329 4 OFFCURVE",
"294 -12 OFFCURVE",
"253 -12 CURVE SMOOTH",
"199 -12 OFFCURVE",
"152 12 OFFCURVE",
"114 60 CURVE SMOOTH",
"76 108 OFFCURVE",
"57 168 OFFCURVE",
"57 239 CURVE SMOOTH",
"57 310 OFFCURVE",
"80 372 OFFCURVE",
"125 425 CURVE SMOOTH",
"170 478 OFFCURVE",
"225 504 OFFCURVE",
"290 504 CURVE SMOOTH"
);
}
);
width = 924;
}
);
unicode = 0BD7;
},
{
glyphname = "anusvara-tamil";
lastChange = "2018-02-20 19:37:35 +0000";
layers = (
{
layerId = "FDB844D3-6113-4F20-A391-626B83580871";
paths = (
{
closed = 1;
nodes = (
"-250 742 OFFCURVE",
"-193 799 OFFCURVE",
"-127 799 CURVE SMOOTH",
"-61 799 OFFCURVE",
"-4 743 OFFCURVE",
"-4 676 CURVE SMOOTH",
"-4 609 OFFCURVE",
"-59 553 OFFCURVE",
"-126 553 CURVE SMOOTH",
"-192 553 OFFCURVE",
"-250 610 OFFCURVE",
"-250 676 CURVE SMOOTH"
);
},
{
closed = 1;
nodes = (
"-200 635 OFFCURVE",
"-167 602 OFFCURVE",
"-126 602 CURVE SMOOTH",
"-85 602 OFFCURVE",
"-53 635 OFFCURVE",
"-53 676 CURVE SMOOTH",
"-53 717 OFFCURVE",
"-86 750 OFFCURVE",
"-127 750 CURVE SMOOTH",
"-168 750 OFFCURVE",
"-200 717 OFFCURVE",
"-200 676 CURVE SMOOTH"
);
}
);
width = 0;
}
);
unicode = 0B82;
},
{
color = 3;
glyphname = "aaMatra-sinhala";
lastChange = "2018-12-17 07:02:48 +0000";
layers = (
{
layerId = "FDB844D3-6113-4F20-A391-626B83580871";
paths = (
{
closed = 1;
nodes = (
"50 547 OFFCURVE",
"100 580 OFFCURVE",
"167 580 CURVE SMOOTH",
"443 580 LINE",
"443 566 OFFCURVE",
"443 523 OFFCURVE",
"443 497 CURVE",
"361 497 LINE",
"384 481 OFFCURVE",
"406 394 OFFCURVE",
"406 337 CURVE SMOOTH",
"406 244 LINE SMOOTH",
"406 48 OFFCURVE",
"321 0 OFFCURVE",
"257 0 CURVE SMOOTH",
"203 0 OFFCURVE",
"199 0 OFFCURVE",
"193 1 CURVE",
"193 86 LINE",
"237 86 LINE SMOOTH",
"288 86 OFFCURVE",
"306 167 OFFCURVE",
"306 236 CURVE SMOOTH",
"306 328 LINE",
"306 414 OFFCURVE",
"288 478 OFFCURVE",
"262 497 CURVE",
"253 497 OFFCURVE",
"187 497 OFFCURVE",
"170 497 CURVE SMOOTH",
"154 497 OFFCURVE",
"140 484 OFFCURVE",
"140 462 CURVE SMOOTH",
"140 209 LINE",
"50 209 LINE",
"50 462 LINE"
);
}
);
width = 524;
}
);
unicode = 0DCF;
},
{
color = 3;
glyphname = "aaeMatra-sinhala";
lastChange = "2018-12-17 06:01:13 +0000";
layers = (
{
layerId = "FDB844D3-6113-4F20-A391-626B83580871";
paths = (
{
closed = 1;
nodes = (
"100 -169 OFFCURVE",
"33 -106 OFFCURVE",
"33 -8 CURVE SMOOTH",
"33 69 OFFCURVE",
"87 136 OFFCURVE",
"194 193 CURVE",
"66 185 LINE",
"41 266 LINE",
"193 343 LINE",
"163 342 LINE",
"16 342 LINE",
"16 421 LINE",
"274 421 LINE",
"297 327 LINE",
"128 240 LINE",
"274 248 LINE",
"296 185 LINE",
"196 133 OFFCURVE",
"110 76 OFFCURVE",
"110 -2 CURVE SMOOTH",
"110 -68 OFFCURVE",
"148 -99 OFFCURVE",
"212 -99 CURVE SMOOTH",
"256 -99 OFFCURVE",
"278 -89 OFFCURVE",
"305 -78 CURVE",
"328 -143 LINE",
"287 -160 OFFCURVE",
"243 -169 OFFCURVE",
"196 -169 CURVE SMOOTH"
);
}
);
width = 322;
}
);
unicode = 0DD1;
},
{
color = 3;
glyphname = "aeMatra-sinhala";
lastChange = "2018-12-17 06:01:13 +0000";
layers = (
{
layerId = "FDB844D3-6113-4F20-A391-626B83580871";
paths = (
{
closed = 1;
nodes = (
"89 -182 OFFCURVE",
"16 -105 OFFCURVE",
"16 13 CURVE SMOOTH",
"16 119 OFFCURVE",
"79 229 OFFCURVE",
"194 343 CURVE",
"186 342 OFFCURVE",
"181 342 OFFCURVE",
"178 342 CURVE SMOOTH",
"16 342 LINE",
"16 424 LINE",
"301 424 LINE",
"301 343 LINE",
"243 281 OFFCURVE",
"201 231 OFFCURVE",
"175 194 CURVE SMOOTH",
"129 129 OFFCURVE",
"110 88 OFFCURVE",
"110 13 CURVE SMOOTH",
"110 -47 OFFCURVE",
"141 -99 OFFCURVE",
"212 -99 CURVE SMOOTH",
"256 -99 OFFCURVE",
"278 -89 OFFCURVE",
"305 -78 CURVE",
"332 -152 LINE",
"284 -172 OFFCURVE",
"242 -182 OFFCURVE",
"205 -182 CURVE SMOOTH"
);
}
);
width = 316;
}
);
unicode = 0DD0;
},
{
color = 3;
glyphname = "aiMatra-sinhala";
lastChange = "2018-12-17 06:01:13 +0000";
layers = (
{
layerId = "FDB844D3-6113-4F20-A391-626B83580871";
paths = (
{
closed = 1;
nodes = (
"692 177 OFFCURVE",
"663 154 OFFCURVE",
"663 120 CURVE SMOOTH",
"663 82 OFFCURVE",
"689 54 OFFCURVE",
"725 54 CURVE SMOOTH",
"758 54 OFFCURVE",
"786 83 OFFCURVE",
"786 116 CURVE SMOOTH",
"786 147 OFFCURVE",
"759 177 OFFCURVE",
"729 177 CURVE SMOOTH"
);
},
{
closed = 1;
nodes = (
"232 176 OFFCURVE",
"205 153 OFFCURVE",
"202 120 CURVE",
"202 112 LINE SMOOTH",
"202 75 OFFCURVE",
"232 52 OFFCURVE",
"268 52 CURVE SMOOTH",
"302 52 OFFCURVE",
"325 83 OFFCURVE",
"325 116 CURVE SMOOTH",
"325 147 OFFCURVE",
"298 176 OFFCURVE",
"266 176 CURVE SMOOTH"
);
},
{
closed = 1;
nodes = (
"798 252 OFFCURVE",
"860 191 OFFCURVE",
"860 115 CURVE SMOOTH",
"860 78 OFFCURVE",
"847 47 OFFCURVE",
"820 20 CURVE SMOOTH",
"794 -6 OFFCURVE",
"764 -20 OFFCURVE",
"732 -20 CURVE SMOOTH",
"662 -20 OFFCURVE",
"619 13 OFFCURVE",
"587 55 CURVE SMOOTH",
"550 104 OFFCURVE",
"532 162 OFFCURVE",
"532 228 CURVE SMOOTH",
"532 294 OFFCURVE",
"545 351 OFFCURVE",
"571 399 CURVE",
"524 453 OFFCURVE",
"444 503 OFFCURVE",
"352 503 CURVE SMOOTH",
"272 503 OFFCURVE",
"217 475 OFFCURVE",
"176 434 CURVE SMOOTH",
"131 388 OFFCURVE",
"108 331 OFFCURVE",
"108 265 CURVE SMOOTH",
"108 227 OFFCURVE",
"116 189 OFFCURVE",
"133 152 CURVE",
"147 199 OFFCURVE",
"196 250 OFFCURVE",
"254 250 CURVE SMOOTH",
"305 250 OFFCURVE",
"336 234 OFFCURVE",
"361 208 CURVE SMOOTH",
"386 182 OFFCURVE",
"399 151 OFFCURVE",
"399 113 CURVE SMOOTH",
"399 41 OFFCURVE",
"335 -24 OFFCURVE",
"264 -24 CURVE SMOOTH",
"186 -24 OFFCURVE",
"136 19 OFFCURVE",
"100 67 CURVE SMOOTH",
"56 126 OFFCURVE",
"34 192 OFFCURVE",
"34 265 CURVE SMOOTH",
"34 360 OFFCURVE",
"74 436 OFFCURVE",
"124 486 CURVE SMOOTH",
"185 547 OFFCURVE",
"259 577 OFFCURVE",
"346 577 CURVE SMOOTH",
"460 577 OFFCURVE",
"553 524 OFFCURVE",
"614 462 CURVE",
"614 463 OFFCURVE",
"614 463 OFFCURVE",
"615 463 CURVE SMOOTH",
"665 519 OFFCURVE",
"746 572 OFFCURVE",
"842 572 CURVE SMOOTH",
"930 572 OFFCURVE",
"993 542 OFFCURVE",
"1045 502 CURVE SMOOTH",
"1105 456 OFFCURVE",
"1146 396 OFFCURVE",
"1169 323 CURVE SMOOTH",
"1179 289 OFFCURVE",
"1184 258 OFFCURVE",
"1184 229 CURVE SMOOTH",
"1184 177 OFFCURVE",
"1176 131 OFFCURVE",
"1161 91 CURVE",
"1093 118 LINE",
"1105 151 OFFCURVE",
"1111 184 OFFCURVE",
"1111 220 CURVE SMOOTH",
"1111 301 OFFCURVE",
"1075 369 OFFCURVE",
"1033 414 CURVE SMOOTH",
"980 470 OFFCURVE",
"920 498 OFFCURVE",
"851 498 CURVE SMOOTH",
"782 498 OFFCURVE",
"724 472 OFFCURVE",
"676 420 CURVE SMOOTH",
"629 370 OFFCURVE",
"606 310 OFFCURVE",
"606 240 CURVE SMOOTH",
"606 221 OFFCURVE",
"607 204 OFFCURVE",
"610 189 CURVE",
"641 231 OFFCURVE",
"679 252 OFFCURVE",
"723 252 CURVE SMOOTH"
);
}
);
width = 1226;
}
);
unicode = 0DDB;
},
{
color = 3;
glyphname = "anusvaraya-sinhala";
lastChange = "2018-12-17 06:01:13 +0000";
layers = (
{
layerId = "FDB844D3-6113-4F20-A391-626B83580871";
paths = (
{
closed = 1;
nodes = (
"121 64 OFFCURVE",
"34 154 OFFCURVE",
"34 272 CURVE SMOOTH",
"34 356 OFFCURVE",
"79 420 OFFCURVE",
"136 451 CURVE SMOOTH",
"190 481 OFFCURVE",
"267 487 OFFCURVE",
"326 462 CURVE SMOOTH",
"398 432 OFFCURVE",
"448 361 OFFCURVE",
"447 270 CURVE SMOOTH",
"446 150 OFFCURVE",
"361 67 OFFCURVE",
"239 67 CURVE SMOOTH"
);
},
{
closed = 1;
nodes = (
"109 193 OFFCURVE",
"158 138 OFFCURVE",
"239 138 CURVE SMOOTH",
"280 138 OFFCURVE",
"312 150 OFFCURVE",
"336 175 CURVE SMOOTH",
"359 202 OFFCURVE",
"371 235 OFFCURVE",
"371 275 CURVE SMOOTH",
"371 355 OFFCURVE",
"320 406 OFFCURVE",
"240 406 CURVE SMOOTH",
"160 406 OFFCURVE",
"109 355 OFFCURVE",
"109 274 CURVE SMOOTH"
);
}
);
width = 481;
}
);
unicode = 0D82;
},
{
color = 3;
glyphname = "eMatra-sinhala";
lastChange = "2018-12-17 06:55:55 +0000";
layers = (
{
layerId = "FDB844D3-6113-4F20-A391-626B83580871";
paths = (
{
closed = 1;
nodes = (
"222 82 OFFCURVE",
"306 82 CURVE SMOOTH",
"345 82 OFFCURVE",
"375 113 OFFCURVE",
"375 152 CURVE SMOOTH",
"375 189 OFFCURVE",
"353 222 OFFCURVE",
"296 222 CURVE SMOOTH",
"245 222 OFFCURVE",
"206 160 OFFCURVE",
"197 131 CURVE",
"139 195 LINE",
"157 245 OFFCURVE",
"216 307 OFFCURVE",
"305 307 CURVE SMOOTH",
"399 307 OFFCURVE",
"462 245 OFFCURVE",
"462 147 CURVE SMOOTH",
"462 58 OFFCURVE",
"396 -9 OFFCURVE",
"307 -9 CURVE SMOOTH",
"150 -9 OFFCURVE",
"39 162 OFFCURVE",
"39 330 CURVE SMOOTH",
"39 528 OFFCURVE",
"189 698 OFFCURVE",
"391 698 CURVE SMOOTH",
"626 698 OFFCURVE",
"787 505 OFFCURVE",
"787 251 CURVE",
"692 279 LINE",
"692 449 OFFCURVE",
"561 605 OFFCURVE",
"398 605 CURVE SMOOTH",
"246 605 OFFCURVE",
"137 492 OFFCURVE",
"137 330 CURVE SMOOTH",
"137 198 OFFCURVE"
);
}
);
width = 821;
}
);
unicode = 0DD9;
},
{
color = 3;
glyphname = "iMatra-sinhala";
lastChange = "2018-12-17 06:01:13 +0000";
layers = (
{
layerId = "FDB844D3-6113-4F20-A391-626B83580871";
paths = (
{
closed = 1;
nodes = (
"-373 811 OFFCURVE",
"-437 784 OFFCURVE",
"-490 729 CURVE",
"-603 729 LINE",
"-597 740 LINE",
"-548 816 OFFCURVE",
"-477 865 OFFCURVE",
"-386 890 CURVE SMOOTH",
"-358 898 OFFCURVE",
"-328 902 OFFCURVE",
"-297 902 CURVE SMOOTH",
"-228 902 OFFCURVE",
"-172 879 OFFCURVE",
"-131 848 CURVE SMOOTH",
"-66 799 OFFCURVE",
"-31 728 OFFCURVE",
"-26 636 CURVE SMOOTH",
"-25 614 OFFCURVE",
"-24 591 OFFCURVE",
"-24 568 CURVE SMOOTH",
"-22 337 LINE",
"-113 337 LINE",
"-114 568 LINE",
"-111 664 OFFCURVE",
"-130 732 OFFCURVE",
"-186 776 CURVE SMOOTH",
"-216 800 OFFCURVE",
"-253 811 OFFCURVE",
"-298 811 CURVE SMOOTH"
);
}
);
width = 0;
}
);
unicode = 0DD2;
},
{
color = 3;
glyphname = "iiMatra-sinhala";
lastChange = "2018-12-17 06:01:13 +0000";
layers = (
{
layerId = "FDB844D3-6113-4F20-A391-626B83580871";
paths = (
{
closed = 1;
nodes = (
"-115 552 OFFCURVE",
"-131 568 OFFCURVE",
"-151 568 CURVE SMOOTH",
"-171 568 OFFCURVE",
"-187 551 OFFCURVE",
"-187 531 CURVE SMOOTH",
"-187 511 OFFCURVE",
"-170 498 OFFCURVE",
"-150 498 CURVE SMOOTH",
"-130 498 OFFCURVE",
"-115 512 OFFCURVE",
"-115 532 CURVE SMOOTH"
);
},
{
closed = 1;
nodes = (
"-558 720 OFFCURVE",
"-438 803 OFFCURVE",
"-296 803 CURVE SMOOTH",
"-222 803 OFFCURVE",
"-157 781 OFFCURVE",
"-104 737 CURVE SMOOTH",
"-50 693 OFFCURVE",
"-23 638 OFFCURVE",
"-20 574 CURVE SMOOTH",
"-20 507 OFFCURVE",
"-55 456 OFFCURVE",
"-103 433 CURVE",
"-103 434 LINE",
"-116 427 OFFCURVE",
"-131 424 OFFCURVE",
"-148 424 CURVE SMOOTH",
"-214 424 OFFCURVE",
"-261 471 OFFCURVE",
"-261 533 CURVE SMOOTH",
"-261 592 OFFCURVE",
"-211 642 OFFCURVE",
"-152 642 CURVE SMOOTH",
"-137 642 OFFCURVE",
"-124 640 OFFCURVE",
"-112 635 CURVE",
"-113 636 LINE",
"-146 692 OFFCURVE",
"-210 729 OFFCURVE",
"-298 729 CURVE SMOOTH",
"-395 729 OFFCURVE",
"-474 683 OFFCURVE",
"-523 628 CURVE",
"-618 628 LINE"
);
}
);
width = 0;
}
);
unicode = 0DD3;
},
{
color = 3;
glyphname = "lVocalicMatra-sinhala";
lastChange = "2018-12-17 06:01:13 +0000";
layers = (
{
layerId = "FDB844D3-6113-4F20-A391-626B83580871";
paths = (
{
closed = 1;
nodes = (
"224 267 OFFCURVE",
"243 285 OFFCURVE",
"243 307 CURVE SMOOTH",
"243 358 OFFCURVE",
"163 361 OFFCURVE",
"163 308 CURVE SMOOTH",
"163 286 OFFCURVE",
"180 267 OFFCURVE",
"202 267 CURVE SMOOTH"
);
},
{
closed = 1;
nodes = (
"187 437 OFFCURVE",
"193 438 OFFCURVE",
"199 438 CURVE SMOOTH",
"266 438 OFFCURVE",
"317 391 OFFCURVE",
"330 333 CURVE SMOOTH",
"331 329 OFFCURVE",
"332 325 OFFCURVE",
"332 320 CURVE SMOOTH",
"332 313 OFFCURVE",
"332 313 OFFCURVE",
"332 298 CURVE SMOOTH",
"332 271 OFFCURVE",
"322 247 OFFCURVE",
"302 224 CURVE SMOOTH",
"275 191 OFFCURVE",
"241 176 OFFCURVE",
"200 177 CURVE SMOOTH",
"156 177 OFFCURVE",
"121 201 OFFCURVE",
"94 231 CURVE SMOOTH",
"89 236 OFFCURVE",
"81 251 OFFCURVE",
"77 257 CURVE SMOOTH",
"62 284 OFFCURVE",
"55 315 OFFCURVE",
"55 350 CURVE SMOOTH",
"55 397 OFFCURVE",
"66 439 OFFCURVE",
"88 476 CURVE SMOOTH",
"110 513 OFFCURVE",
"134 540 OFFCURVE",
"158 557 CURVE SMOOTH",
"240 616 OFFCURVE",
"346 628 OFFCURVE",
"430 564 CURVE SMOOTH",
"460 541 OFFCURVE",
"484 506 OFFCURVE",
"504 459 CURVE SMOOTH",
"513 435 OFFCURVE",
"531 360 OFFCURVE",
"541 307 CURVE SMOOTH",
"552 249 OFFCURVE",
"571 210 OFFCURVE",
"597 189 CURVE SMOOTH",
"624 165 OFFCURVE",
"657 156 OFFCURVE",
"695 163 CURVE",
"710 65 LINE",
"636 53 OFFCURVE",
"572 79 OFFCURVE",
"532 113 CURVE SMOOTH",
"491 150 OFFCURVE",
"463 204 OFFCURVE",
"447 274 CURVE SMOOTH",
"443 292 OFFCURVE",
"439 309 OFFCURVE",
"436 326 CURVE",
"436 330 LINE",
"423 400 OFFCURVE",
"411 454 OFFCURVE",
"367 487 CURVE SMOOTH",
"348 502 OFFCURVE",
"324 509 OFFCURVE",
"297 509 CURVE SMOOTH",
"249 506 OFFCURVE",
"210 482 OFFCURVE",
"180 436 CURVE"
);
}
);
width = 740;
}
);
unicode = 0DDF;
},
{
glyphname = "llVocalicMatra-sinhala";
lastChange = "2018-02-20 19:37:35 +0000";
layers = (
{
layerId = "FDB844D3-6113-4F20-A391-626B83580871";
paths = (
{
closed = 1;
nodes = (
"230 330 OFFCURVE",
"267 348 OFFCURVE",
"267 386 CURVE SMOOTH",
"267 416 OFFCURVE",
"256 432 OFFCURVE",
"233 432 CURVE SMOOTH",
"226 432 OFFCURVE",
"219 431 OFFCURVE",
"213 428 CURVE",
"167 472 LINE",
"198 529 OFFCURVE",
"237 568 OFFCURVE",
"314 568 CURVE SMOOTH",
"372 568 OFFCURVE",
"417 544 OFFCURVE",
"450 496 CURVE SMOOTH",
"483 448 OFFCURVE",
"499 377 OFFCURVE",
"499 286 CURVE SMOOTH",
"499 88 OFFCURVE",
"420 -11 OFFCURVE",
"261 -11 CURVE SMOOTH",
"170 -11 OFFCURVE",
"94 24 OFFCURVE",
"94 108 CURVE SMOOTH",
"94 180 OFFCURVE",
"145 225 OFFCURVE",
"216 225 CURVE SMOOTH",
"251 225 OFFCURVE",
"283 219 OFFCURVE",
"310 206 CURVE SMOOTH",
"337 193 OFFCURVE",
"367 170 OFFCURVE",
"399 139 CURVE",
"414 175 OFFCURVE",
"421 226 OFFCURVE",
"421 292 CURVE SMOOTH",
"421 358 OFFCURVE",
"410 409 OFFCURVE",
"390 446 CURVE SMOOTH",
"370 483 OFFCURVE",
"342 502 OFFCURVE",
"306 502 CURVE SMOOTH",
"284 502 OFFCURVE",
"266 495 OFFCURVE",
"252 481 CURVE",
"309 478 OFFCURVE",
"337 444 OFFCURVE",
"337 382 CURVE SMOOTH",
"337 306 OFFCURVE",
"271 264 OFFCURVE",
"189 264 CURVE SMOOTH",
"89 261 OFFCURVE",
"27 326 OFFCURVE",
"27 426 CURVE SMOOTH",
"27 475 OFFCURVE",
"39 523 OFFCURVE",
"63 568 CURVE",
"132 548 LINE",
"110 507 OFFCURVE",
"99 468 OFFCURVE",
"99 433 CURVE SMOOTH",
"99 364 OFFCURVE",
"129 330 OFFCURVE",
"189 330 CURVE SMOOTH"
);
},
{
closed = 1;
nodes = (
"167 66 OFFCURVE",
"215 57 OFFCURVE",
"270 57 CURVE SMOOTH",
"306 57 OFFCURVE",
"336 66 OFFCURVE",
"360 85 CURVE",
"312 133 OFFCURVE",
"268 157 OFFCURVE",
"228 157 CURVE SMOOTH",
"188 157 OFFCURVE",
"167 142 OFFCURVE",
"167 111 CURVE SMOOTH"
);
}
);
width = 541;
}
);
unicode = 0DF3;
},
{
color = 3;
glyphname = "rVocalicMatra-sinhala";
lastChange = "2018-12-17 06:01:13 +0000";
layers = (
{
layerId = "FDB844D3-6113-4F20-A391-626B83580871";
paths = (
{
closed = 1;
nodes = (
"107 -11 OFFCURVE",
"51 57 OFFCURVE",
"51 156 CURVE SMOOTH",
"51 282 OFFCURVE",
"128 333 OFFCURVE",
"256 342 CURVE SMOOTH",
"281 344 OFFCURVE",
"309 345 OFFCURVE",
"341 345 CURVE",
"337 446 OFFCURVE",
"295 484 OFFCURVE",
"196 484 CURVE SMOOTH",
"151 484 OFFCURVE",
"121 477 OFFCURVE",
"81 462 CURVE",
"59 543 LINE",
"110 560 OFFCURVE",
"156 568 OFFCURVE",
"199 568 CURVE SMOOTH",
"322 568 OFFCURVE",
"391 523 OFFCURVE",
"417 427 CURVE SMOOTH",
"426 396 OFFCURVE",
"430 353 OFFCURVE",
"430 297 CURVE SMOOTH",
"430 0 LINE",
"365 0 LINE SMOOTH",
"332 0 OFFCURVE",
"287 -11 OFFCURVE",
"204 -11 CURVE SMOOTH"
);
},
{
closed = 1;
nodes = (
"254 70 OFFCURVE",
"317 78 OFFCURVE",
"345 77 CURVE",
"345 258 LINE",
"311 258 LINE SMOOTH",
"196 258 OFFCURVE",
"136 231 OFFCURVE",
"136 157 CURVE SMOOTH",
"136 111 OFFCURVE",
"156 70 OFFCURVE",
"215 70 CURVE SMOOTH"
);
}
);
width = 481;
}
);
unicode = 0DD8;
},
{
color = 3;
glyphname = "uMatra-sinhala";
lastChange = "2018-12-17 06:01:13 +0000";
layers = (
{
layerId = "FDB844D3-6113-4F20-A391-626B83580871";
paths = (
{
closed = 1;
nodes = (
"-540 -256 OFFCURVE",
"-604 -212 OFFCURVE",
"-604 -131 CURVE SMOOTH",
"-604 -101 OFFCURVE",
"-595 -74 OFFCURVE",
"-576 -50 CURVE",
"-510 -103 LINE",
"-516 -111 OFFCURVE",
"-519 -122 OFFCURVE",
"-519 -136 CURVE SMOOTH",
"-519 -160 OFFCURVE",
"-498 -172 OFFCURVE",
"-457 -172 CURVE SMOOTH",
"-108 -172 LINE",
"-102 -144 OFFCURVE",
"-99 -110 OFFCURVE",
"-99 -70 CURVE SMOOTH",
"-99 -30 OFFCURVE",
"-108 13 OFFCURVE",
"-125 62 CURVE",
"-45 90 LINE",
"-25 34 OFFCURVE",
"-15 -25 OFFCURVE",
"-15 -87 CURVE SMOOTH",
"-15 -136 OFFCURVE",
"-21 -182 OFFCURVE",
"-34 -225 CURVE SMOOTH",
"-43 -256 LINE",
"-457 -256 LINE SMOOTH"
);
}
);
width = 0;
}
);
unicode = 0DD4;
},
{
color = 3;
glyphname = "uuMatra-sinhala";
lastChange = "2018-12-17 06:01:13 +0000";
layers = (
{
layerId = "FDB844D3-6113-4F20-A391-626B83580871";
paths = (
{
closed = 1;
nodes = (
"-535 -284 OFFCURVE",
"-606 -234 OFFCURVE",
"-606 -154 CURVE SMOOTH",
"-606 -121 OFFCURVE",
"-595 -94 OFFCURVE",
"-574 -74 CURVE",
"-513 -132 LINE",
"-518 -141 OFFCURVE",
"-521 -148 OFFCURVE",
"-521 -154 CURVE SMOOTH",
"-521 -187 OFFCURVE",
"-483 -199 OFFCURVE",
"-446 -199 CURVE SMOOTH",
"-401 -199 OFFCURVE",
"-349 -182 OFFCURVE",
"-310 -177 CURVE SMOOTH",
"-276 -172 OFFCURVE",
"-244 -170 OFFCURVE",
"-213 -170 CURVE SMOOTH",
"-182 -170 OFFCURVE",
"-147 -175 OFFCURVE",
"-108 -185 CURVE",
"-108 -161 LINE SMOOTH",
"-108 -90 OFFCURVE",
"-123 -25 OFFCURVE",
"-152 36 CURVE",
"-75 73 LINE",
"-40 0 OFFCURVE",
"-23 -77 OFFCURVE",
"-23 -157 CURVE SMOOTH",
"-23 -191 OFFCURVE",
"-25 -221 OFFCURVE",
"-30 -248 CURVE SMOOTH",
"-39 -298 LINE",
"-88 -281 LINE",
"-134 -264 OFFCURVE",
"-180 -255 OFFCURVE",
"-227 -255 CURVE SMOOTH",
"-260 -255 OFFCURVE",
"-297 -260 OFFCURVE",
"-338 -270 CURVE SMOOTH",
"-388 -279 OFFCURVE",
"-426 -284 OFFCURVE",
"-449 -284 CURVE SMOOTH"
);
}
);
width = 0;
}
);
unicode = 0DD6;
},
{
color = 3;
glyphname = "virama-sinhala";
lastChange = "2018-12-17 06:01:13 +0000";
layers = (
{
anchors = (
{
name = _virama;
position = "{-361, 587}";
}
);
layerId = "FDB844D3-6113-4F20-A391-626B83580871";
paths = (
{
closed = 1;
nodes = (
"-371 824 OFFCURVE",
"-357 808 OFFCURVE",
"-334 808 CURVE SMOOTH",
"-316 808 OFFCURVE",
"-304 818 OFFCURVE",
"-297 838 CURVE",
"-297 843 LINE SMOOTH",
"-297 864 OFFCURVE",
"-313 881 OFFCURVE",
"-334 881 CURVE SMOOTH",
"-355 881 OFFCURVE",
"-368 866 OFFCURVE",
"-372 848 CURVE",
"-371 847 LINE"
);
},
{
closed = 1;
nodes = (
"-405 713 OFFCURVE",
"-452 760 OFFCURVE",
"-452 840 CURVE SMOOTH",
"-452 903 OFFCURVE",
"-404 961 OFFCURVE",
"-342 961 CURVE SMOOTH",
"-270 961 OFFCURVE",
"-218 915 OFFCURVE",
"-218 842 CURVE SMOOTH",
"-218 776 OFFCURVE",
"-274 728 OFFCURVE",
"-334 728 CURVE SMOOTH",
"-340 728 LINE",
"-331 698 OFFCURVE",
"-326 662 OFFCURVE",
"-326 622 CURVE",
"-405 624 LINE",
"-405 631 LINE SMOOTH"
);
}
);
width = 0;
}
);
unicode = 0DCA;
},
{
color = 3;
glyphname = "visargaya-sinhala";
lastChange = "2018-12-17 06:01:13 +0000";
layers = (
{
layerId = "FDB844D3-6113-4F20-A391-626B83580871";
paths = (
{
closed = 1;
nodes = (
"31 507 OFFCURVE",
"86 557 OFFCURVE",
"164 557 CURVE SMOOTH",
"242 557 OFFCURVE",
"294 510 OFFCURVE",
"294 433 CURVE SMOOTH",
"294 355 OFFCURVE",
"241 307 OFFCURVE",
"162 307 CURVE SMOOTH",
"84 307 OFFCURVE",
"31 353 OFFCURVE",
"31 430 CURVE SMOOTH"
);
},
{
closed = 1;
nodes = (
"229 471 OFFCURVE",
"202 495 OFFCURVE",
"162 495 CURVE SMOOTH",
"122 495 OFFCURVE",
"96 471 OFFCURVE",
"96 432 CURVE SMOOTH",
"96 393 OFFCURVE",
"122 369 OFFCURVE",
"162 369 CURVE SMOOTH",
"202 369 OFFCURVE",
"229 393 OFFCURVE",
"229 432 CURVE SMOOTH"
);
},
{
closed = 1;
nodes = (
"240 250 OFFCURVE",
"294 201 OFFCURVE",
"294 124 CURVE SMOOTH",
"294 47 OFFCURVE",
"241 0 OFFCURVE",
"162 0 CURVE SMOOTH",
"84 0 OFFCURVE",
"31 46 OFFCURVE",
"31 123 CURVE SMOOTH",
"31 199 OFFCURVE",
"85 250 OFFCURVE",
"162 250 CURVE SMOOTH"
);
},
{
closed = 1;
nodes = (
"229 163 OFFCURVE",
"201 188 OFFCURVE",
"162 188 CURVE SMOOTH",
"122 188 OFFCURVE",
"96 164 OFFCURVE",
"96 125 CURVE SMOOTH",
"96 85 OFFCURVE",
"121 62 OFFCURVE",
"161 62 CURVE SMOOTH",
"201 62 OFFCURVE",
"229 85 OFFCURVE",
"229 124 CURVE SMOOTH"
);
}
);
width = 325;
}
);
unicode = 0D83;
},
{
glyphname = "sha_pulli_ra_iiMatra-tamil";
lastChange = "2018-02-20 19:37:35 +0000";
layers = (
{
layerId = "FDB844D3-6113-4F20-A391-626B83580871";
paths = (
{
closed = 1;
nodes = (
"1125 611 OFFCURVE",
"1158 578 OFFCURVE",
"1199 578 CURVE SMOOTH",
"1240 578 OFFCURVE",
"1272 611 OFFCURVE",
"1272 652 CURVE SMOOTH",
"1272 693 OFFCURVE",
"1239 725 OFFCURVE",
"1198 725 CURVE SMOOTH",
"1158 725 OFFCURVE",
"1125 692 OFFCURVE",
"1125 652 CURVE SMOOTH"
);
},
{
closed = 1;
nodes = (
"965 565 OFFCURVE",
"1008 517 OFFCURVE",
"1051 492 CURVE",
"1235 492 LINE",
"1235 443 LINE",
"1076 443 LINE",
"1076 264 LINE",
"1093 285 OFFCURVE",
"1118 295 OFFCURVE",
"1153 295 CURVE SMOOTH",
"1188 295 OFFCURVE",
"1220 278 OFFCURVE",
"1246 244 CURVE SMOOTH",
"1272 210 OFFCURVE",
"1285 170 OFFCURVE",
"1285 123 CURVE SMOOTH",
"1285 1 OFFCURVE",
"1214 -103 OFFCURVE",
"1072 -190 CURVE SMOOTH",
"930 -277 OFFCURVE",
"759 -320 OFFCURVE",
"559 -320 CURVE SMOOTH",
"440 -320 OFFCURVE",
"339 -304 OFFCURVE",
"255 -270 CURVE SMOOTH",
"171 -236 OFFCURVE",
"129 -195 OFFCURVE",
"129 -148 CURVE SMOOTH",
"129 -118 OFFCURVE",
"153 -92 OFFCURVE",
"201 -70 CURVE SMOOTH",
"249 -48 OFFCURVE",
"307 -37 OFFCURVE",
"375 -37 CURVE SMOOTH",
"517 -37 OFFCURVE",
"621 -66 OFFCURVE",
"688 -123 CURVE",
"658 -160 LINE",
"599 -111 OFFCURVE",
"505 -86 OFFCURVE",
"375 -86 CURVE SMOOTH",
"324 -86 OFFCURVE",
"281 -92 OFFCURVE",
"245 -104 CURVE SMOOTH",
"209 -116 OFFCURVE",
"191 -131 OFFCURVE",
"191 -148 CURVE SMOOTH",
"191 -181 OFFCURVE",
"227 -210 OFFCURVE",
"299 -234 CURVE SMOOTH",
"371 -258 OFFCURVE",
"458 -270 OFFCURVE",
"559 -270 CURVE SMOOTH",
"742 -270 OFFCURVE",
"898 -232 OFFCURVE",
"1028 -156 CURVE SMOOTH",
"1158 -80 OFFCURVE",
"1223 14 OFFCURVE",
"1223 123 CURVE SMOOTH",
"1223 173 OFFCURVE",
"1198 246 OFFCURVE",
"1154 246 CURVE SMOOTH",
"1118 246 OFFCURVE",
"1092 232 OFFCURVE",
"1076 203 CURVE",
"1076 0 LINE",
"1014 0 LINE",
"1014 443 LINE",
"854 443 LINE",
"854 0 LINE",
"793 0 LINE",
"793 356 LINE SMOOTH",
"793 404 OFFCURVE",
"758 455 OFFCURVE",
"712 455 CURVE SMOOTH",
"669 455 OFFCURVE",
"645 413 OFFCURVE",
"645 369 CURVE SMOOTH",
"645 0 LINE",
"92 0 LINE",
"92 492 LINE",
"154 492 LINE",
"154 49 LINE",
"584 49 LINE",
"584 369 LINE SMOOTH",
"584 443 OFFCURVE",
"637 504 OFFCURVE",
"710 504 CURVE SMOOTH",
"746 504 OFFCURVE",
"778 488 OFFCURVE",
"805 455 CURVE",
"805 492 LINE",
"971 492 LINE",
"926 530 OFFCURVE",
"904 575 OFFCURVE",
"904 626 CURVE SMOOTH",
"904 733 OFFCURVE",
"1011 811 OFFCURVE",
"1120 811 CURVE SMOOTH",
"1223 811 OFFCURVE",
"1321 749 OFFCURVE",
"1321 652 CURVE SMOOTH",
"1321 586 OFFCURVE",
"1265 529 OFFCURVE",
"1199 529 CURVE SMOOTH",
"1136 529 OFFCURVE",
"1076 584 OFFCURVE",
"1076 646 CURVE SMOOTH",
"1076 704 OFFCURVE",
"1102 747 OFFCURVE",
"1143 762 CURVE",
"1056 762 OFFCURVE",
"965 710 OFFCURVE",
"965 627 CURVE SMOOTH"
);
}
);
width = 1332;
}
);
},
{
glyphname = "ka_pulli_ssa_pulli-tamil";
lastChange = "2018-02-20 19:37:35 +0000";
layers = (
{
layerId = "FDB844D3-6113-4F20-A391-626B83580871";
paths = (
{
closed = 1;
nodes = (
"342 443 LINE",
"219 443 LINE",
"219 270 LINE",
"342 270 LINE"
);
},
{
closed = 1;
nodes = (
"123 221 OFFCURVE",
"96 194 OFFCURVE",
"96 160 CURVE SMOOTH",
"96 94 OFFCURVE",
"160 37 OFFCURVE",
"226 37 CURVE SMOOTH",
"287 37 OFFCURVE",
"342 77 OFFCURVE",
"342 135 CURVE SMOOTH",
"342 221 LINE",
"157 221 LINE SMOOTH"
);
},
{
closed = 1;
nodes = (
"609 37 OFFCURVE",
"624 77 OFFCURVE",
"624 116 CURVE SMOOTH",
"624 167 OFFCURVE",
"584 214 OFFCURVE",
"538 221 CURVE",
"530 198 OFFCURVE",
"526 173 OFFCURVE",
"526 145 CURVE SMOOTH",
"526 105 OFFCURVE",
"540 37 OFFCURVE",
"575 37 CURVE SMOOTH"
);
},
{
closed = 1;
nodes = (
"969 243 OFFCURVE",
"1030 184 OFFCURVE",
"1104 184 CURVE SMOOTH",
"1115 184 OFFCURVE",
"1127 186 OFFCURVE",
"1141 191 CURVE",
"1141 369 LINE SMOOTH",
"1141 407 OFFCURVE",
"1116 443 OFFCURVE",
"1079 443 CURVE SMOOTH",
"1015 443 OFFCURVE",
"969 382 OFFCURVE",
"969 316 CURVE SMOOTH"
);
},
{
closed = 1;
nodes = (
"1281 185 OFFCURVE",
"1248 165 OFFCURVE",
"1202 148 CURVE",
"1202 49 LINE",
"1301 49 LINE",
"1301 209 LINE"
);
},
{
closed = 1;
nodes = (
"506 -12 OFFCURVE",
"465 73 OFFCURVE",
"465 148 CURVE SMOOTH",
"465 174 OFFCURVE",
"469 198 OFFCURVE",
"477 221 CURVE",
"403 221 LINE",
"403 135 LINE SMOOTH",
"403 47 OFFCURVE",
"318 -12 OFFCURVE",
"226 -12 CURVE SMOOTH",
"175 -12 OFFCURVE",
"131 4 OFFCURVE",
"92 38 CURVE SMOOTH",
"53 72 OFFCURVE",
"34 113 OFFCURVE",
"34 160 CURVE SMOOTH",
"34 222 OFFCURVE",
"94 270 OFFCURVE",
"157 270 CURVE",
"157 492 LINE",
"575 492 LINE",
"575 443 LINE",
"403 443 LINE",
"403 270 LINE",
"495 270 LINE",
"526 322 OFFCURVE",
"597 356 OFFCURVE",
"680 356 CURVE SMOOTH",
"789 356 OFFCURVE",
"883 269 OFFCURVE",
"883 160 CURVE SMOOTH",
"883 132 OFFCURVE",
"875 95 OFFCURVE",
"858 49 CURVE",
"1141 49 LINE",
"1141 135 LINE",
"1104 135 LINE SMOOTH",
"1050 135 OFFCURVE",
"1004 153 OFFCURVE",
"965 189 CURVE SMOOTH",
"926 225 OFFCURVE",
"907 268 OFFCURVE",
"907 317 CURVE SMOOTH",
"907 413 OFFCURVE",
"984 492 OFFCURVE",
"1079 492 CURVE SMOOTH",
"1145 492 OFFCURVE",
"1202 435 OFFCURVE",
"1202 369 CURVE SMOOTH",
"1202 209 LINE",
"1246 225 OFFCURVE",
"1285 262 OFFCURVE",
"1319 320 CURVE",
"1362 320 LINE",
"1362 0 LINE",
"1202 0 LINE",
"1202 -295 LINE",
"1141 -295 LINE",
"1141 0 LINE",
"772 0 LINE",
"772 37 LINE",
"805 77 OFFCURVE",
"821 118 OFFCURVE",
"821 159 CURVE SMOOTH",
"821 241 OFFCURVE",
"755 307 OFFCURVE",
"674 307 CURVE SMOOTH",
"635 307 OFFCURVE",
"602 295 OFFCURVE",
"575 270 CURVE",
"634 249 OFFCURVE",
"686 190 OFFCURVE",
"686 113 CURVE SMOOTH",
"686 48 OFFCURVE",
"639 -12 OFFCURVE",
"576 -12 CURVE SMOOTH"
);
},
{
closed = 1;
nodes = (
"652 722 OFFCURVE",
"679 750 OFFCURVE",
"713 750 CURVE SMOOTH",
"747 750 OFFCURVE",
"774 722 OFFCURVE",
"774 688 CURVE SMOOTH",
"774 654 OFFCURVE",
"747 627 OFFCURVE",
"713 627 CURVE SMOOTH",
"679 627 OFFCURVE",
"652 654 OFFCURVE",
"652 688 CURVE SMOOTH"
);
}
);
width = 1423;
}
);
},
{
glyphname = "ka_pulli_ssa_iMatra-tamil";
lastChange = "2018-02-20 19:37:35 +0000";
layers = (
{
layerId = "FDB844D3-6113-4F20-A391-626B83580871";
paths = (
{
closed = 1;
nodes = (
"342 443 LINE",
"219 443 LINE",
"219 270 LINE",
"342 270 LINE"
);
},
{
closed = 1;
nodes = (
"123 221 OFFCURVE",
"96 194 OFFCURVE",
"96 160 CURVE SMOOTH",
"96 94 OFFCURVE",
"160 37 OFFCURVE",
"226 37 CURVE SMOOTH",
"287 37 OFFCURVE",
"342 77 OFFCURVE",
"342 135 CURVE SMOOTH",
"342 221 LINE",
"157 221 LINE SMOOTH"
);
},
{
closed = 1;
nodes = (
"609 37 OFFCURVE",
"624 82 OFFCURVE",
"624 120 CURVE SMOOTH",
"624 171 OFFCURVE",
"583 214 OFFCURVE",
"538 221 CURVE",
"530 198 OFFCURVE",
"526 173 OFFCURVE",
"526 145 CURVE SMOOTH",
"526 105 OFFCURVE",
"540 37 OFFCURVE",
"575 37 CURVE SMOOTH"
);
},
{
closed = 1;
nodes = (
"969 243 OFFCURVE",
"1030 184 OFFCURVE",
"1104 184 CURVE SMOOTH",
"1115 184 OFFCURVE",
"1127 186 OFFCURVE",
"1141 191 CURVE",
"1141 369 LINE SMOOTH",
"1141 407 OFFCURVE",
"1116 443 OFFCURVE",
"1079 443 CURVE SMOOTH",
"1015 443 OFFCURVE",
"969 382 OFFCURVE",
"969 316 CURVE SMOOTH"
);
},
{
closed = 1;
nodes = (
"1281 185 OFFCURVE",
"1248 165 OFFCURVE",
"1202 148 CURVE",
"1202 49 LINE",
"1301 49 LINE",
"1301 209 LINE"
);
},
{
closed = 1;
nodes = (
"907 419 OFFCURVE",
"991 498 OFFCURVE",
"1092 498 CURVE",
"1051 532 OFFCURVE",
"1030 573 OFFCURVE",
"1030 620 CURVE SMOOTH",
"1030 667 OFFCURVE",
"1052 709 OFFCURVE",
"1098 745 CURVE SMOOTH",
"1144 781 OFFCURVE",
"1201 799 OFFCURVE",
"1269 799 CURVE SMOOTH",
"1337 799 OFFCURVE",
"1396 776 OFFCURVE",
"1446 731 CURVE SMOOTH",
"1496 686 OFFCURVE",
"1522 630 OFFCURVE",
"1522 565 CURVE SMOOTH",
"1522 0 LINE",
"1460 0 LINE",
"1460 565 LINE SMOOTH",
"1460 619 OFFCURVE",
"1440 665 OFFCURVE",
"1402 704 CURVE SMOOTH",
"1364 743 OFFCURVE",
"1320 762 OFFCURVE",
"1269 762 CURVE SMOOTH",
"1218 762 OFFCURVE",
"1176 748 OFFCURVE",
"1142 719 CURVE SMOOTH",
"1108 690 OFFCURVE",
"1092 658 OFFCURVE",
"1092 622 CURVE SMOOTH",
"1092 586 OFFCURVE",
"1110 543 OFFCURVE",
"1147 492 CURVE SMOOTH",
"1184 441 OFFCURVE",
"1202 400 OFFCURVE",
"1202 369 CURVE SMOOTH",
"1202 209 LINE",
"1246 225 OFFCURVE",
"1285 262 OFFCURVE",
"1319 320 CURVE",
"1362 320 LINE",
"1362 0 LINE",
"1202 0 LINE",
"1202 -295 LINE",
"1141 -295 LINE",
"1141 0 LINE",
"772 0 LINE",
"772 37 LINE",
"805 77 OFFCURVE",
"821 118 OFFCURVE",
"821 159 CURVE SMOOTH",
"821 241 OFFCURVE",
"755 307 OFFCURVE",
"674 307 CURVE SMOOTH",
"635 307 OFFCURVE",
"602 295 OFFCURVE",
"575 270 CURVE",
"634 249 OFFCURVE",
"686 192 OFFCURVE",
"686 116 CURVE SMOOTH",
"686 51 OFFCURVE",
"639 -12 OFFCURVE",
"576 -12 CURVE SMOOTH",
"506 -12 OFFCURVE",
"465 73 OFFCURVE",
"465 148 CURVE SMOOTH",
"465 174 OFFCURVE",
"469 198 OFFCURVE",
"477 221 CURVE",
"403 221 LINE",
"403 135 LINE SMOOTH",
"403 47 OFFCURVE",
"318 -12 OFFCURVE",
"226 -12 CURVE SMOOTH",
"175 -12 OFFCURVE",
"131 4 OFFCURVE",
"92 38 CURVE SMOOTH",
"53 72 OFFCURVE",
"34 113 OFFCURVE",
"34 160 CURVE SMOOTH",
"34 222 OFFCURVE",
"94 270 OFFCURVE",
"157 270 CURVE",
"157 492 LINE",
"575 492 LINE",
"575 443 LINE",
"403 443 LINE",
"403 270 LINE",
"495 270 LINE",
"526 322 OFFCURVE",
"597 356 OFFCURVE",
"680 356 CURVE SMOOTH",
"789 356 OFFCURVE",
"883 269 OFFCURVE",
"883 160 CURVE SMOOTH",
"883 132 OFFCURVE",
"875 95 OFFCURVE",
"858 49 CURVE",
"1141 49 LINE",
"1141 135 LINE",
"1104 135 LINE SMOOTH",
"1000 135 OFFCURVE",
"907 215 OFFCURVE",
"907 318 CURVE SMOOTH"
);
}
);
width = 1614;
}
);
},
{
glyphname = "ka_pulli_ssa_iiMatra-tamil";
lastChange = "2018-02-20 19:37:35 +0000";
layers = (
{
layerId = "FDB844D3-6113-4F20-A391-626B83580871";
paths = (
{
closed = 1;
nodes = (
"342 443 LINE",
"219 443 LINE",
"219 270 LINE",
"342 270 LINE"
);
},
{
closed = 1;
nodes = (
"123 221 OFFCURVE",
"96 194 OFFCURVE",
"96 160 CURVE SMOOTH",
"96 94 OFFCURVE",
"160 37 OFFCURVE",
"226 37 CURVE SMOOTH",
"287 37 OFFCURVE",
"342 77 OFFCURVE",
"342 135 CURVE SMOOTH",
"342 221 LINE",
"157 221 LINE SMOOTH"
);
},
{
closed = 1;
nodes = (
"609 37 OFFCURVE",
"624 85 OFFCURVE",
"624 123 CURVE SMOOTH",
"624 174 OFFCURVE",
"583 214 OFFCURVE",
"538 221 CURVE",
"530 198 OFFCURVE",
"526 173 OFFCURVE",
"526 145 CURVE SMOOTH",
"526 105 OFFCURVE",
"540 37 OFFCURVE",
"575 37 CURVE SMOOTH"
);
},
{
closed = 1;
nodes = (
"969 243 OFFCURVE",
"1030 184 OFFCURVE",
"1104 184 CURVE SMOOTH",
"1115 184 OFFCURVE",
"1127 186 OFFCURVE",
"1141 191 CURVE",
"1141 369 LINE SMOOTH",
"1141 407 OFFCURVE",
"1116 443 OFFCURVE",
"1079 443 CURVE SMOOTH",
"1015 443 OFFCURVE",
"969 382 OFFCURVE",
"969 316 CURVE SMOOTH"
);
},
{
closed = 1;
nodes = (
"1281 185 OFFCURVE",
"1248 165 OFFCURVE",
"1202 148 CURVE",
"1202 49 LINE",
"1301 49 LINE",
"1301 209 LINE"
);
},
{
closed = 1;
nodes = (
"789 356 OFFCURVE",
"883 269 OFFCURVE",
"883 160 CURVE SMOOTH",
"883 132 OFFCURVE",
"875 95 OFFCURVE",
"858 49 CURVE",
"1141 49 LINE",
"1141 135 LINE",
"1104 135 LINE SMOOTH",
"1050 135 OFFCURVE",
"1004 153 OFFCURVE",
"965 189 CURVE SMOOTH",
"926 225 OFFCURVE",
"907 267 OFFCURVE",
"907 314 CURVE SMOOTH",
"907 407 OFFCURVE",
"963 479 OFFCURVE",
"1042 492 CURVE",
"983 526 OFFCURVE",
"932 591 OFFCURVE",
"932 676 CURVE SMOOTH",
"932 776 OFFCURVE",
"1016 861 OFFCURVE",
"1116 861 CURVE SMOOTH",
"1167 861 OFFCURVE",
"1210 847 OFFCURVE",
"1246 818 CURVE SMOOTH",
"1282 789 OFFCURVE",
"1301 755 OFFCURVE",
"1301 718 CURVE SMOOTH",
"1301 647 OFFCURVE",
"1247 590 OFFCURVE",
"1178 590 CURVE SMOOTH",
"1112 590 OFFCURVE",
"1055 647 OFFCURVE",
"1055 713 CURVE SMOOTH",
"1055 757 OFFCURVE",
"1067 785 OFFCURVE",
"1092 799 CURVE",
"1035 790 OFFCURVE",
"993 738 OFFCURVE",
"993 672 CURVE SMOOTH",
"993 590 OFFCURVE",
"1058 526 OFFCURVE",
"1116 492 CURVE",
"1167 484 OFFCURVE",
"1202 429 OFFCURVE",
"1202 369 CURVE SMOOTH",
"1202 209 LINE",
"1246 225 OFFCURVE",
"1285 262 OFFCURVE",
"1319 320 CURVE",
"1362 320 LINE",
"1362 0 LINE",
"1202 0 LINE",
"1202 -295 LINE",
"1141 -295 LINE",
"1141 0 LINE",
"772 0 LINE",
"772 37 LINE",
"805 77 OFFCURVE",
"821 118 OFFCURVE",
"821 159 CURVE SMOOTH",
"821 241 OFFCURVE",
"755 307 OFFCURVE",
"674 307 CURVE SMOOTH",
"635 307 OFFCURVE",
"602 295 OFFCURVE",
"575 270 CURVE",
"634 249 OFFCURVE",
"686 195 OFFCURVE",
"686 118 CURVE SMOOTH",
"686 53 OFFCURVE",
"640 -12 OFFCURVE",
"576 -12 CURVE SMOOTH",
"506 -12 OFFCURVE",
"465 73 OFFCURVE",
"465 148 CURVE SMOOTH",
"465 174 OFFCURVE",
"469 198 OFFCURVE",
"477 221 CURVE",
"403 221 LINE",
"403 135 LINE SMOOTH",
"403 47 OFFCURVE",
"318 -12 OFFCURVE",
"226 -12 CURVE SMOOTH",
"175 -12 OFFCURVE",
"131 4 OFFCURVE",
"92 38 CURVE SMOOTH",
"53 72 OFFCURVE",
"34 113 OFFCURVE",
"34 160 CURVE SMOOTH",
"34 222 OFFCURVE",
"94 270 OFFCURVE",
"157 270 CURVE",
"157 492 LINE",
"575 492 LINE",
"575 443 LINE",
"403 443 LINE",
"403 270 LINE",
"495 270 LINE",
"526 322 OFFCURVE",
"597 356 OFFCURVE",
"680 356 CURVE SMOOTH"
);
},
{
closed = 1;
nodes = (
"1116 675 OFFCURVE",
"1141 639 OFFCURVE",
"1178 639 CURVE SMOOTH",
"1215 639 OFFCURVE",
"1239 675 OFFCURVE",
"1239 713 CURVE SMOOTH",
"1239 751 OFFCURVE",
"1214 787 OFFCURVE",
"1178 787 CURVE SMOOTH",
"1142 787 OFFCURVE",
"1116 751 OFFCURVE",
"1116 713 CURVE SMOOTH"
);
}
